<svg width="315" height="184" viewBox="0 0 315 184" fill="none" xmlns="http://www.w3.org/2000/svg">
<g clip-path="url(#clip0_16_9143)">
<path d="M88.1038 86.5997C90.477 90.8895 93.3686 94.4799 98.0092 96.4845C97.3338 96.6425 96.834 96.5331 96.3398 96.3905C94.6627 95.9065 93.1514 95.039 91.8923 93.8765C90.6418 92.7217 89.3597 91.5028 88.6952 89.864C88.2587 88.7866 87.8474 87.6583 88.0558 86.3908C89.0651 86.5842 90.0548 86.677 91.0543 86.6538C93.1122 86.6074 94.9256 85.9178 96.6573 84.7818C98.1412 83.8083 99.4932 82.6645 100.95 81.6744C102.691 80.492 104.5 79.3758 106.617 78.9526C107.932 78.6896 109.248 78.6929 110.574 78.8531C112.748 79.1173 114.808 79.8654 116.926 80.366C118.873 80.8268 120.803 80.8699 122.755 80.4279C123.427 80.2754 123.984 79.9195 124.551 79.5703C124.843 79.3913 124.773 79.0896 124.723 78.8222C124.651 78.4387 124.376 78.231 124.024 78.1481C123.604 78.0498 123.187 78.1492 122.795 78.294C122.343 78.4597 121.86 78.5647 121.488 78.9183C121.389 79.0134 121.221 79.0078 121.075 78.9714C121.711 76.9403 123.36 75.7214 125.449 75.6717C126.845 75.6385 128.193 75.9579 129.56 76.1413C130.536 76.2728 131.427 76.0617 132.295 75.6252C133.073 75.234 133.833 74.7799 134.704 74.6263C135.459 74.4937 136.185 74.5379 136.793 75.1898C135.969 75.8882 134.983 76.2386 134.071 76.6983C132.992 77.2431 131.859 77.6873 130.659 77.9381C129.569 78.1658 128.533 78.0575 127.517 77.6243C127.238 77.505 126.953 77.4011 126.606 77.2652C127.126 78.1978 127.907 78.6929 129.501 79.1526C128.288 80.2776 124.572 81.9363 119.055 81.7318C119.907 82.4645 120.809 82.9529 121.78 83.3077C124.175 84.1829 126.601 84.0248 129.029 83.4767C130.751 83.0878 132.404 82.4767 134.035 81.8037C134.37 81.6655 134.629 81.344 135.064 81.3738C135.041 81.6291 134.821 81.7208 134.672 81.8468C133.912 82.4899 133.093 83.0391 132.234 83.5453C130.206 84.742 127.622 85.5288 125.357 85.4835C123.649 85.4493 121.959 85.2194 120.337 84.6337C119.146 84.2039 117.968 83.732 116.774 83.3132C114.817 82.6292 112.886 81.8622 110.805 81.6092C108.275 81.302 105.912 81.7407 103.662 82.9905C101.75 84.0536 99.9482 85.2924 98.0725 86.4129C95.229 88.1114 92.3025 88.3236 89.2397 87.1389C88.8862 87.0052 88.5763 86.7765 88.1038 86.5997Z" fill="#B31821"/>
<path d="M159.788 105.555C158.39 105.555 157.082 105.544 155.776 105.561C155.405 105.567 155.364 105.286 155.325 105.071C155.062 103.642 154.515 102.291 154.201 100.878C154.195 100.852 154.163 100.832 154.096 100.755C153.866 101.34 153.646 101.888 153.435 102.438C153.067 103.393 152.698 104.348 152.346 105.308C152.263 105.534 152.118 105.557 151.924 105.556C150.889 105.551 149.855 105.554 148.746 105.554C148.833 104.917 149.083 104.375 149.292 103.823C149.655 102.862 150.036 101.906 150.41 100.949C151.159 99.0349 151.911 97.1231 152.656 95.2069C153.251 93.6731 153.85 92.1404 154.412 90.5933C154.536 90.2551 154.687 90.1479 155.025 90.1512C156.733 90.1656 158.443 90.1214 160.151 90.1766C161.132 90.2087 162.15 90.2463 162.942 91.0043C163.76 91.7878 163.897 92.778 163.763 93.8333C163.551 95.5196 162.785 96.975 161.668 98.1873C160.672 99.268 159.449 100.084 157.937 100.33C158.551 102.067 159.156 103.77 159.788 105.555ZM155.22 97.8679C155.805 97.8679 156.294 97.8966 156.777 97.8624C158.302 97.7563 159.455 96.7794 159.819 95.3119C160.039 94.4245 159.662 93.8201 158.756 93.7118C158.201 93.6455 157.635 93.6819 157.074 93.6631C156.899 93.6576 156.81 93.7383 156.751 93.8908C156.253 95.1859 155.755 96.4799 155.22 97.8679Z" fill="#5B595C"/>
<path d="M147.131 90.1592C147.051 95.3066 146.971 100.397 146.892 105.521C145.541 105.521 144.241 105.521 142.936 105.521C142.713 104.815 143.038 104.118 142.971 103.339C142.404 103.339 141.847 103.339 141.291 103.339C140.346 103.339 139.4 103.348 138.455 103.334C138.173 103.329 137.963 103.381 137.844 103.669C137.574 104.318 136.969 104.721 136.638 105.33C136.556 105.48 136.428 105.562 136.239 105.56C135.041 105.554 133.842 105.557 132.598 105.557C132.758 104.955 133.175 104.569 133.499 104.136C134.786 102.415 136.06 100.681 137.403 99.0052C138.775 97.2935 140 95.4679 141.416 93.7904C142.075 93.0103 142.623 92.1339 143.236 91.3129C143.498 90.9626 143.804 90.6454 144.08 90.305C144.187 90.1724 144.317 90.1592 144.466 90.1603C145.318 90.1603 146.171 90.1592 147.131 90.1592ZM140.356 100.156C141.382 100.156 142.315 100.156 143.273 100.156C143.453 98.4549 143.63 96.7796 143.823 94.9585C142.63 96.7454 141.519 98.4107 140.356 100.156Z" fill="#5B595C"/>
<path d="M107.123 90.1658C107.05 95.3231 106.977 100.401 106.905 105.52C105.573 105.52 104.273 105.52 102.939 105.52C102.812 104.817 103.056 104.114 102.999 103.338C102.352 103.338 101.721 103.338 101.09 103.338C100.236 103.338 99.3806 103.355 98.5274 103.33C98.1956 103.322 97.9763 103.442 97.7963 103.701C97.5257 104.087 97.1962 104.442 96.9856 104.859C96.6713 105.48 96.2021 105.604 95.5671 105.573C94.5709 105.525 93.5714 105.56 92.501 105.56C92.7541 104.925 93.22 104.517 93.567 104.041C94.6222 102.592 95.7449 101.195 96.8339 99.7721C98.1324 98.0736 99.4243 96.3685 100.717 94.6645C101.756 93.2953 102.789 91.9206 103.832 90.5548C103.971 90.3735 104.11 90.1636 104.387 90.1636C105.272 90.1669 106.159 90.1658 107.123 90.1658ZM103.273 100.151C103.452 98.4726 103.626 96.8293 103.802 95.1872C103.766 95.1773 103.73 95.1673 103.694 95.1585C102.596 96.8028 101.497 98.4471 100.359 100.152C101.363 100.151 102.281 100.151 103.273 100.151Z" fill="#5B595C"/>
<path d="M132.347 69.2411C133.377 68.4002 134.562 67.8819 135.823 67.5117C138.711 66.6641 141.388 67.0995 143.873 68.8544C143.584 68.1283 143.029 67.5979 142.105 67.0885C141.356 66.6763 140.541 66.4442 139.744 66.1381C140.489 65.9226 141.234 65.9934 141.967 66.1249C142.682 66.2541 143.354 66.5348 144.029 66.8122C145.423 67.3879 146.644 68.3007 148.043 68.8698C149.38 69.4135 150.741 69.608 152.149 69.2721C152.71 69.1384 153.212 68.7836 153.815 68.7792C153.68 69.7462 153.104 70.2633 151.503 70.8059C152.318 71.0855 153.054 71.3573 153.804 71.5905C154.357 71.7629 154.861 72.0646 155.434 72.1884C155.601 72.2248 155.779 72.4149 155.869 72.5795C156.992 74.6725 158.843 75.8715 160.916 76.7799C161.737 77.1391 162.599 77.4021 163.465 77.7181C163.444 78.3834 163.633 79.0221 163.834 79.6453C163.999 80.1581 163.874 80.5449 163.54 80.8996C163.278 81.1781 162.993 81.4333 162.671 81.745C162.585 81.4002 162.513 81.0742 162.42 80.7537C161.643 78.0596 159.754 76.5014 157.244 75.592C155.342 74.9024 153.358 74.6946 151.356 74.6051C151.158 74.5963 150.961 74.5852 150.699 74.572C150.909 73.668 151.933 73.3984 152.168 72.5166C149.285 70.7507 146.239 69.8025 142.736 70.2423C143.411 70.8678 144.181 71.1164 144.872 71.5673C144.144 72.1663 143.408 72.0314 142.635 71.7994C141.711 71.5209 140.858 71.0369 139.908 70.8391C137.47 70.3307 135.266 70.9352 133.231 72.311C132.869 72.5552 132.515 72.8083 132.167 73.0945C134.766 72.4403 137.352 71.5839 140.011 72.8569C139.616 73.6868 138.453 74.2128 137.669 73.962C136.805 73.6846 135.936 73.7951 135.081 73.983C133.574 74.3134 132.077 74.688 130.575 75.0416C129.756 75.2339 128.952 75.1168 128.154 74.9101C126.554 74.4957 125.278 73.6073 124.34 72.2303C124.309 72.1861 124.294 72.1309 124.277 72.0801C124.273 72.0712 124.295 72.0535 124.333 72.0049C124.805 72.3 125.277 72.5994 125.834 72.7508C127.213 73.1266 128.52 72.8116 129.824 72.4061C131.858 71.774 133.755 70.7982 135.72 69.9904C136.353 69.7296 136.975 69.439 137.643 69.1439C136.906 68.6245 136.125 68.724 135.362 68.7836C134.363 68.8621 133.401 69.1494 132.425 69.3594C132.399 69.3174 132.373 69.2787 132.347 69.2411Z" fill="#B31821"/>
<path d="M177.134 100.436C177.069 100.796 176.99 101.098 176.962 101.405C176.892 102.181 177.325 102.598 178.075 102.501C178.881 102.399 179.748 101.537 179.886 100.726C179.968 100.247 179.737 99.9377 179.378 99.7178C178.712 99.3078 178.02 98.9398 177.353 98.5331C175.812 97.596 175.353 96.2932 175.976 94.5825C176.876 92.1127 178.72 90.7413 181.159 90.0849C182.133 89.823 183.099 89.7655 184.1 90.0407C185.878 90.5303 186.531 91.8961 186.121 93.6576C185.882 94.6853 185.867 94.682 184.804 94.6831C183.951 94.6842 183.098 94.6831 182.252 94.6831C182.086 94.3836 182.16 94.0852 182.147 93.7968C182.13 93.42 181.966 93.241 181.567 93.2421C180.687 93.2454 180.007 93.6697 179.724 94.44C179.516 95.0013 179.643 95.3362 180.132 95.6412C180.878 96.1075 181.611 96.5949 182.352 97.07C183.844 98.027 184.106 99.3741 183.478 101.023C182.644 103.219 181.157 104.707 178.981 105.485C177.595 105.981 176.179 106.012 174.761 105.621C173.86 105.372 172.887 104.444 172.858 103.134C172.84 102.258 173.133 101.491 173.39 100.698C173.44 100.544 173.506 100.433 173.686 100.433C174.827 100.436 175.967 100.436 177.134 100.436Z" fill="#5B595C"/>
<path d="M175.573 90.1591C175.629 90.5459 175.405 90.8177 175.299 91.1183C175.061 91.7968 174.766 92.4555 174.539 93.1373C174.409 93.5274 174.223 93.6843 173.797 93.6721C172.652 93.6401 171.506 93.6788 170.361 93.6511C169.986 93.6423 169.809 93.7661 169.692 94.1197C169.492 94.723 169.246 95.3098 168.988 95.9828C170.456 95.9828 171.843 95.9828 173.296 95.9828C172.861 97.1155 172.449 98.1709 172.052 99.2317C171.946 99.5146 171.73 99.477 171.515 99.477C170.388 99.477 169.261 99.4914 168.134 99.4693C167.774 99.4627 167.576 99.5489 167.455 99.9213C167.228 100.615 166.941 101.288 166.652 102.04C168.124 102.04 169.546 102.04 171.088 102.04C170.819 102.739 170.582 103.347 170.352 103.957C170.252 104.221 170.156 104.485 170.071 104.756C169.923 105.228 169.751 105.598 169.067 105.578C166.832 105.512 164.595 105.555 162.359 105.553C162.165 105.553 161.964 105.595 161.753 105.482C162.217 104.17 162.726 102.894 163.21 101.607C163.773 100.105 164.403 98.6295 164.922 97.1089C165.197 96.3022 165.526 95.5054 165.845 94.7109C166.163 93.9163 166.469 93.1163 166.777 92.3173C167.007 91.7184 167.222 91.1128 167.469 90.5216C167.548 90.3359 167.648 90.1492 167.939 90.1514C170.481 90.1646 173.024 90.1591 175.573 90.1591Z" fill="#5B595C"/>
<path d="M124.865 105.555C125.288 104.408 125.663 103.354 126.062 102.309C126.78 100.433 127.51 98.561 128.24 96.6901C128.922 94.9452 129.614 93.2047 130.295 91.4587C130.463 91.0267 130.469 90.4167 130.864 90.2255C131.252 90.0376 131.79 90.1603 132.261 90.1592C134.369 90.1559 136.476 90.1581 138.618 90.1581C138.543 91.02 137.997 91.6764 137.835 92.4544C137.603 93.5617 136.929 93.7971 135.916 93.6821C135.108 93.5904 134.282 93.6744 133.465 93.6589C133.156 93.6534 132.98 93.7219 132.87 94.0601C132.642 94.7585 132.347 95.4348 132.046 96.2072C133.477 96.2072 134.808 96.2072 136.184 96.2072C135.904 97.4184 135.262 98.4118 134.926 99.5235C134.856 99.7545 134.635 99.697 134.459 99.697C133.35 99.6981 132.24 99.7103 131.132 99.6926C130.787 99.6871 130.63 99.8175 130.51 100.142C129.895 101.805 129.248 103.456 128.627 105.117C128.509 105.435 128.348 105.572 127.995 105.563C126.998 105.537 126 105.555 124.865 105.555Z" fill="#5B595C"/>
<path d="M118.028 102.053C117.803 102.949 117.438 103.714 117.146 104.504C117.066 104.723 116.996 104.945 116.915 105.163C116.837 105.376 116.732 105.557 116.463 105.556C113.957 105.549 111.45 105.546 108.943 105.539C108.913 105.539 108.882 105.505 108.823 105.47C109.035 104.682 109.407 103.945 109.666 103.168C110.17 101.653 110.83 100.2 111.371 98.6991C111.791 97.5344 112.257 96.3763 112.72 95.2226C113.271 93.8479 113.798 92.4621 114.292 91.0653C114.586 90.2376 114.636 90.1603 115.544 90.1592C116.484 90.1581 117.426 90.1592 118.451 90.1592C117.665 92.1671 116.897 94.1054 116.148 96.0514C115.389 98.025 114.65 100.006 113.876 102.053C115.272 102.053 116.621 102.053 118.028 102.053Z" fill="#5B595C"/>
<path d="M155.206 79.5825C154.779 79.9692 154.353 80.3549 153.926 80.7417C153.942 80.7881 153.96 80.8345 153.976 80.8809C156.701 80.5803 159.444 80.1051 162.063 81.6854C161.739 81.8412 161.514 81.7362 161.284 81.6732C160.456 81.4456 159.662 81.0809 158.783 81.0831C158.399 81.0842 158.023 81.1119 157.66 81.3859C158.258 82.7197 159.505 82.6512 160.654 82.7938C160.159 83.5552 159.76 83.7231 159.006 83.406C158.108 83.0292 157.294 82.4744 156.393 82.0932C155.195 81.5859 153.959 81.4058 152.686 81.5915C152.323 81.6445 151.966 81.5793 151.615 81.6522C149.917 82.0003 148.31 82.5683 146.873 83.5872C146.525 83.8336 146.12 84.0005 145.777 84.2735C143.979 85.7056 142.669 87.5091 141.774 89.633C141.669 89.8806 141.547 90.1215 141.432 90.3646C141.425 90.3801 141.405 90.3889 141.323 90.3789C141.71 88.6816 142.02 86.9787 142.894 85.4128C143.786 83.8149 145.165 82.7507 146.518 81.6301C146.497 81.5042 146.385 81.5196 146.314 81.5008C145.259 81.2191 144.673 80.3925 144.179 79.5195C143.681 78.6431 143.597 77.6839 143.908 76.6949C144.01 76.37 144.179 76.2032 144.492 76.1324C145.001 76.0175 145.509 75.9125 146.016 75.9656C146.104 76.1667 146.013 76.3015 145.985 76.4385C145.578 78.3912 146.381 79.7637 148.3 80.2809C150.337 80.8301 152.331 80.5682 154.282 79.8289C154.566 79.7217 154.846 79.6012 155.127 79.4863C155.152 79.5173 155.179 79.5493 155.206 79.5825Z" fill="#B31821"/>
<path d="M221.934 99.1775C221.82 99.6803 221.401 99.7013 221.131 99.9113C220.438 100.448 219.706 100.695 218.796 100.68C214.923 100.618 211.049 100.689 207.177 100.606C205.644 100.573 204.092 100.691 202.571 100.34C202.422 100.306 202.275 100.292 202.231 100.121C202.178 99.9146 202.321 99.824 202.474 99.7466C203.113 99.4294 203.763 99.2173 204.497 99.2173C210.116 99.2184 215.735 99.1941 221.353 99.1775C221.535 99.1775 221.715 99.1775 221.934 99.1775Z" fill="#DE9488"/>
<path d="M227.579 90.9304C226.499 91.6564 225.596 92.4024 224.199 92.3582C220.421 92.241 216.638 92.2852 212.856 92.2664C211.605 92.2598 210.352 92.2653 209.1 92.2521C208.272 92.2432 207.925 91.8355 208.044 90.9304C214.506 90.9304 220.982 90.9304 227.579 90.9304Z" fill="#DE9488"/>
<path d="M199.403 104.747C205.782 104.406 212.149 104.588 218.536 104.606C217.559 105.124 216.816 106.02 215.574 106.004C211.739 105.952 207.902 105.964 204.066 105.959C202.777 105.958 201.495 105.867 200.213 105.758C200.014 105.742 199.85 105.701 199.803 105.479C199.749 105.217 199.564 105.041 199.403 104.747Z" fill="#DE9488"/>
<path d="M220.243 101.869C220.196 102.161 219.985 102.216 219.819 102.308C219.406 102.536 218.988 102.748 218.637 103.078C218.419 103.283 218.131 103.33 217.833 103.328C212.87 103.285 207.908 103.247 202.946 103.202C202.571 103.199 202.202 103.136 201.818 103.186C201.526 103.223 201.167 103.163 201.218 102.693C201.24 102.493 201.055 102.371 201.029 102.191C201.262 101.958 201.529 101.887 201.832 101.886C207.887 101.876 213.941 101.863 219.996 101.851C220.065 101.851 220.137 101.862 220.243 101.869Z" fill="#DE9488"/>
<path d="M225.758 93.6664C225.224 94.0223 224.708 94.3483 224.213 94.7041C223.855 94.9605 223.477 95.04 223.043 95.0356C220.663 95.0157 218.283 95.0655 215.906 94.9992C213.237 94.924 210.568 94.9406 207.899 94.924C207.55 94.9218 207.316 94.6345 207 94.6798C206.832 94.5151 206.894 94.3107 206.841 94.1394C206.724 93.7637 206.898 93.5913 207.277 93.5913C208.312 93.5913 209.348 93.5836 210.382 93.5814C215.323 93.5681 220.263 93.5548 225.203 93.5471C225.378 93.546 225.587 93.4576 225.758 93.6664Z" fill="#DE9488"/>
<path d="M113.07 111.183C112.997 112.875 113.215 114.529 112.958 116.166C112.786 117.262 111.867 117.953 110.748 117.995C109.961 118.025 109.238 117.939 108.675 117.269C108.436 116.984 108.316 116.701 108.293 116.26C108.915 116.347 109.531 116.024 110.091 116.561C110.37 116.828 110.773 116.777 111.106 116.576C111.469 116.357 111.694 116.046 111.644 115.551C111.038 115.962 110.438 116.301 109.71 115.98C108.949 115.646 108.405 115.088 108.242 114.264C107.97 112.889 108.364 111.288 110.136 110.986C110.261 110.965 110.409 110.921 110.513 110.966C111.311 111.318 112.156 111.102 113.07 111.183ZM110.616 112.357C110 112.362 109.566 112.852 109.578 113.526C109.59 114.148 110.052 114.657 110.614 114.666C111.221 114.676 111.669 114.179 111.662 113.506C111.655 112.804 111.243 112.351 110.616 112.357Z" fill="#5B595C"/>
<path d="M205.285 97.4601C205.461 97.448 205.638 97.4358 205.865 97.4203C205.785 97.1507 205.846 96.9131 205.902 96.67C205.95 96.4567 206.054 96.3506 206.267 96.3374C206.683 96.3098 207.098 96.2501 207.513 96.249C212.822 96.2335 218.13 96.2258 223.438 96.2225C223.624 96.2225 223.833 96.1429 224.072 96.3893C223.011 96.8534 222.255 97.7541 220.953 97.7209C217.555 97.6347 214.154 97.7176 210.755 97.6469C208.923 97.6082 207.089 97.6148 205.285 97.4601Z" fill="#DE9488"/>
<path d="M98.6651 111.976C98.1686 111.976 97.7169 111.985 97.2662 111.972C97.1145 111.968 97 111.922 96.8876 111.747C96.414 111.013 95.8379 110.775 95.229 110.993C94.474 111.261 94.0026 111.991 94.0833 112.824C94.2132 114.176 95.216 114.782 96.2318 114.379C96.5373 114.258 96.7174 113.991 96.8909 113.752C97.0993 113.465 97.3066 113.396 97.6427 113.453C97.958 113.506 98.2897 113.464 98.6181 113.464C98.5188 114.831 97.1855 115.978 95.9863 116.002C93.9971 116.042 92.5034 114.776 92.463 112.953C92.4259 111.247 93.3381 109.648 95.3447 109.441C96.8363 109.289 98.3552 110.28 98.6651 111.976Z" fill="#5B595C"/>
<path d="M181.701 111.98C181.229 111.98 180.797 111.97 180.365 111.983C180.096 111.992 179.988 111.785 179.862 111.624C179.314 110.924 178.801 110.746 178.092 111.035C177.497 111.277 176.992 112.155 177.127 112.839C177.362 114.035 177.591 114.263 178.658 114.501C179.14 114.61 179.527 114.296 179.753 113.935C180.042 113.472 180.418 113.453 180.861 113.478C181.13 113.494 181.4 113.481 181.673 113.481C181.551 114.782 180.25 115.965 178.753 116.011C176.727 116.074 175.744 114.527 175.5 112.883C175.278 111.375 176.59 109.775 177.998 109.493C179.922 109.11 181.458 110.483 181.701 111.98Z" fill="#5B595C"/>
<path d="M172.078 112.737C172.078 113.564 172.05 114.392 172.087 115.218C172.11 115.729 171.985 115.987 171.433 115.898C171.151 115.853 170.858 115.948 170.579 115.802C170.393 115.704 170.234 115.857 170.07 115.921C169.182 116.268 168.248 116.015 167.699 115.258C166.829 114.057 166.916 112.659 167.845 111.583C168.396 110.945 169.19 110.812 170.013 111.063C170.598 111.24 170.633 111.212 170.573 110.604C170.571 110.586 170.573 110.567 170.572 110.549C170.507 109.601 170.958 109.249 171.86 109.534C172.098 109.609 172.074 109.795 172.074 109.978C172.078 110.899 172.078 111.818 172.078 112.737ZM168.577 113.441C168.555 114.148 168.969 114.629 169.626 114.662C170.238 114.693 170.733 114.182 170.755 113.5C170.775 112.863 170.31 112.363 169.687 112.353C169.03 112.342 168.598 112.767 168.577 113.441Z" fill="#5B595C"/>
<path d="M121.963 113.736C122.389 113.736 122.803 113.737 123.216 113.736C123.45 113.734 123.518 113.866 123.539 114.083C123.573 114.425 123.785 114.626 124.122 114.585C124.356 114.557 124.522 114.413 124.551 114.117C124.587 113.743 124.424 113.62 124.11 113.462C123.476 113.143 122.74 112.973 122.317 112.3C121.681 111.286 122.044 110.13 123.096 109.637C124.1 109.166 125.191 109.424 125.913 110.319C126.114 110.57 126.156 110.87 126.145 111.182C126.143 111.249 126.124 111.333 126.082 111.381C125.867 111.615 124.638 111.432 124.495 111.133C124.395 110.924 124.263 110.801 124.036 110.84C123.854 110.872 123.683 110.952 123.638 111.164C123.592 111.374 123.607 111.587 123.803 111.704C124.159 111.916 124.527 112.106 124.897 112.29C125.613 112.647 126.206 113.122 126.21 114.003C126.216 114.917 125.766 115.673 124.927 115.929C124.239 116.14 123.43 116.173 122.754 115.71C122.086 115.251 121.852 114.59 121.963 113.736Z" fill="#5B595C"/>
<path d="M203.93 111.16C203.93 112.764 203.93 114.287 203.93 115.897C203.428 115.749 202.952 116.272 202.453 115.808C202.342 115.704 202.147 115.822 201.996 115.894C200.866 116.43 199.86 115.902 199.325 114.987C198.783 114.057 198.79 113.064 199.315 112.074C199.736 111.279 200.841 110.727 201.731 111.056C202.106 111.195 202.466 111.232 202.864 111.171C203.197 111.12 203.546 111.16 203.93 111.16ZM201.425 112.349C200.825 112.359 200.382 112.862 200.392 113.523C200.401 114.157 200.893 114.685 201.466 114.677C202.106 114.668 202.547 114.179 202.542 113.483C202.535 112.782 202.098 112.338 201.425 112.349Z" fill="#5B595C"/>
<path d="M159.608 111.413C160.036 110.877 160.569 111.239 161.052 111.086C161.052 112.705 161.052 114.259 161.052 115.896C160.582 115.803 160.091 116.097 159.63 115.715C159.495 115.603 159.354 115.763 159.245 115.836C157.929 116.725 156.25 115.253 156.156 114.037C156.095 113.244 156.183 112.57 156.627 111.909C157.385 110.783 158.78 110.701 159.608 111.413ZM159.692 113.511C159.702 112.83 159.281 112.358 158.654 112.347C158.024 112.336 157.59 112.784 157.57 113.465C157.552 114.121 157.993 114.651 158.582 114.677C159.215 114.706 159.681 114.216 159.692 113.511Z" fill="#5B595C"/>
<path d="M102.795 111.414C103.178 110.84 103.726 111.285 104.213 111.069C104.213 112.735 104.213 114.287 104.213 115.909C103.715 115.795 103.223 116.09 102.759 115.736C102.693 115.685 102.492 115.803 102.36 115.856C100.843 116.471 99.3909 115.499 99.3397 113.836C99.3178 113.109 99.3069 112.406 99.8394 111.799C100.64 110.887 101.777 110.647 102.795 111.414ZM101.866 112.348C101.231 112.317 100.769 112.745 100.729 113.402C100.685 114.107 101.147 114.664 101.784 114.677C102.37 114.689 102.851 114.19 102.876 113.543C102.902 112.882 102.477 112.378 101.866 112.348Z" fill="#5B595C"/>
<path d="M193.577 111.405C194.049 110.909 194.566 111.207 195.058 111.121C195.058 112.744 195.058 114.295 195.058 115.913C194.539 115.812 194.051 116.043 193.563 115.766C193.447 115.699 193.205 115.852 193.024 115.915C191.994 116.269 191 115.905 190.475 114.935C189.85 113.779 190.024 112.438 190.905 111.501C191.496 110.872 192.259 110.909 193.002 110.971C193.218 110.989 193.413 111.275 193.577 111.405ZM192.6 112.355C191.987 112.354 191.543 112.825 191.533 113.489C191.523 114.12 191.997 114.662 192.574 114.679C193.192 114.699 193.683 114.189 193.694 113.516C193.705 112.836 193.253 112.356 192.6 112.355Z" fill="#5B595C"/>
<path d="M152.682 114.377C152.347 115.453 151.064 116.306 150.217 116.105C148.725 115.752 147.92 114.293 148.113 113.262C148.454 111.441 149.532 110.86 150.733 110.972C152.14 111.102 152.981 112.293 152.859 113.917C151.789 113.917 150.711 113.917 149.628 113.917C149.705 114.636 150.342 115.06 150.844 114.697C151.425 114.279 152.022 114.359 152.682 114.377ZM151.49 112.908C151.283 112.373 150.927 112.207 150.448 112.228C150.022 112.247 149.75 112.453 149.592 112.908C150.233 112.908 150.823 112.908 151.49 112.908Z" fill="#5B595C"/>
<path d="M186.218 114.014C186.41 114.653 187.058 115.046 187.523 114.689C188.092 114.253 188.674 114.382 189.352 114.367C189.085 114.977 188.734 115.409 188.211 115.764C186.77 116.748 185.225 115.517 184.775 114.181C184.355 112.932 185.306 111.329 186.606 111.022C187.948 110.704 189.231 111.612 189.443 113.031C189.456 113.12 189.475 113.21 189.491 113.299C189.593 113.863 189.527 113.944 188.973 113.948C188.083 113.952 187.192 113.957 186.303 113.964C186.276 113.964 186.246 113.997 186.218 114.014ZM186.238 112.892C186.877 112.892 187.459 112.892 188.089 112.892C187.911 112.394 187.593 112.226 187.153 112.226C186.714 112.226 186.388 112.381 186.238 112.892Z" fill="#5B595C"/>
<path d="M220.028 113.973C218.925 113.973 217.845 113.973 216.745 113.973C217.016 114.718 217.576 115.051 218.068 114.675C218.649 114.232 219.244 114.394 219.85 114.364C219.81 115.267 218.206 116.292 217.565 116.128C215.741 115.662 215.131 114.326 215.344 113.11C215.618 111.544 216.801 110.815 217.977 110.972C219.364 111.157 220.238 112.426 220.028 113.973ZM218.673 112.911C218.48 112.312 218.059 112.179 217.553 112.237C217.173 112.281 216.881 112.459 216.835 112.911C217.457 112.911 218.046 112.911 218.673 112.911Z" fill="#5B595C"/>
<path d="M131.274 114.367C130.798 115.591 129.469 116.355 128.539 116.025C126.714 115.378 126.443 113.902 126.798 112.748C127.272 111.205 128.415 110.693 129.755 111.07C130.908 111.394 131.696 112.821 131.365 113.95C130.839 113.95 130.297 113.95 129.755 113.95C129.231 113.95 128.706 113.95 128.177 113.95C128.269 114.622 128.992 115.067 129.483 114.686C130.055 114.241 130.636 114.394 131.274 114.367ZM130.025 112.925C129.856 112.336 129.477 112.202 129.01 112.229C128.587 112.255 128.269 112.427 128.191 112.925C128.803 112.925 129.378 112.925 130.025 112.925Z" fill="#5B595C"/>
<path d="M116.18 116.017C114.813 116.144 113.742 114.733 113.849 113.433C113.968 111.988 114.683 110.983 116.313 110.966C117.698 110.952 118.74 112.13 118.741 113.569C118.742 115.009 117.447 116.197 116.18 116.017ZM117.343 113.519C117.352 112.862 116.947 112.38 116.369 112.36C115.755 112.338 115.307 112.799 115.282 113.476C115.258 114.104 115.746 114.653 116.325 114.649C116.902 114.643 117.333 114.166 117.343 113.519Z" fill="#5B595C"/>
<path d="M163.572 115.868C163.086 115.868 162.662 115.868 162.199 115.868C162.199 114.308 162.199 112.772 162.199 111.233C162.296 111.121 162.431 111.166 162.553 111.163C163.143 111.144 163.715 111.196 164.317 111.004C165.207 110.719 166.212 111.407 166.279 112.335C166.363 113.499 166.3 114.675 166.3 115.905C165.863 115.905 165.455 115.905 165.008 115.905C164.915 115.201 164.993 114.43 164.969 113.662C164.962 113.459 164.997 113.247 164.948 113.057C164.84 112.642 164.599 112.307 164.126 112.373C163.721 112.429 163.57 112.751 163.572 113.153C163.575 114.049 163.572 114.945 163.572 115.868Z" fill="#5B595C"/>
<path d="M205.046 115.892C205.046 114.297 205.046 112.759 205.046 111.171C205.467 111.118 205.888 111.033 206.299 111.219C206.412 111.271 206.473 111.272 206.586 111.217C207.852 110.596 208.985 111.11 209.143 112.495C209.27 113.596 209.168 114.725 209.168 115.852C208.698 115.932 208.27 116.015 207.786 115.819C207.786 115.149 207.763 114.453 207.796 113.76C207.812 113.404 207.697 113.079 207.664 112.738C207.629 112.394 207.263 112.392 207.032 112.38C206.724 112.364 206.485 112.594 206.445 112.911C206.393 113.31 206.397 113.717 206.391 114.12C206.384 114.688 206.389 115.255 206.389 115.836C205.938 115.947 205.527 115.882 205.046 115.892Z" fill="#5B595C"/>
<path d="M214.72 113.006C214.351 113.006 214.025 113.007 213.699 113.005C213.5 113.004 213.364 112.961 213.207 112.77C212.929 112.432 212.515 112.223 212.063 112.407C211.607 112.594 211.294 113.278 211.389 113.743C211.495 114.259 211.92 114.675 212.364 114.694C212.574 114.702 212.801 114.605 212.893 114.478C213.38 113.814 214.055 114.092 214.671 114.035C214.605 115.037 213.486 116.155 212.521 116.119C211.09 116.066 210.202 115.256 209.966 113.737C209.753 112.365 210.862 111.069 212.026 110.976C213.247 110.881 214.445 111.447 214.72 113.006Z" fill="#5B595C"/>
<path d="M147.521 114.032C147.29 115.267 146.129 116.196 144.976 116.124C143.982 116.062 142.77 114.772 142.751 113.701C142.727 112.426 143.471 111.151 144.837 110.973C145.847 110.84 147.218 111.393 147.522 112.927C147.086 113.082 146.61 113.063 146.194 112.973C145.967 112.925 145.857 112.5 145.489 112.417C144.97 112.301 144.594 112.401 144.359 112.856C144.059 113.436 144.184 114.126 144.654 114.481C145.05 114.78 145.481 114.768 145.844 114.362C146.344 113.802 146.946 114.126 147.521 114.032Z" fill="#5B595C"/>
<path d="M99.96 80.5991C100.195 79.757 100.728 79.2465 101.206 78.6917C101.877 77.9116 102.739 77.3878 103.596 76.8706C104.268 76.465 105.038 76.2507 105.79 76.0495C107.538 75.5821 109.3 75.2771 111.105 75.7932C111.648 75.949 112.734 76.5943 113.16 77.1855C108.15 75.9037 103.923 77.474 99.96 80.5991Z" fill="#B31821"/>
<path d="M135.387 111.177C135.501 111.15 135.553 111.128 135.605 111.125C136.775 111.061 136.767 111.064 137.073 112.211C137.203 112.7 137.376 113.178 137.544 113.704C137.981 113.294 137.837 112.708 138.043 112.247C138.158 111.986 138.285 111.693 138.352 111.395C138.393 111.216 138.508 111.121 138.707 111.125C139.066 111.135 139.426 111.128 139.801 111.128C139.686 112.1 139.222 112.898 138.971 113.765C138.821 114.286 138.637 114.798 138.448 115.306C138.343 115.592 138.327 115.951 137.84 115.914C137.363 115.878 136.859 115.999 136.688 115.351C136.338 114.017 135.739 112.764 135.428 111.417C135.412 111.35 135.404 111.28 135.387 111.177Z" fill="#5B595C"/>
<path d="M183.972 115.867C183.49 115.867 183.065 115.867 182.607 115.867C182.607 113.769 182.607 111.697 182.607 109.604C182.95 109.472 183.314 109.553 183.671 109.539C183.862 109.531 183.975 109.625 183.975 109.838C183.972 111.838 183.972 113.838 183.972 115.867Z" fill="#5B595C"/>
<path d="M132.283 115.898C132.283 114.368 132.286 112.918 132.281 111.468C132.28 111.202 132.409 111.074 132.647 111.128C132.973 111.202 133.405 110.881 133.644 111.389C133.774 111.406 133.759 111.239 133.836 111.185C134.06 111.028 134.333 110.9 134.585 110.983C134.842 111.068 134.708 111.366 134.737 111.573C134.812 112.087 134.746 112.493 134.121 112.598C133.771 112.656 133.682 112.957 133.683 113.288C133.687 114.131 133.684 114.975 133.684 115.833C133.217 115.953 132.789 115.871 132.283 115.898Z" fill="#5B595C"/>
<path d="M105.32 115.896C105.32 114.363 105.32 112.915 105.32 111.466C105.32 111.141 105.397 111.066 105.77 111.131C106.397 111.239 107.053 111.238 107.658 110.878C107.805 111.371 107.731 111.775 107.736 112.173C107.742 112.529 107.402 112.548 107.197 112.578C106.813 112.634 106.722 112.852 106.722 113.178C106.721 113.894 106.692 114.611 106.73 115.325C106.755 115.803 106.572 115.947 106.134 115.902C105.887 115.875 105.635 115.896 105.32 115.896Z" fill="#5B595C"/>
<path d="M196.143 111.106C196.649 111.227 197.145 110.868 197.541 111.411C197.698 110.866 198.147 111.024 198.588 110.937C198.588 111.385 198.584 111.766 198.59 112.149C198.595 112.4 198.435 112.436 198.241 112.473C197.696 112.578 197.496 112.927 197.516 113.479C197.543 114.265 197.522 115.052 197.522 115.868C197.043 115.868 196.616 115.868 196.173 115.868C196.162 115.718 196.144 115.592 196.144 115.466C196.142 114.052 196.143 112.636 196.143 111.106Z" fill="#5B595C"/>
<path d="M141.945 115.875C141.487 115.875 141.074 115.875 140.57 115.875C140.57 114.315 140.57 112.764 140.57 111.186C141.059 111.186 141.487 111.186 141.945 111.186C141.945 112.739 141.945 114.275 141.945 115.875Z" fill="#5B595C"/>
<path d="M141.959 109.576C141.959 109.954 141.959 110.282 141.959 110.634C141.522 110.761 141.088 110.669 140.638 110.698C140.498 110.336 140.623 109.97 140.557 109.576C141.029 109.576 141.47 109.576 141.959 109.576Z" fill="#5B595C"/>
<path d="M132.426 69.3563C132.364 69.3983 132.275 69.4303 132.237 69.3651C132.188 69.2789 132.292 69.2679 132.348 69.2402C132.373 69.2789 132.399 69.3176 132.426 69.3563Z" fill="#B31821"/>
</g>
<defs>
<clipPath id="clip0_16_9143">
<rect width="139.579" height="52" fill="white" transform="translate(88 66)"/>
</clipPath>
</defs>
</svg>
