<svg width="315" height="184" viewBox="0 0 315 184" fill="none" xmlns="http://www.w3.org/2000/svg">
<g clip-path="url(#clip0_16_9180)">
<path d="M179.625 84.2634C177.792 89.4095 175.989 94.4668 174.17 99.578C173.534 99.578 172.937 99.578 172.175 99.578C171.416 97.2239 170.628 94.7812 169.749 92.0537C168.788 94.7275 167.914 97.1568 167.032 99.6021C166.361 99.6021 165.765 99.6021 165.053 99.6021C163.443 94.5313 161.83 89.4578 160.187 84.2822C161.268 84.2822 162.247 84.2822 163.322 84.2822C164.348 87.5795 165.385 90.9116 166.532 94.5985C167.244 92.5965 167.882 90.9896 168.385 89.3396C168.937 87.523 167.508 86.0612 167.406 84.2796C168.369 84.2796 169.351 84.2796 170.458 84.2796C171.424 87.4478 172.403 90.6644 173.5 94.2653C174.693 90.7182 175.772 87.5042 176.863 84.2634C177.782 84.2634 178.635 84.2634 179.625 84.2634Z" fill="#282526"/>
<path d="M114.74 80.6168C114.999 80.7592 115.114 80.9795 115.085 81.2778C113.921 81.5465 112.756 81.8126 111.594 82.0813C110.392 82.2425 109.246 82.5999 108.144 83.1105C107.4 83.2583 106.707 83.5324 106.065 83.9435C105.115 84.2472 104.264 84.7497 103.445 85.3194C102.696 85.8246 101.825 86.1793 101.217 87.1091C102.05 87.0258 102.73 86.9559 103.411 86.8861C104.298 86.9721 105.073 86.6523 105.811 86.1928C106.704 85.8165 107.599 85.4403 108.492 85.0641C109.997 84.6395 111.502 84.2123 113.007 83.7877C114.02 83.5969 115.033 83.4061 116.044 83.2153C116.329 83.476 116.363 83.7259 116.007 83.9543C113.714 84.2015 111.515 84.8518 109.293 85.5398C108.84 87.7272 107.366 88.9579 105.544 89.8635C104.825 89.9871 104.107 90.1296 103.385 90.229C102.361 90.3687 101.293 90.3902 100.553 91.2877C99.8825 92.0993 99.0396 92.6878 98.2073 93.2951C97.1864 93.3542 96.176 93.6713 95.1002 93.3542C93.6579 94.4103 92.2261 95.461 90.7942 96.509C89.4985 97.3582 88.2421 98.2584 87.1584 99.3871C85.9308 100.164 84.868 101.147 83.8419 102.176C82.0934 103.821 80.3448 105.468 78.5989 107.113C78.502 106.995 78.4078 106.879 78.311 106.761C79.2873 105.691 80.2611 104.619 81.2374 103.55C82.1457 102.625 83.2896 101.967 84.0566 100.884C84.7816 100.295 85.5067 99.7068 86.2318 99.121C87.0118 98.5003 87.7919 97.8795 88.5693 97.2615C90.4697 95.899 92.37 94.5393 94.2992 93.1554C93.5663 92.5481 92.9354 92.024 92.2234 91.4355C90.721 92.5884 89.2263 93.7331 87.7317 94.8779C86.5354 95.6464 85.4465 96.5493 84.4309 97.5517C83.9676 97.9252 83.5016 98.296 83.0383 98.6696C81.9834 99.6504 80.9285 100.631 79.871 101.615C78.8319 102.612 77.7927 103.609 76.7535 104.606C76.6462 104.426 76.5389 104.248 76.4315 104.068C78.9575 101.263 81.8709 98.8899 84.6455 96.3612C87.0851 94.5285 89.5247 92.6959 91.9643 90.8632C89.1949 92.2713 86.6637 94.0099 84.355 96.0764C81.3264 98.2101 78.8214 100.973 76.0049 103.361C75.9028 103.152 75.8007 102.942 75.7012 102.733C76.675 101.838 77.6487 100.946 78.6225 100.051C79.7088 98.9195 81.1641 98.202 82.0384 96.8342C82.8106 96.3962 83.5906 95.9716 84.1613 95.246C85.2135 94.4399 86.2684 93.6337 87.3207 92.8302C88.7133 91.8789 90.1058 90.925 91.4565 90.0033C91.2759 89.0654 91.1214 88.2646 90.9277 87.2462C88.9907 88.6166 87.1951 89.8931 85.402 91.1695C84.3157 92.0536 83.2268 92.935 82.1405 93.8191C81.5672 94.2733 80.994 94.7274 80.4234 95.1815C79.3475 96.1704 78.2691 97.1593 77.1932 98.1482C76.141 98.6373 75.5887 99.7391 74.6332 100.344C74.395 100.158 74.4108 99.8923 74.4186 99.6289C75.1254 98.9705 75.8321 98.3122 76.5389 97.6538C78.4863 95.9635 80.4338 94.2733 82.3813 92.583C83.711 91.6586 85.0748 90.7825 86.203 89.5894C87.7029 88.6086 89.2001 87.6304 90.7 86.6496C90.844 86.5072 91.09 86.3836 91.1188 86.2196C91.6031 83.5028 93.3176 82.2855 95.8697 82.0625C97.0189 82.127 98.1706 82.0114 99.0135 81.1596C101.856 78.2923 103.202 78.0021 106.555 79.7085C108.214 79.2409 109.887 78.7706 111.562 78.3031C112.175 78.6148 112.986 77.3867 113.486 78.5664C111.714 79.0286 109.945 79.4881 108.172 79.9503C107.382 80.2056 106.594 80.4636 105.803 80.7189C104.578 80.9097 103.631 81.6433 102.686 82.385C102.008 82.909 101.33 83.4357 100.649 83.9597C100.694 84.043 100.736 84.1236 100.78 84.2069C101.411 83.9597 102.042 83.7151 102.673 83.4679C103.804 83.1616 104.934 82.8552 106.065 82.5489C106.845 82.3473 107.628 82.1431 108.408 81.9416C110.518 81.4982 112.628 81.0575 114.74 80.6168ZM106.073 88.7698C107.264 88.2431 108.015 87.3402 108.557 85.8703C107.146 86.3137 106.023 86.6899 105.018 87.3725C104.021 87.961 102.914 87.4934 101.88 87.7164C99.7098 87.6627 97.7151 88.2512 95.7467 89.3503C96.7597 90.358 97.8696 90.1376 98.9271 90.0355C100.092 89.9253 101.249 89.7238 102.408 89.5625C103.704 89.6808 104.942 89.4873 106.073 88.7698ZM100.817 80.3668C99.6783 80.907 99.2229 82.1082 98.4193 82.9708C97.545 83.6318 96.6498 84.266 95.7991 84.9593C94.985 85.6231 94.4877 86.4346 94.9248 87.6492C96.6236 86.7436 98.0005 85.5505 99.3171 84.2741C100.102 83.7447 100.817 83.132 101.375 82.3446C102.759 81.6513 103.882 80.5012 105.521 80.0578C103.885 78.9964 102.39 79.1361 100.817 80.3668ZM95.3829 90.0758C92.5114 86.5609 94.8489 84.5643 98.079 82.6322C93.7076 82.6725 92.1423 83.7313 91.7261 86.4991C91.3282 89.146 92.8255 91.8709 95.0609 92.5722C97.3147 93.2306 99.2464 92.4486 100.15 90.5326C98.5554 90.4762 96.888 91.2098 95.3829 90.0758ZM95.1316 88.5978C98.4324 87.8105 101.427 86.4185 104.11 83.8656C100.479 84.5401 97.689 86.3379 95.1316 88.5978Z" fill="#282829"/>
<path d="M187.532 99.7984C182.92 99.7984 179.633 96.4716 179.661 91.8415C179.69 87.3108 183.127 83.9007 187.645 83.9195C192.202 83.9383 195.409 87.1899 195.424 91.82C195.44 96.3909 192.069 99.7984 187.532 99.7984ZM192.095 91.9436C192.103 91.0434 191.951 90.1727 191.624 89.3343C190.852 87.3565 189.378 86.2896 187.451 86.3165C185.538 86.3407 184.077 87.464 183.399 89.4875C182.747 91.4357 182.829 93.3651 183.829 95.1683C185.527 98.2371 189.579 98.2102 191.283 95.1414C191.833 94.1552 192.092 93.0803 192.095 91.9436Z" fill="#272325"/>
<path d="M221.731 99.5322C221.731 94.3673 221.731 89.3825 221.731 84.2365C224.558 84.301 227.378 83.8253 230.116 84.825C233.364 86.0127 235.139 88.7322 234.99 92.2337C234.851 95.4422 232.341 98.3256 228.877 99.207C226.561 99.8009 224.205 99.4032 221.731 99.5322ZM224.912 86.6469C224.912 90.186 224.912 93.5934 224.912 97.0384C227.359 97.412 229.38 96.7858 230.778 94.6952C231.995 92.8732 232.021 90.8847 230.951 89.0117C229.616 86.6792 227.372 86.4534 224.912 86.6469Z" fill="#272325"/>
<path d="M127.548 99.5189C127.548 94.3433 127.548 89.3585 127.548 84.2017C130.092 84.3038 132.608 83.9088 135.081 84.5591C138.699 85.5077 140.85 88.2755 140.824 91.8603C140.801 95.2811 138.283 98.2962 134.657 99.2098C132.346 99.7957 129.995 99.4114 127.548 99.5189ZM130.705 97.0359C133.38 97.4255 135.458 96.6462 136.825 94.3218C137.853 92.5724 137.662 90.1109 136.463 88.5254C135.238 86.905 132.888 86.201 130.702 86.8137C130.705 90.1834 130.705 93.5559 130.705 97.0359Z" fill="#272325"/>
<path d="M200.869 99.4813C199.741 99.4813 198.788 99.4813 197.749 99.4813C197.749 94.4293 197.749 89.4041 197.749 84.2715C199.657 84.2715 201.568 84.1318 203.45 84.3092C205.416 84.4946 207.269 85.1529 207.837 87.4559C208.392 89.6971 207.178 91.0863 205.366 92.2311C206.84 94.6227 208.295 96.9875 209.84 99.4947C208.575 99.5914 207.46 99.6747 206.285 99.7661C204.942 97.4981 203.61 95.2516 202.296 93.0292C201.809 93.0292 201.387 93.0292 200.869 93.0292C200.869 95.1817 200.869 97.267 200.869 99.4813ZM200.924 86.4778C200.924 87.9127 200.924 89.2671 200.924 90.6107C203.479 90.8579 204.845 90.1324 204.858 88.5765C204.871 87.0098 203.539 86.2735 200.924 86.4778Z" fill="#282526"/>
<path d="M83.8447 102.177C84.8708 101.147 85.9336 100.164 87.1612 99.3872C88.3444 100.486 89.4804 101.644 90.907 102.426C91.0536 102.523 91.2028 102.617 91.3494 102.714C93.9617 104.716 97.0348 105.673 100.053 106.748C100.121 107.363 99.8984 107.828 99.477 108.287C98.4901 109.368 97.2625 110.096 96.1055 110.942C95.1213 111.662 93.8151 112.02 93.2445 113.24C93.4434 113.716 93.611 114.113 93.7759 114.514C93.6869 114.594 93.6005 114.678 93.5115 114.758C93.4853 114.823 93.4853 114.887 93.5141 114.952C93.3387 114.909 93.166 114.866 92.9906 114.823C92.9513 114.769 92.9121 114.715 92.8702 114.659C92.8204 114.704 92.7733 114.75 92.7236 114.796C92.4618 114.772 92.2001 114.745 91.9409 114.721C90.4018 113.662 89.5589 112.205 89.2736 110.308C89.1611 109.553 88.7213 108.798 88.2737 108.158C87.2345 106.68 85.8419 105.493 85.1273 103.735C84.9075 103.176 84.6509 102.357 83.8447 102.177Z" fill="#CF371F"/>
<path d="M81.751 73.8771C84.8895 71.2571 88.5122 69.8356 92.4883 69.2847C92.5826 70.1392 91.7188 70.2763 91.3863 70.8271C89.6482 73.7159 88.117 76.6934 87.2793 80.0551C87.4233 80.3131 87.5882 80.614 87.7531 80.915C87.0149 81.4713 86.2794 82.0275 85.5412 82.5838L85.4575 82.6429L85.4784 82.745C85.1879 82.7262 85.0125 82.9089 84.8554 83.1212C83.2325 84.1639 82.0415 85.6902 80.683 87.0284C80.6019 86.6845 80.5024 86.3459 80.4422 85.9965C79.7276 81.826 80.5024 77.8247 81.751 73.8771Z" fill="#038951"/>
<path d="M146.403 93.2227C146.403 95.3725 146.403 97.3718 146.403 99.4437C145.356 99.4437 144.379 99.4437 143.327 99.4437C143.327 94.4024 143.327 89.3854 143.327 84.2178C145.51 84.2823 147.675 83.9572 149.811 84.4194C152.151 84.9246 153.455 86.4052 153.52 88.4448C153.588 90.5382 152.313 92.1317 150.041 92.8653C148.905 93.2308 147.722 93.0937 146.403 93.2227ZM146.458 90.9171C147.871 91.0219 149.149 91.0514 149.947 89.7535C150.397 89.0226 150.41 88.1869 149.913 87.4774C149.06 86.2655 147.808 86.2574 146.458 86.4133C146.458 87.9101 146.458 89.3612 146.458 90.9171Z" fill="#272325"/>
<path d="M105.545 89.8609C107.367 88.9553 108.84 87.7272 109.293 85.5371C111.516 84.8492 113.714 84.1989 116.007 83.9517C116.026 84.8277 117.259 85.0615 117.06 86.0504C115.822 86.0907 116.136 87.351 115.625 87.9664C115.115 88.3856 114.937 89.0144 114.675 89.5868C114.476 89.8421 114.28 90.1 114.081 90.3553C113.495 91.0728 112.908 91.7876 112.322 92.5051C111.992 92.8652 111.665 93.2253 111.335 93.5854C110.691 94.19 110.047 94.7973 109.406 95.4019C109.165 95.6089 108.924 95.8158 108.683 96.0227C107.634 96.2323 107.17 97.4012 106.144 97.6512C105.851 97.4631 105.809 97.1648 105.804 96.845C105.786 94.5152 105.898 92.18 105.545 89.8609Z" fill="#F6F5F5"/>
<path d="M83.8446 102.177C84.6508 102.357 84.9073 103.176 85.1324 103.73C85.8471 105.49 87.2396 106.678 88.2788 108.153C88.7264 108.79 89.1662 109.548 89.2787 110.303C89.564 112.2 90.4069 113.656 91.946 114.715C86.5747 113.887 82.1405 111.327 78.6016 107.113C80.3475 105.468 82.096 103.824 83.8446 102.177Z" fill="#C7361D"/>
<path d="M211.348 99.4274C211.348 94.3862 211.348 89.3933 211.348 84.301C212.395 84.301 213.402 84.301 214.497 84.301C214.497 88.5227 214.497 92.7067 214.497 97.0654C216.366 97.0654 218.164 97.0654 220.017 97.0654C220.017 97.9333 220.017 98.632 220.017 99.4274C217.174 99.4274 214.332 99.4274 211.348 99.4274Z" fill="#2E2A2B"/>
<path d="M81.7503 73.8772C80.5017 77.8247 79.7243 81.826 80.4415 85.9966C80.5017 86.3433 80.6012 86.6845 80.6823 87.0285C80.8891 88.9956 81.6273 90.7933 82.3785 92.5857C80.431 94.276 78.4835 95.9662 76.536 97.6565C76.3397 97.3475 76.0596 97.1728 76.1565 96.6407C76.9182 92.4728 77.7113 88.3049 78.2584 84.1021C78.4835 82.3769 79.5306 80.1922 77.0229 79.0716C78.261 77.0186 79.8735 75.3202 81.7503 73.8772Z" fill="#CF371F"/>
<path d="M96.9166 69.1692C99.0892 69.2256 101.183 69.6663 103.196 70.5101C100.997 72.2541 98.9139 74.0949 97.9375 76.895C97.4218 77.1073 96.9062 77.3196 96.3931 77.5318C95.9089 77.3464 95.4429 77.5077 94.9953 77.6528C93.8017 78.037 92.6212 78.4589 91.4354 78.8674C91.3438 78.2171 91.6317 77.677 91.8673 77.1019C93.0714 74.1352 95.1341 71.7462 96.9166 69.1692Z" fill="#029F67"/>
<path d="M96.3904 77.5318C96.9061 77.3196 97.4217 77.1073 97.9348 76.895C99.5027 76.6854 101.073 76.4758 102.641 76.2662C103.625 76.2447 104.61 76.2205 105.594 76.1963C107.664 76.5564 109.798 76.4919 111.813 77.2067C111.727 77.5722 111.64 77.9376 111.557 78.3031C109.884 78.7733 108.209 79.2436 106.549 79.7085C103.196 78.0048 101.851 78.295 99.008 81.1596C98.1651 82.0115 97.0134 82.127 95.8643 82.0625C96.537 80.6141 96.3799 79.0636 96.3904 77.5318Z" fill="#EDEDEE"/>
<path d="M96.9169 69.1691C95.1344 71.7462 93.0717 74.1324 91.8624 77.0991C91.6268 77.6769 91.3389 78.2143 91.4305 78.8646C90.7264 79.2973 90.0248 79.7299 89.3207 80.1599C88.7972 80.4098 88.2737 80.6597 87.7502 80.9096C87.5852 80.6087 87.4203 80.3104 87.2764 80.0497C88.114 76.688 89.6427 73.7105 91.3834 70.8244C91.7158 70.2736 92.5796 70.1338 92.4854 69.282C93.9591 69.0589 95.4328 68.8359 96.9169 69.1691Z" fill="#029459"/>
<path d="M77.0208 79.0715C79.5284 80.1894 78.4814 82.3768 78.2563 84.102C77.7092 88.3022 76.9161 92.4728 76.1544 96.6406C76.0575 97.1754 76.3376 97.3501 76.5339 97.6564C75.8272 98.3148 75.1204 98.9732 74.4137 99.6315C73.5315 97.815 73.3169 95.8452 73.1572 93.8647C74.1257 93.8809 73.4582 95.3723 74.8717 95.3454C76.0889 91.422 76.4397 87.2407 76.8166 83.0325C75.5602 82.968 74.9084 83.7554 74.4896 85.5827C74.3849 85.932 74.2776 86.2814 74.1729 86.6307C74.0734 86.4345 73.9739 86.2411 73.8744 86.0449C74.4529 83.4974 75.4947 81.1703 77.0208 79.0715Z" fill="#E13F25"/>
<path d="M93.7784 114.511C93.6109 114.113 93.446 113.713 93.2471 113.237C93.8177 112.017 95.1213 111.66 96.1081 110.939C97.2651 110.093 98.4927 109.365 99.4796 108.284C99.8984 107.825 100.123 107.36 100.055 106.745C102.56 107.199 105.065 107.65 107.623 107.607C103.872 109.66 99.7884 111.044 96.2494 113.28C96.506 114.664 97.6787 114.215 98.2257 114.806C97.875 114.855 97.5216 114.903 97.1708 114.951C97.0871 114.959 97.0007 114.965 96.9169 114.973C96.5662 114.976 96.218 114.976 95.8673 114.978C95.8045 114.847 95.7416 114.715 95.6081 114.433C95.4746 114.712 95.4118 114.847 95.349 114.978C94.9982 114.986 94.6475 114.992 94.2967 115C94.2156 114.927 94.1344 114.852 94.0533 114.777C93.9591 114.688 93.8674 114.599 93.7784 114.511Z" fill="#E13F25"/>
<path d="M102.644 76.2663C101.076 76.4759 99.5054 76.6855 97.9375 76.8951C98.9139 74.095 101 72.2543 103.196 70.5103C104.447 70.7844 105.539 71.4105 106.583 72.1387C106.398 72.2408 106.196 72.3188 106.031 72.4504C104.686 73.52 102.743 74.0359 102.644 76.2663Z" fill="#49B289"/>
<path d="M98.2234 114.809C97.6789 114.218 96.5036 114.667 96.2471 113.283C99.7861 111.047 103.869 109.663 107.62 107.61C107.798 107.578 107.974 107.546 108.149 107.513C109.539 107.398 111.05 108.021 112.264 106.815C112.398 107.11 112.238 107.358 112.07 107.538C108.291 111.63 103.807 114.323 98.2234 114.809ZM97.7574 113.487C100.883 114.589 103.459 112.979 106.042 111.748C107.492 111.058 108.969 110.136 109.518 107.989C105.233 109.467 101.364 111.144 97.7574 113.487Z" fill="#F37750"/>
<path d="M73.874 86.0424C73.9735 86.2386 74.0729 86.4321 74.1724 86.6282C73.9682 88.9339 73.018 91.2529 74.3844 93.5586C75.51 90.7585 75.8555 87.8348 75.9759 84.9084C75.0493 84.594 75.0153 85.5211 74.4891 85.5802C74.9079 83.7529 75.5571 82.9655 76.8162 83.03C76.4419 87.2355 76.0885 91.4196 74.8713 95.3429C73.4604 95.3698 74.1253 93.8784 73.1568 93.8622C72.8113 91.1992 73.0259 88.5926 73.874 86.0424Z" fill="#F37750"/>
<path d="M111.816 77.2067C109.801 76.4945 107.667 76.559 105.597 76.1963C105.471 76.035 105.348 75.8711 105.22 75.7072C106.421 75.0112 107.298 73.8557 108.664 73.5037C110.177 74.3904 111.259 75.7529 112.536 77.1153C112.209 77.1583 112.012 77.1825 111.816 77.2067Z" fill="#89C89A"/>
<path d="M108.17 79.9476C109.942 79.4854 111.712 79.0259 113.484 78.5637C114.02 79.171 114.478 79.8294 114.74 80.6141C112.63 81.0548 110.518 81.4955 108.408 81.9362C108.654 81.2321 108.96 80.5227 108.17 79.9476Z" fill="#89C89A"/>
<path d="M108.662 73.5065C107.296 73.8585 106.419 75.014 105.217 75.71C105.346 75.8766 105.471 76.0378 105.594 76.1991C104.61 76.2233 103.626 76.2448 102.642 76.2689C102.744 74.0385 104.686 73.5226 106.029 72.4531C106.194 72.3241 106.395 72.2435 106.581 72.1414C107.387 72.4181 108.031 72.9502 108.662 73.5065Z" fill="#62B893"/>
<path d="M113.666 105.173C113.596 105.256 113.528 105.339 113.457 105.42C113.331 105.401 113.206 105.385 113.08 105.366C113.132 104.885 113.214 104.393 112.593 104.084C112.287 104.151 111.923 104.232 111.557 104.31C111.85 103.429 112.214 102.563 112.109 101.596C112.625 101.628 113.143 101.736 113.583 101.3C114.761 100.137 115.637 98.8066 116.033 97.1458C116.174 96.5547 115.986 95.7539 116.776 95.4395C116.658 97.2077 116.001 98.8334 115.525 100.51C115.153 101.822 114.09 102.88 114.2 104.358L114.213 104.345C113.632 104.345 113.651 104.759 113.666 105.173Z" fill="#2E2A2B"/>
<path d="M76.7559 104.606C77.795 103.609 78.8342 102.612 79.8734 101.615C80.3289 102.26 80.7843 102.907 81.2398 103.552C80.2634 104.622 79.2897 105.694 78.3133 106.763C77.6589 106.145 77.1485 105.417 76.7559 104.606Z" fill="#082F5C"/>
<path d="M114.201 104.361C114.091 102.88 115.154 101.824 115.526 100.513C116.002 98.8362 116.659 97.2104 116.777 95.4422C116.774 95.3616 116.777 95.281 116.787 95.2003C116.871 95.0122 116.955 94.8214 117.039 94.6333C117.041 94.198 117.041 93.7627 117.044 93.3247C117.481 92.1557 117.499 90.9895 117.034 89.8232C117.023 89.7372 117.026 89.6512 117.044 89.5652C117.078 89.541 117.149 89.5088 117.143 89.4954C117.125 89.4255 117.088 89.3637 117.057 89.2965C117.047 89.2159 117.041 89.1353 117.041 89.052C117.154 88.9445 117.266 88.8397 117.379 88.7322C118.206 90.4009 117.887 92.1933 117.759 93.9078C117.625 95.6599 117.196 97.4012 116.764 99.1129C116.274 101.034 115.322 102.749 114.201 104.361Z" fill="#282526"/>
<path d="M74.6279 100.344C75.586 99.739 76.1383 98.6373 77.1906 98.1482C78.2873 98.2933 78.1355 99.4219 78.6171 100.048C77.6434 100.943 76.6696 101.835 75.6959 102.73C75.1802 102.01 74.8269 101.214 74.6279 100.344Z" fill="#082F5C"/>
<path d="M111.557 104.313C111.923 104.232 112.29 104.152 112.593 104.087C113.211 104.396 113.133 104.888 113.08 105.369C113.041 105.49 112.999 105.611 112.96 105.732C112.853 106.172 112.646 106.546 112.271 106.812C111.052 108.021 109.541 107.395 108.151 107.513C109.151 106.299 110.73 105.726 111.557 104.313Z" fill="#504F51"/>
<path d="M76.002 103.359C78.8185 100.973 81.3261 98.2074 84.3521 96.0764C84.4489 96.1732 84.5484 96.2672 84.6452 96.3613C81.8706 98.8873 78.9572 101.26 76.4312 104.068C76.2899 103.832 76.1459 103.595 76.002 103.359Z" fill="#C7361D"/>
<path d="M116.043 83.2153C115.03 83.4061 114.017 83.5969 113.007 83.7877C112.588 83.1723 112.656 82.1324 111.591 82.0813C112.756 81.8126 113.92 81.5466 115.083 81.2778C115.622 81.8099 115.865 82.4951 116.043 83.2153Z" fill="#CDCECF"/>
<path d="M115.625 87.9663C116.133 87.3536 115.821 86.0906 117.059 86.0503C116.808 86.7302 117.609 87.2649 117.308 87.9529C117.054 87.8803 116.816 87.5498 116.533 87.8991C116.381 87.9045 116.232 87.9099 116.08 87.9152C115.929 87.934 115.777 87.9502 115.625 87.9663Z" fill="#282526"/>
<path d="M116.533 87.8992C116.816 87.5525 117.054 87.8804 117.308 87.9529C117.329 88.2136 117.353 88.4716 117.373 88.7322C117.261 88.8397 117.148 88.9445 117.036 89.052C116.368 88.8988 116.588 88.3372 116.533 87.8992Z" fill="#2E2A2B"/>
<path d="M113.666 105.173C113.651 104.759 113.632 104.345 114.213 104.348C114.03 104.622 113.85 104.896 113.666 105.173Z" fill="#282526"/>
<path d="M112.96 105.732C112.999 105.611 113.041 105.49 113.08 105.369C113.206 105.385 113.332 105.404 113.457 105.42C113.35 105.621 113.316 105.947 112.96 105.732Z" fill="#282526"/>
<path d="M95.3467 114.978C95.4095 114.847 95.4723 114.715 95.6058 114.433C95.7393 114.712 95.8021 114.847 95.865 114.978C95.6922 114.978 95.5194 114.978 95.3467 114.978Z" fill="#CF371F"/>
<path d="M94.0484 114.78C94.1296 114.855 94.2107 114.927 94.2919 115.003C94.0327 114.986 93.7736 114.968 93.5171 114.952C93.4883 114.887 93.4883 114.823 93.5144 114.758C93.6924 114.763 93.8704 114.771 94.0484 114.78Z" fill="#F37750"/>
<path d="M92.7266 114.79C92.7737 114.745 92.8208 114.702 92.8731 114.653C92.915 114.71 92.9543 114.763 92.9936 114.817C92.9046 114.809 92.8156 114.801 92.7266 114.79Z" fill="#C7361D"/>
<path d="M96.9121 114.972C96.9959 114.965 97.0823 114.959 97.166 114.952C97.0823 114.959 96.9985 114.967 96.9121 114.972Z" fill="#F37750"/>
<path d="M105.545 89.8608C105.898 92.1772 105.786 94.5151 105.807 96.845C105.809 97.1647 105.854 97.463 106.147 97.6511C103.652 99.4354 100.885 100.58 97.959 101.365C98.014 98.6723 98.7757 96.0038 98.2103 93.2897C99.0427 92.6824 99.8855 92.0939 100.556 91.2824C101.296 90.3848 102.364 90.366 103.388 90.2236C104.108 90.1269 104.825 89.9845 105.545 89.8608Z" fill="#EDEDEE"/>
<path d="M98.2076 93.2925C98.773 96.0039 98.0139 98.675 97.9563 101.368C95.8335 102.23 93.5509 102.265 91.3469 102.714C91.2003 102.617 91.0511 102.523 90.9045 102.426C91.114 102.284 91.3207 102.144 91.4935 102.026C91.4909 100.274 91.8914 98.5514 91.5956 96.8208C91.4019 96.5145 91.0825 96.5521 90.792 96.5091C92.2238 95.4584 93.6556 94.4104 95.0979 93.3543C96.1764 93.6687 97.1868 93.3516 98.2076 93.2925Z" fill="#E1E2E3"/>
<path d="M82.3788 92.5829C81.6276 90.7905 80.8894 88.9928 80.6826 87.0257C82.0411 85.6875 83.2321 84.1611 84.8551 83.1185C85.1325 83.1131 85.3472 83.0003 85.478 82.7423L85.4571 82.6402L85.5409 82.5811C85.8681 83.2314 86.0277 83.8897 85.8393 84.6314C85.4074 86.319 85.8314 87.9555 86.1979 89.5894C85.0723 90.7852 83.7059 91.6612 82.3788 92.5829Z" fill="#CDCECF"/>
<path d="M89.3232 80.1654C90.0274 79.7327 90.7289 79.3001 91.433 78.8701C92.6188 78.4617 93.8019 78.0398 94.9929 77.6555C95.4405 77.5104 95.9065 77.3492 96.3907 77.5346C96.3803 79.0663 96.5373 80.6168 95.8646 82.0652C93.3151 82.2883 91.6005 83.5056 91.1137 86.2224C91.0849 86.3863 90.8388 86.5099 90.6949 86.6523C90.297 85.3867 89.6635 84.2043 90.0457 82.7505C90.2839 81.8476 90.3493 80.7915 89.3232 80.1654Z" fill="#E1E2E3"/>
<path d="M89.3228 80.1653C90.3489 80.7914 90.2834 81.8502 90.0478 82.7477C89.6657 84.2015 90.2991 85.3839 90.697 86.6496C89.1971 87.6304 87.6999 88.6086 86.2 89.5894C85.8335 87.9556 85.4095 86.3217 85.8414 84.6315C86.0298 83.8898 85.8702 83.2287 85.543 82.5811C86.2811 82.0248 87.0167 81.4686 87.7548 80.9123C88.2757 80.6651 88.7993 80.4152 89.3228 80.1653Z" fill="#D6D7D8"/>
<path d="M95.0611 92.5751C92.823 91.871 91.3284 89.1489 91.7262 86.5019C92.1424 83.7314 93.7104 82.6726 98.0791 82.635C94.849 84.5671 92.5115 86.5637 95.383 90.0786C95.2757 90.909 95.1684 91.742 95.0611 92.5751Z" fill="#038951"/>
<path d="M90.7973 96.509C91.0878 96.552 91.4072 96.5144 91.6009 96.8208C91.894 98.5513 91.4962 100.274 91.4988 102.026C91.326 102.144 91.1166 102.284 90.9098 102.426C89.4832 101.644 88.3472 100.486 87.1641 99.3871C88.2451 98.2584 89.5016 97.3582 90.7973 96.509Z" fill="#D6D7D8"/>
<path d="M87.7314 94.8779C89.2261 93.7331 90.7207 92.5884 92.2232 91.4355C92.9326 92.0241 93.5634 92.5454 94.299 93.1554C92.3698 94.5393 90.4694 95.899 88.5717 97.2615C88.7104 96.3102 87.8911 95.7163 87.7314 94.8779Z" fill="#0194D6"/>
<path d="M85.4023 91.1695C87.1954 89.893 88.9911 88.6166 90.9228 87.2407C91.1192 88.2565 91.271 89.06 91.4516 89.9978C90.1009 90.9222 88.7084 91.8735 87.3158 92.8248C86.2661 92.7737 85.9913 91.7821 85.4023 91.1695Z" fill="#0194D6"/>
<path d="M95.1318 88.5979C97.6892 86.338 100.482 84.5402 104.11 83.8657C101.425 86.4186 98.43 87.8106 95.1318 88.5979Z" fill="#E1E2E3"/>
<path d="M78.6199 100.048C78.1357 99.4221 78.2875 98.2935 77.1934 98.1483C78.2692 97.1594 79.345 96.1705 80.4235 95.1816C81.2114 95.4745 81.2794 96.5064 82.0385 96.8289C81.1616 98.1994 79.7036 98.9169 78.6199 100.048Z" fill="#015F97"/>
<path d="M102.403 89.5626C101.243 89.7239 100.086 89.9254 98.9216 90.0356C97.8615 90.1377 96.7516 90.3581 95.7412 89.3503C97.7096 88.254 99.7042 87.6628 101.874 87.7165C101.746 88.4232 102.552 88.8478 102.403 89.5626Z" fill="#0185C3"/>
<path d="M81.2375 103.552C80.782 102.907 80.3266 102.263 79.8711 101.615C80.926 100.634 81.9809 99.6532 83.0384 98.6697C83.3708 99.4114 84.2032 99.9112 84.0566 100.887C83.2923 101.97 82.1458 102.628 81.2375 103.552Z" fill="#015F97"/>
<path d="M85.4018 91.1697C85.9908 91.7824 86.2656 92.774 87.3153 92.825C86.263 93.6312 85.2081 94.4373 84.1559 95.2408C83.4413 94.827 83.2528 93.6339 82.1377 93.8166C83.2266 92.9352 84.3129 92.0538 85.4018 91.1697Z" fill="#0185C3"/>
<path d="M95.0605 92.5751C95.1679 91.742 95.2752 90.909 95.3825 90.0759C96.8876 91.2099 98.5576 90.479 100.149 90.5354C99.2461 92.4514 97.3117 93.2334 95.0605 92.5751Z" fill="#029459"/>
<path d="M99.317 84.2767C98.0003 85.5531 96.6235 86.7436 94.9247 87.6492C94.4875 86.4372 94.9875 85.623 95.7989 84.9593C96.6497 84.2659 97.5449 83.6318 98.4192 82.9707C98.7176 83.406 99.0186 83.8414 99.317 84.2767Z" fill="#0185C3"/>
<path d="M87.7314 94.8779C87.8911 95.7163 88.7104 96.3102 88.5691 97.2615C87.789 97.8823 87.009 98.503 86.2316 99.1211C85.873 98.3068 85.3939 97.6377 84.4307 97.5517C85.4463 96.5494 86.5378 95.6465 87.7314 94.8779Z" fill="#0185C3"/>
<path d="M111.591 82.0786C112.656 82.1297 112.586 83.1696 113.007 83.785C111.502 84.2123 109.997 84.6369 108.492 85.0614C108.11 84.4192 109.253 84.6906 109 84.1182C109.081 83.4787 108.426 83.4598 108.144 83.1078C109.243 82.5972 110.389 82.2398 111.591 82.0786Z" fill="#89C89A"/>
<path d="M100.817 80.3668C102.388 79.1361 103.883 78.9964 105.519 80.0605C103.88 80.5039 102.757 81.654 101.372 82.3473C100.88 81.7776 100.768 81.0951 100.817 80.3668Z" fill="#015F97"/>
<path d="M82.1377 93.8192C83.2528 93.6338 83.4413 94.8296 84.1559 95.2434C83.5879 95.969 82.8052 96.3936 82.033 96.8316C81.2739 96.5091 81.2059 95.4745 80.418 95.1843C80.9938 94.7275 81.5671 94.2733 82.1377 93.8192Z" fill="#0275B1"/>
<path d="M102.403 89.5626C102.552 88.8505 101.746 88.426 101.874 87.7192C102.908 87.4935 104.018 87.9637 105.013 87.3752C105.06 87.6682 105.107 87.9611 105.146 88.1949C105.505 88.4179 105.788 88.5952 106.07 88.7699C104.942 89.4874 103.704 89.6809 102.403 89.5626Z" fill="#0275B1"/>
<path d="M102.683 82.3824C103.626 81.638 104.576 80.9071 105.801 80.7163C106.33 81.2591 105.903 81.9471 106.065 82.5436C104.934 82.85 103.804 83.1563 102.673 83.4627C102.675 83.1053 102.678 82.7452 102.683 82.3824Z" fill="#49B289"/>
<path d="M100.817 80.3669C100.768 81.0952 100.88 81.7777 101.372 82.3474C100.815 83.1348 100.1 83.7448 99.3148 84.2769C99.0164 83.8415 98.718 83.4089 98.417 82.9736C99.2258 82.1083 99.6813 80.9071 100.817 80.3669Z" fill="#0275B1"/>
<path d="M84.4306 97.5518C85.3939 97.6377 85.8729 98.3069 86.2315 99.1211C85.5065 99.7096 84.7814 100.298 84.0563 100.887C84.2029 99.9138 83.3705 99.414 83.0381 98.6696C83.5014 98.2988 83.9673 97.9253 84.4306 97.5518Z" fill="#0275B1"/>
<path d="M108.139 83.1079C108.422 83.4599 109.076 83.4787 108.995 84.1183C109.249 84.6907 108.105 84.4193 108.487 85.0615C107.594 85.4377 106.699 85.814 105.807 86.1902C106.136 85.47 106.061 84.6987 106.061 83.941C106.704 83.5298 107.398 83.2557 108.139 83.1079Z" fill="#62B893"/>
<path d="M106.063 82.5463C105.901 81.9471 106.328 81.2618 105.799 80.719C106.589 80.4637 107.377 80.2057 108.168 79.9504C108.958 80.5255 108.655 81.2349 108.406 81.9417C107.626 82.1405 106.846 82.3421 106.063 82.5463Z" fill="#62B893"/>
<path d="M84.6486 96.3614C84.5518 96.2673 84.4523 96.1706 84.3555 96.0765C86.6642 94.01 89.1954 92.2714 91.9648 90.8633C89.5252 92.696 87.0856 94.5287 84.6486 96.3614Z" fill="#CDCECF"/>
<path d="M106.073 88.7699C105.79 88.5925 105.505 88.4179 105.149 88.1948C105.11 87.961 105.063 87.6681 105.016 87.3752C106.021 86.6927 107.144 86.3164 108.555 85.873C108.015 87.3376 107.264 88.2432 106.073 88.7699Z" fill="#015F97"/>
<path d="M106.06 83.9409C106.06 84.7014 106.136 85.47 105.807 86.1901C105.068 86.6496 104.294 86.9694 103.406 86.8834C103.548 86.5825 103.689 86.2788 103.836 85.9671C103.697 85.7387 103.569 85.5264 103.438 85.3141C104.262 84.7471 105.11 84.2446 106.06 83.9409Z" fill="#49B289"/>
<path d="M103.443 85.314C103.571 85.5263 103.702 85.7385 103.841 85.967C103.694 86.2787 103.553 86.5797 103.411 86.8833C102.731 86.9532 102.053 87.0204 101.218 87.1063C101.822 86.1739 102.694 85.8219 103.443 85.314Z" fill="#029F67"/>
<path d="M102.683 82.3823C102.678 82.7424 102.675 83.1025 102.67 83.4653C102.039 83.7125 101.408 83.957 100.777 84.2043C100.733 84.121 100.691 84.0403 100.646 83.957C101.327 83.433 102.005 82.909 102.683 82.3823Z" fill="#029F67"/>
<path d="M91.3467 102.714C93.5507 102.265 95.8332 102.23 97.9561 101.368C100.88 100.583 103.649 99.4382 106.144 97.6539C107.17 97.4039 107.633 96.2377 108.683 96.0254C108.709 97.0573 109.481 97.627 110.023 98.3498C110.793 99.3791 111.96 100.148 112.107 101.599C112.211 102.566 111.848 103.431 111.554 104.313C110.727 105.726 109.152 106.299 108.149 107.516C107.974 107.548 107.796 107.58 107.62 107.613C105.063 107.656 102.558 107.204 100.053 106.75C97.0321 105.673 93.959 104.716 91.3467 102.714Z" fill="#242021"/>
<path d="M94.0477 114.779C93.8697 114.771 93.6917 114.763 93.5137 114.758C93.6027 114.677 93.689 114.594 93.778 114.513C93.867 114.599 93.9587 114.688 94.0477 114.779Z" fill="#C7361D"/>
<path d="M85.4785 82.7423C85.3476 83.0003 85.1303 83.1131 84.8555 83.1185C85.0125 82.9062 85.1879 82.7235 85.4785 82.7423Z" fill="#D6D7D8"/>
<path d="M112.109 101.599C111.963 100.148 110.793 99.379 110.026 98.3498C109.484 97.6243 108.712 97.0572 108.686 96.0254C108.926 95.8184 109.167 95.6115 109.408 95.4046C110.214 96.329 110.568 97.7694 112.078 97.8876C113.986 98.0354 115.007 96.9981 115.74 94.5071C116.384 92.3197 116.109 90.1215 116.08 87.918C116.232 87.9126 116.381 87.9072 116.533 87.9019C116.588 88.3372 116.368 88.9015 117.038 89.0547C117.038 89.138 117.044 89.2186 117.054 89.2992C117.049 89.3879 117.044 89.4793 117.041 89.5679C117.023 89.6539 117.02 89.7399 117.03 89.8259C116.664 90.9949 116.651 92.1611 117.041 93.3274C117.038 93.7627 117.038 94.198 117.036 94.6361C116.745 94.7301 116.397 94.7946 116.784 95.2031C116.774 95.2837 116.771 95.3643 116.774 95.4449C115.983 95.7593 116.172 96.5574 116.031 97.1513C115.635 98.8147 114.756 100.142 113.58 101.306C113.141 101.738 112.625 101.631 112.109 101.599Z" fill="#504F51"/>
<path d="M116.08 87.918C116.109 90.1215 116.384 92.3197 115.74 94.5071C115.007 96.9981 113.986 98.0354 112.078 97.8876C110.568 97.7694 110.212 96.329 109.408 95.4046C110.052 94.8 110.696 94.1926 111.337 93.588C112.138 94.5232 113.138 94.8913 113.973 93.8594C114.955 92.6475 115.374 91.1722 114.677 89.5894C114.939 89.0144 115.117 88.3882 115.628 87.969C115.777 87.9502 115.929 87.9341 116.08 87.918Z" fill="#7E7E80"/>
<path d="M114.675 89.5867C115.374 91.1721 114.952 92.6474 113.971 93.8567C113.136 94.8886 112.136 94.5204 111.335 93.5853C111.665 93.2252 111.992 92.8651 112.322 92.505C112.874 92.8651 113.39 92.8167 113.748 92.247C114.104 91.68 114.751 91.1265 114.081 90.3552C114.28 90.0999 114.479 89.8446 114.675 89.5867Z" fill="#89C89A"/>
<path d="M114.083 90.3579C114.751 91.1291 114.107 91.6827 113.751 92.2497C113.395 92.8194 112.877 92.8678 112.324 92.5077C112.911 91.7902 113.497 91.0727 114.083 90.3579Z" fill="#CDCECF"/>
<path d="M74.4893 85.5801C75.0129 85.521 75.0469 84.5966 75.9761 84.9083C75.8583 87.8374 75.5102 90.7584 74.3846 93.5585C73.0183 91.2528 73.9658 88.9337 74.1726 86.6281C74.2773 86.2788 74.382 85.9294 74.4893 85.5801Z" fill="#F79E7B"/>
<path d="M97.7568 113.487C101.364 111.144 105.23 109.467 109.518 107.989C108.968 110.136 107.492 111.058 106.042 111.748C103.458 112.979 100.882 114.589 97.7568 113.487Z" fill="#F79E7B"/>
<path d="M117.041 93.3247C116.651 92.1584 116.664 90.9922 117.03 89.8232C117.496 90.9895 117.478 92.1584 117.041 93.3247Z" fill="#2E2A2B"/>
<path d="M116.787 95.2003C116.397 94.7918 116.748 94.7274 117.039 94.6333C116.952 94.8214 116.871 95.0122 116.787 95.2003Z" fill="#2E2A2B"/>
<path d="M117.041 89.5654C117.046 89.4767 117.051 89.3853 117.054 89.2966C117.086 89.3611 117.122 89.4256 117.14 89.4955C117.143 89.5089 117.075 89.5412 117.041 89.5654Z" fill="#2E2A2B"/>
</g>
<defs>
<clipPath id="clip0_16_9180">
<rect width="162" height="46" fill="white" transform="translate(73 69)"/>
</clipPath>
</defs>
</svg>
