<svg width="136" height="55" viewBox="0 0 136 55" fill="none" xmlns="http://www.w3.org/2000/svg">
<path d="M18.4182 52.6073C18.4182 53.4089 17.7201 53.7095 17.0796 53.7095C16.0752 53.7095 15.6336 53.1504 15.5361 52.5252H16.1209C16.2283 52.944 16.5048 53.1604 17.0736 53.1604C17.557 53.1604 17.8334 52.96 17.8334 52.6334C17.8334 52.3068 17.541 52.2326 16.8747 52.0924C16.1766 51.9361 15.6336 51.7397 15.6336 51.0644C15.6336 50.345 16.2641 49.9683 16.9523 49.9683C17.8533 49.9683 18.269 50.4392 18.3725 51.0123H17.7877C17.6843 50.7117 17.4396 50.5153 16.9563 50.5153C16.473 50.5153 16.2124 50.7337 16.2124 51.0483C16.2124 51.3068 16.4113 51.389 17.008 51.5172C17.9209 51.7196 18.4182 51.91 18.4182 52.6073Z" fill="white"/>
<path d="M21.704 51.8542V53.6577H21.1252V51.9824C21.1252 51.5436 20.9263 51.3111 20.5046 51.3111C20.0113 51.3111 19.7448 51.6378 19.7448 52.1848V53.6577H19.166V49.668H19.7448V51.2711C19.8395 51.1047 19.9776 50.9676 20.1442 50.8747C20.3107 50.7817 20.4994 50.7366 20.6896 50.744C21.3201 50.744 21.704 51.1608 21.704 51.8542Z" fill="white"/>
<path d="M23.1896 49.88C23.1944 49.956 23.1764 50.0318 23.138 50.0974C23.0996 50.163 23.0425 50.2156 22.9741 50.2482C22.9057 50.2807 22.8292 50.2919 22.7545 50.2802C22.6797 50.2685 22.6102 50.2345 22.5548 50.1825C22.4995 50.1306 22.4609 50.0631 22.4441 49.9888C22.4272 49.9145 22.4329 49.8368 22.4603 49.7658C22.4878 49.6948 22.5358 49.6337 22.5981 49.5905C22.6604 49.5472 22.7341 49.5238 22.8097 49.5233C22.8583 49.52 22.907 49.5268 22.9529 49.5432C22.9987 49.5596 23.0407 49.5853 23.0763 49.6187C23.1119 49.6522 23.1404 49.6926 23.1599 49.7375C23.1793 49.7825 23.1895 49.8309 23.1896 49.88ZM22.5233 50.8057H23.1021V53.6472H22.5233V50.8057Z" fill="white"/>
<path d="M26.84 52.2266C26.84 53.0942 26.293 53.7094 25.5392 53.7094C25.3412 53.7146 25.1453 53.6675 24.9708 53.573C24.7964 53.4785 24.6495 53.3397 24.5447 53.1704V54.9378H23.9639V50.8058H24.5447V51.2988C24.6485 51.128 24.795 50.9876 24.9695 50.8917C25.144 50.7957 25.3404 50.7474 25.5392 50.7517C26.2811 50.7437 26.84 51.3569 26.84 52.2266ZM26.2552 52.2266C26.2552 51.6835 25.9071 51.3008 25.4158 51.3008C25.1798 51.3119 24.957 51.4141 24.7939 51.5863C24.6307 51.7586 24.5397 51.9875 24.5397 52.2256C24.5397 52.4636 24.6307 52.6926 24.7939 52.8648C24.957 53.037 25.1798 53.1393 25.4158 53.1503C25.9031 53.1503 26.2552 52.7736 26.2552 52.2266Z" fill="white"/>
<path d="M30.4892 52.2266C30.4892 53.0942 29.9422 53.7094 29.1884 53.7094C28.9921 53.7128 28.7982 53.665 28.6257 53.5705C28.4531 53.476 28.3078 53.3382 28.2038 53.1704V54.9378H27.623V50.8058H28.2038V51.2988C28.3077 51.128 28.4542 50.9876 28.6287 50.8917C28.8032 50.7957 28.9996 50.7474 29.1983 50.7517C29.9303 50.7437 30.4892 51.3569 30.4892 52.2266ZM29.9064 52.2266C29.9064 51.6835 29.5564 51.3008 29.0651 51.3008C28.829 51.3119 28.6063 51.4141 28.4431 51.5863C28.2799 51.7586 28.1889 51.9875 28.1889 52.2256C28.1889 52.4636 28.2799 52.6926 28.4431 52.8648C28.6063 53.037 28.829 53.1393 29.0651 53.1503C29.5524 53.1503 29.9064 52.7736 29.9064 52.2266Z" fill="white"/>
<path d="M31.9159 49.88C31.909 49.9759 31.8663 50.0657 31.7964 50.1312C31.7265 50.1967 31.6345 50.2331 31.539 50.2331C31.4435 50.2331 31.3516 50.1967 31.2817 50.1312C31.2117 50.0657 31.169 49.9759 31.1621 49.88C31.169 49.784 31.2117 49.6943 31.2817 49.6288C31.3516 49.5633 31.4435 49.5269 31.539 49.5269C31.6345 49.5269 31.7265 49.5633 31.7964 49.6288C31.8663 49.6943 31.909 49.784 31.9159 49.88ZM31.2476 50.8058H31.8244V53.6472H31.2476V50.8058Z" fill="white"/>
<path d="M35.205 51.8541V53.6575H34.6262V51.9823C34.6262 51.5435 34.4273 51.311 34.0096 51.311C33.5123 51.311 33.2458 51.6376 33.2458 52.1847V53.6575H32.667V50.806H33.2458V51.2749C33.3398 51.1076 33.4776 50.9696 33.6443 50.876C33.8109 50.7823 33.9999 50.7366 34.1906 50.7439C34.831 50.7439 35.205 51.1607 35.205 51.8541Z" fill="white"/>
<path d="M38.8097 50.806V53.6114C38.8097 54.457 38.2826 55.0001 37.4453 55.0001C36.775 55.0001 36.1644 54.6494 36.041 53.942H36.6377C36.7352 54.3087 37.0475 54.479 37.4333 54.479C37.9505 54.479 38.2289 54.1845 38.2289 53.6314V53.1445C38.1219 53.3113 37.9744 53.4478 37.8004 53.5411C37.6263 53.6344 37.4315 53.6813 37.2344 53.6775C36.4806 53.6775 35.9316 53.0623 35.9316 52.2107C35.9316 51.359 36.4906 50.7438 37.2344 50.7438C37.4331 50.7401 37.6293 50.7887 37.8037 50.8846C37.978 50.9805 38.1246 51.1205 38.2289 51.2909V50.806H38.8097ZM38.2369 52.2087C38.2423 52.0908 38.2238 51.9731 38.1826 51.8626C38.1414 51.7521 38.0783 51.6513 37.9972 51.5662C37.9161 51.4811 37.8186 51.4135 37.7107 51.3675C37.6028 51.3216 37.4868 51.2983 37.3697 51.2989C37.1406 51.3143 36.9258 51.4168 36.7689 51.5857C36.612 51.7546 36.5247 51.9773 36.5247 52.2087C36.5247 52.44 36.612 52.6627 36.7689 52.8317C36.9258 53.0006 37.1406 53.1031 37.3697 53.1184C37.4867 53.1194 37.6027 53.0963 37.7106 53.0506C37.8185 53.0048 37.9159 52.9374 37.9971 52.8525C38.0783 52.7675 38.1414 52.6668 38.1826 52.5565C38.2238 52.4461 38.2423 52.3285 38.2369 52.2107V52.2087Z" fill="white"/>
<path d="M44.8539 50.0303V53.6472H44.2751V50.8198L43.1612 52.501H43.1036L42.0017 50.8158V53.6432H41.4229V50.0303H42.1051L43.1354 51.5893L44.1657 50.0303H44.8539Z" fill="white"/>
<path d="M48.5595 50.806V53.6475H47.9807V53.1706C47.8776 53.3392 47.7325 53.4777 47.5597 53.5723C47.387 53.6668 47.1927 53.7142 46.9962 53.7096C46.2423 53.7096 45.6934 53.0944 45.6934 52.2268C45.6934 51.3591 46.2523 50.7439 46.9902 50.7439C47.1889 50.7398 47.3852 50.7881 47.5597 50.8841C47.7342 50.9801 47.8807 51.1203 47.9847 51.2909V50.806H48.5595ZM47.9867 52.2268C47.994 52.1075 47.977 51.9881 47.9367 51.8758C47.8965 51.7634 47.8337 51.6606 47.7525 51.5737C47.6712 51.4867 47.5731 51.4175 47.4642 51.3702C47.3554 51.323 47.238 51.2987 47.1195 51.299C46.6262 51.299 46.2781 51.6817 46.2781 52.2247C46.2781 52.7678 46.6322 53.1485 47.1195 53.1485C47.2377 53.1493 47.3547 53.1256 47.4635 53.0789C47.5722 53.0322 47.6702 52.9636 47.7515 52.8771C47.8328 52.7907 47.8956 52.6884 47.9361 52.5765C47.9765 52.4647 47.9938 52.3456 47.9867 52.2268Z" fill="white"/>
<path d="M52.2189 49.668V53.6476H51.6401V53.1707C51.5339 53.3388 51.3867 53.4766 51.2126 53.571C51.0385 53.6653 50.8433 53.7131 50.6456 53.7098C49.8917 53.7098 49.3428 53.0946 49.3428 52.2269C49.3428 51.3592 49.9017 50.744 50.6396 50.744C50.838 50.7415 51.0338 50.7905 51.208 50.8863C51.3822 50.9822 51.5289 51.1216 51.6341 51.2911V49.668H52.2189ZM51.6401 52.2269C51.6471 52.1079 51.6299 51.9886 51.5895 51.8765C51.5491 51.7644 51.4863 51.6619 51.4051 51.5752C51.3239 51.4884 51.2259 51.4194 51.1171 51.3722C51.0084 51.3251 50.8912 51.3009 50.7729 51.3011C50.2816 51.3011 49.9335 51.6839 49.9335 52.2269C49.9335 52.7699 50.2856 53.1507 50.7729 53.1507C50.8912 53.1515 51.0085 53.1277 51.1173 53.0809C51.2262 53.0341 51.3244 52.9652 51.4057 52.8786C51.487 52.792 51.5498 52.6894 51.5901 52.5773C51.6304 52.4652 51.6474 52.3459 51.6401 52.2269Z" fill="white"/>
<path d="M55.8549 52.387H53.5616C53.5667 52.4982 53.5936 52.6074 53.6409 52.7081C53.6882 52.8088 53.7548 52.8991 53.837 52.9736C53.9191 53.0482 54.0151 53.1056 54.1195 53.1425C54.2238 53.1793 54.3343 53.195 54.4447 53.1885C54.5974 53.1985 54.7498 53.164 54.8835 53.089C55.0172 53.014 55.1266 52.9018 55.1986 52.7657H55.7953C55.7009 53.0492 55.5175 53.2941 55.2728 53.4633C55.0281 53.6325 54.7353 53.7168 54.4388 53.7035C54.0484 53.7048 53.6735 53.5499 53.3965 53.2727C53.1196 52.9956 52.9632 52.6189 52.9619 52.2257C52.9606 51.8324 53.1144 51.4547 53.3895 51.1757C53.6646 50.8966 54.0384 50.7391 54.4288 50.7378C55.3358 50.7438 55.9106 51.4512 55.8549 52.387ZM53.5934 51.91H55.2344C55.2011 51.7209 55.1014 51.55 54.9535 51.4286C54.8057 51.3073 54.6195 51.2434 54.4288 51.2488C54.235 51.2439 54.0455 51.3072 53.893 51.4279C53.7405 51.5486 53.6346 51.7191 53.5934 51.91Z" fill="white"/>
<path d="M61.0627 52.6073C61.0627 53.4089 60.3646 53.7095 59.7241 53.7095C58.7177 53.7095 58.2781 53.1504 58.1807 52.5252H58.7654C58.8728 52.944 59.1493 53.1604 59.7182 53.1604C60.1995 53.1604 60.478 52.96 60.478 52.6334C60.478 52.3068 60.1856 52.2326 59.5193 52.0924C58.8211 51.9361 58.2781 51.7397 58.2781 51.0644C58.2781 50.345 58.9086 49.9683 59.5948 49.9683C60.4979 49.9683 60.9136 50.4392 61.015 51.0123H60.4262C60.3248 50.7117 60.0782 50.5153 59.5968 50.5153C59.1155 50.5153 58.8529 50.7337 58.8529 51.0483C58.8529 51.3068 59.0518 51.389 59.6486 51.5172C60.5615 51.7196 61.0627 51.91 61.0627 52.6073Z" fill="white"/>
<path d="M62.455 49.88C62.4481 49.9759 62.4054 50.0657 62.3354 50.1312C62.2655 50.1967 62.1736 50.2331 62.0781 50.2331C61.9826 50.2331 61.8907 50.1967 61.8207 50.1312C61.7508 50.0657 61.7081 49.9759 61.7012 49.88C61.7081 49.784 61.7508 49.6943 61.8207 49.6288C61.8907 49.5633 61.9826 49.5269 62.0781 49.5269C62.1736 49.5269 62.2655 49.5633 62.3354 49.6288C62.4054 49.6943 62.4481 49.784 62.455 49.88ZM61.7887 50.8058H62.3675V53.6472H61.7887V50.8058Z" fill="white"/>
<path d="M67.4395 51.822V53.6475H66.8607V51.9462C66.8607 51.5234 66.6916 51.301 66.3018 51.301C65.8463 51.301 65.6096 51.6577 65.6096 52.1747V53.6475H65.0407V51.9462C65.0407 51.5234 64.8717 51.301 64.4818 51.301C64.0244 51.301 63.7936 51.6577 63.7936 52.1747V53.6475H63.2148V50.806H63.7936V51.2589C63.8781 51.0995 64.0048 50.967 64.1597 50.876C64.3146 50.7851 64.4916 50.7393 64.6708 50.7439C64.8618 50.7318 65.0513 50.7844 65.2092 50.8933C65.367 51.0022 65.4842 51.1613 65.542 51.3451C65.6259 51.1622 65.7609 51.0079 65.9304 50.9012C66.1 50.7944 66.2968 50.7397 66.4967 50.7439C67.0815 50.7439 67.4395 51.1467 67.4395 51.822Z" fill="white"/>
<path d="M71.1562 52.2265C71.1562 53.0942 70.6072 53.7094 69.8534 53.7094C69.6571 53.7128 69.4632 53.6649 69.2907 53.5705C69.1181 53.476 68.9728 53.3382 68.8688 53.1704V54.9378H68.29V50.8058H68.8688V51.2988C68.9729 51.1281 69.1194 50.9879 69.2938 50.8919C69.4683 50.7959 69.6646 50.7476 69.8633 50.7517C70.5973 50.7437 71.1562 51.3569 71.1562 52.2265ZM70.5714 52.2265C70.5714 51.6835 70.2234 51.3008 69.7301 51.3008C69.494 51.3118 69.2713 51.4141 69.1081 51.5863C68.9449 51.7585 68.8539 51.9875 68.8539 52.2255C68.8539 52.4636 68.9449 52.6925 69.1081 52.8648C69.2713 53.037 69.494 53.1393 69.7301 53.1503C70.2114 53.1503 70.5714 52.7736 70.5714 52.2265Z" fill="white"/>
<path d="M71.918 49.668H72.5027V53.6476H71.918V49.668Z" fill="white"/>
<path d="M76.1294 52.387H73.8361C73.8414 52.4982 73.8685 52.6072 73.9159 52.7078C73.9632 52.8084 74.0299 52.8985 74.112 52.973C74.1941 53.0475 74.29 53.105 74.3942 53.1419C74.4984 53.1789 74.6089 53.1948 74.7192 53.1886C74.8719 53.1986 75.0242 53.164 75.1579 53.089C75.2916 53.0141 75.401 52.9018 75.473 52.7658H76.0697C75.9749 53.0493 75.7911 53.2939 75.546 53.4628C75.3009 53.6316 75.0078 53.7155 74.7112 53.7016C74.3209 53.7029 73.946 53.5479 73.669 53.2708C73.392 52.9936 73.2357 52.617 73.2344 52.2237C73.2331 51.8304 73.3869 51.4527 73.662 51.1737C73.9371 50.8947 74.3109 50.7372 74.7013 50.7358C75.6102 50.7439 76.1791 51.4512 76.1294 52.387ZM73.8679 51.9101H75.5088C75.4755 51.7209 75.3758 51.5501 75.228 51.4287C75.0801 51.3073 74.8939 51.2435 74.7033 51.2488C74.5094 51.2439 74.3199 51.3073 74.1674 51.428C74.0149 51.5487 73.909 51.7192 73.8679 51.9101Z" fill="white"/>
<path d="M17.9424 0.623047H10.7641L6.78613 23.2186H11.7905L12.9839 16.2792H15.6034C21.8508 16.2792 26.5608 13.4057 26.5608 7.27386C26.5608 2.40448 22.3302 0.623047 17.9424 0.623047ZM16.3095 12.1152H13.7238L15.0385 4.70091H17.4611C19.8638 4.70091 21.2104 5.79902 21.2104 7.76681C21.2104 10.5021 19.3825 12.1152 16.3095 12.1152Z" fill="white"/>
<path d="M66.4476 7.6626L66.4424 7.66775V7.6626H66.4476Z" fill="white"/>
<path d="M45.566 0L43.2985 12.9309C42.6183 16.8044 40.7984 18.3934 38.4911 18.3934C35.8318 18.3934 34.4554 17.0629 34.4554 14.3196C34.4587 13.5952 34.5333 12.873 34.6782 12.1634L36.7547 0H31.6032L29.5207 12.1033C29.3384 13.0827 29.2439 14.0766 29.2383 15.073C29.2383 20.4835 32.731 22.9102 38.338 22.9102C43.8097 22.9102 47.2706 19.6819 48.2949 13.7425L50.6917 0H45.566Z" fill="white"/>
<path d="M90.2791 4.3564L91.017 0H77.3108L74.6455 15.2033H79.7911L80.169 13.0251H84.2703L85.0321 8.54647L80.9308 8.61661L81.6746 4.3564H90.2791Z" fill="white"/>
<path d="M66.8519 6.63479C66.8519 4.76318 65.201 3.82938 63.0231 3.82938H60.3638L59.1843 10.5764L59.1505 10.7768L58.4523 14.6843H58.4404L58.0008 17.2332L57.9332 17.6019L57.068 22.5875H51.9443L55.9144 0H63.5024C68.1189 0 71.8562 1.80348 71.8562 6.15987C71.8562 9.90509 69.6425 12.0993 66.5376 13.3918L69.3222 18.2311H90.5509L89.7851 22.5875H67.0488L61.2051 11.925L63.1941 11.0773C65.018 10.3019 66.3328 9.04543 66.7425 7.09367L66.8519 6.63479Z" fill="white"/>
<path d="M1.3328 26.2085L0.640625 29.9457H6.72896L4.0816 44.8645L5.91546 46.5757L8.45939 44.9867L11.1247 29.9457H17.1215L17.7818 26.2085H1.3328Z" fill="white"/>
<path d="M29.3541 37.7128L33.891 45.608H29.3541C29.3541 45.608 25.9967 39.0934 24.7336 36.1237C25.4457 35.9053 26.7923 35.3362 27.2776 35.1218C27.3929 35.0757 27.4586 35.0436 27.4586 35.0436L27.747 34.9013C28.7852 34.3403 29.3541 33.3403 29.3541 31.8956C29.3541 30.2925 28.2005 29.507 26.3229 29.507H24.0435L23.0231 35.3362L23.0052 35.3743L22.3966 38.8229L22.0783 40.6785L21.2211 45.604H16.8154L20.2166 26.2046H26.7405C30.7007 26.2046 33.9169 27.7596 33.9169 31.4988C33.9169 34.717 32.0233 36.5946 29.3541 37.7128Z" fill="white"/>
<path d="M50.3395 26.1763H46.1805L34.9287 45.6137H39.939L41.2338 43.0568L42.0294 41.4878L43.7857 38.0471L44.4521 36.7246L47.5788 30.5387L48.6667 36.7246L48.8975 38.0471L49.4942 41.4878L49.7706 43.1089L50.2062 45.6137H54.9938L50.3395 26.1763Z" fill="white"/>
<path d="M72.1077 26.2085L70.0133 38.2858L63.5808 26.2085H59.4835L56.0684 45.6079H60.3049L62.5605 32.695L69.16 45.6079H72.9271L76.3423 26.2085H72.1077Z" fill="white"/>
<path d="M81.5188 31.3085C81.5188 30.1062 82.5452 29.3387 83.9733 29.3387C85.7872 29.3387 86.7579 30.4489 87.1397 32.1922L90.9328 31.3085C90.2406 27.5894 87.6907 25.9302 83.9235 25.9302C80.1564 25.9302 77.2325 28.2286 77.2325 31.7414C77.2325 36.8472 85.3457 36.9775 85.3457 40.0314C85.3457 41.3339 84.3074 42.3358 82.6546 42.3358C80.4826 42.3358 79.3548 40.9471 78.8038 38.8952L75.0605 40.0975C75.528 43.8327 78.06 45.8886 82.4039 45.8886C86.5808 45.8886 89.6956 43.5081 89.6956 39.5103C89.7036 33.9096 81.5188 33.9416 81.5188 31.3085Z" fill="white"/>
<path d="M11.4447 45.8442L11.0151 50.3449L5.0998 54.038L0 49.2728L0.429624 44.7661L3.55633 47.6918L5.52942 49.5313L7.90032 48.0524L11.4447 45.8442Z" fill="#27D110"/>
<path d="M136 24.2248C134.936 25.3109 132.99 27.1805 131.425 28.6554H109.484L130.796 29.2565C129.852 30.1522 129.307 30.6592 129.138 30.8115L128.619 31.2604C127.412 32.3211 126.203 33.3324 124.993 34.2942H111.449L124.378 34.7531C122.338 36.3733 120.214 37.8817 118.013 39.2718L117.506 39.5824C110.459 43.9649 102.769 47.0588 93.2282 49.2731L89.5625 50.1247C89.5625 50.1247 105.562 41.0412 95.2331 24.2168L136 24.2248Z" fill="#27D110"/>
<path d="M119.66 21.6579L105.673 11.7368H95.768L94.3379 21.6579H119.66Z" fill="#27D110"/>
<path d="M104.192 10.1574H95.9316L96.3911 6.73682C99.1483 7.47242 101.779 8.62578 104.192 10.1574Z" fill="#27D110"/>
<g opacity="0.8">
<path d="M107.127 38.1817L105.445 38.5284C105.425 38.5316 105.404 38.5273 105.387 38.5163L104.918 38.2518L104.438 37.9813C104.42 37.9813 104.402 37.9613 104.385 37.9813C104.367 38.0014 104.385 38.0134 104.385 38.0314L104.838 38.7207L105.152 39.1977C105.182 39.2397 105.18 39.2437 105.136 39.2718L104.601 39.6064L103.497 40.2998L103.132 40.5302C103.116 40.5402 103.102 40.5463 103.088 40.5302C103.074 40.5142 103.088 40.5002 103.1 40.4881L103.368 40.2777C103.513 40.1615 103.663 40.0473 103.804 39.9271C103.991 39.7688 104.184 39.6205 104.373 39.4662C104.484 39.374 104.595 39.2858 104.709 39.1957C104.714 39.1928 104.718 39.1889 104.722 39.1843C104.725 39.1796 104.727 39.1743 104.729 39.1687C104.73 39.163 104.73 39.1572 104.729 39.1515C104.728 39.1458 104.726 39.1403 104.723 39.1355L104.468 38.6646L104.07 37.9092L103.555 36.9493L103.189 36.27L102.801 35.5506C102.793 35.5333 102.779 35.5196 102.762 35.5126C102.749 35.5077 102.735 35.5065 102.722 35.5092C102.709 35.5119 102.696 35.5184 102.686 35.5278C102.677 35.5373 102.67 35.5493 102.667 35.5626C102.663 35.5759 102.664 35.5898 102.668 35.6027C102.688 35.6769 102.702 35.751 102.72 35.8252L103.257 38.1737C103.267 38.2158 103.257 38.2278 103.213 38.2178L103.014 38.1557L102.67 38.0474C102.575 38.0194 102.471 37.9933 102.386 37.9633L102.042 37.8571L101.691 37.7529C101.644 37.7388 101.618 37.7529 101.596 37.7829C101.574 37.813 101.584 37.8451 101.62 37.8771L102.445 38.6346L103.593 39.6866C103.604 39.6936 103.613 39.7034 103.62 39.715C103.626 39.7265 103.629 39.7395 103.629 39.7527C103.629 39.7659 103.626 39.7789 103.62 39.7905C103.613 39.8021 103.604 39.8118 103.593 39.8189L102.857 40.42L102.314 40.8549L101.658 41.3859L101.417 41.5863L101.761 41.7325L102.63 41.3318L104.661 40.3839L105.705 39.895C105.722 39.8894 105.736 39.8798 105.748 39.8671C105.76 39.8544 105.769 39.839 105.773 39.8221C105.778 39.8053 105.778 39.7876 105.774 39.7706C105.77 39.7536 105.762 39.7378 105.751 39.7247C105.671 39.6024 105.592 39.4802 105.51 39.36C105.492 39.3339 105.494 39.3179 105.522 39.2999L106.622 38.6105L107.201 38.2478C107.2 38.2405 107.2 38.2331 107.201 38.2258C107.183 38.1717 107.155 38.1757 107.127 38.1817ZM103.428 37.9553C103.338 37.5545 103.245 37.1657 103.155 36.769C103.154 36.763 103.154 36.7569 103.155 36.7509C103.155 36.7269 103.155 36.7209 103.177 36.7189C103.199 36.7169 103.199 36.7189 103.205 36.7349C103.239 36.797 103.273 36.8612 103.307 36.9213C103.442 37.1778 103.579 37.4323 103.716 37.6868C103.874 37.978 104.031 38.2699 104.186 38.5624L104.446 39.0474C104.476 39.1035 104.484 39.1035 104.43 39.1456L103.875 39.5924C103.832 39.6265 103.82 39.6205 103.806 39.5664C103.677 39.0293 103.551 38.4923 103.428 37.9553ZM103.189 39.0494L102.296 38.2258C102.285 38.2187 102.277 38.2081 102.272 38.1957C102.272 38.1917 102.272 38.1876 102.273 38.1838C102.274 38.1799 102.276 38.1763 102.279 38.1732C102.282 38.1702 102.285 38.1678 102.288 38.1661C102.292 38.1645 102.296 38.1636 102.3 38.1637L102.519 38.2318L102.736 38.2959L102.962 38.3661L103.177 38.4302L103.313 38.4703C103.332 38.4703 103.332 38.4943 103.336 38.5103C103.384 38.7107 103.43 38.9111 103.476 39.1115C103.488 39.1596 103.499 39.2097 103.509 39.2578C103.509 39.2738 103.523 39.2898 103.509 39.3019C103.495 39.3139 103.476 39.3019 103.464 39.2878L103.189 39.0494ZM105.496 39.7227C105.496 39.7427 105.479 39.7467 105.467 39.7527L104.995 39.9732L103.404 40.7126L103.139 40.8368C103.128 40.8368 103.112 40.8508 103.102 40.8368C103.092 40.8228 103.09 40.8028 103.102 40.7887L103.37 40.6204L104.062 40.1836L105.256 39.4381C105.282 39.4221 105.298 39.4201 105.315 39.4501C105.367 39.5323 105.423 39.6145 105.477 39.6946C105.488 39.7046 105.496 39.7127 105.492 39.7227H105.496ZM106.121 38.6426C106.121 38.6546 106.121 38.6606 106.103 38.6646L105.399 39.1055C105.373 39.1235 105.359 39.1175 105.343 39.0935L105.033 38.6226C105.033 38.6085 105.017 38.5925 105.033 38.5785C105.049 38.5644 105.061 38.5785 105.077 38.5785L105.331 38.7207C105.369 38.7434 105.414 38.7505 105.457 38.7408L106.083 38.6125C106.105 38.6085 106.123 38.6185 106.117 38.6426H106.121Z" fill="white"/>
</g>
<g opacity="0.8">
<path d="M98.3859 45.1994L97.8071 45.3256C97.7812 45.4759 97.7693 45.552 97.7415 45.7023L97.5107 45.7504C97.6162 45.1873 97.6659 44.9048 97.7594 44.3477L98.0279 44.2876C98.3421 44.7625 98.5033 44.999 98.8235 45.4679L98.5928 45.52L98.3859 45.1994ZM98.2646 45.019L97.9384 44.522C97.9006 44.7565 97.8827 44.8747 97.8429 45.1092C98.012 45.0751 98.0955 45.0551 98.2566 45.019H98.2646Z" fill="white"/>
<path d="M99.8163 45.0112L99.868 45.2115C99.5378 45.2957 99.3747 45.3378 99.0446 45.4119L98.7402 44.1194L98.9511 44.0693C99.0545 44.5062 99.1082 44.7246 99.2116 45.1594C99.4503 45.1033 99.5756 45.0733 99.8163 45.0112Z" fill="white"/>
<path d="M101.395 43.8547C101.414 43.9134 101.42 43.9756 101.414 44.037C101.407 44.0984 101.387 44.1577 101.356 44.2107C101.324 44.2637 101.282 44.3093 101.231 44.3443C101.181 44.3794 101.123 44.403 101.063 44.4137L100.738 44.5079C100.786 44.6803 100.81 44.7664 100.86 44.9408L100.645 44.9989C100.506 44.4879 100.436 44.2314 100.295 43.7204C100.506 43.6623 100.611 43.6322 100.82 43.5701C100.876 43.5466 100.936 43.5354 100.997 43.5373C101.058 43.5392 101.117 43.5541 101.171 43.5811C101.226 43.608 101.274 43.6464 101.313 43.6935C101.351 43.7407 101.379 43.7957 101.395 43.8547ZM101.184 43.9208C101.176 43.8883 101.161 43.8579 101.14 43.8319C101.119 43.8059 101.092 43.7849 101.062 43.7704C101.032 43.7558 101 43.7481 100.966 43.7478C100.933 43.7475 100.9 43.7546 100.87 43.7685C100.744 43.8066 100.683 43.8246 100.557 43.8587L100.683 44.3095L100.999 44.2194C101.032 44.2149 101.064 44.2031 101.092 44.1849C101.12 44.1667 101.144 44.1424 101.161 44.1139C101.179 44.0854 101.19 44.0533 101.194 44.0199C101.198 43.9865 101.195 43.9527 101.184 43.9208Z" fill="white"/>
<path d="M102.569 43.021C102.736 43.524 102.821 43.7744 102.989 44.2774L102.778 44.3496L102.599 43.7985L101.938 44.0129C102.006 44.2333 102.04 44.3435 102.109 44.566L101.899 44.6321L101.511 43.3637L101.71 43.2995C101.773 43.4999 101.807 43.6101 101.871 43.8165L102.527 43.6041C102.461 43.4037 102.428 43.2935 102.36 43.0891L102.569 43.021Z" fill="white"/>
<path d="M104.337 43.0832C104.389 43.2136 104.401 43.3568 104.372 43.4942C104.343 43.6317 104.273 43.7571 104.173 43.8546C104.072 43.952 103.945 44.0169 103.807 44.0409C103.67 44.065 103.528 44.0471 103.401 43.9896C103.274 43.9321 103.166 43.8375 103.093 43.7181C103.019 43.5987 102.983 43.4598 102.988 43.3193C102.993 43.1788 103.04 43.0431 103.122 42.9296C103.205 42.8162 103.319 42.7301 103.45 42.6824C103.534 42.6487 103.624 42.6324 103.715 42.6344C103.806 42.6365 103.895 42.6567 103.978 42.6941C104.06 42.7315 104.135 42.7851 104.196 42.852C104.258 42.9188 104.306 42.9974 104.337 43.0832ZM103.227 43.4839C103.259 43.5741 103.316 43.6528 103.392 43.7101C103.468 43.7674 103.559 43.8006 103.654 43.8056C103.749 43.8107 103.843 43.7872 103.925 43.7383C104.006 43.6894 104.072 43.6171 104.112 43.5308C104.153 43.4444 104.167 43.3478 104.154 43.2532C104.14 43.1586 104.099 43.0703 104.035 42.9994C103.971 42.9285 103.888 42.8782 103.796 42.8549C103.704 42.8317 103.607 42.8365 103.518 42.8688C103.457 42.8888 103.4 42.9212 103.352 42.9641C103.304 43.007 103.265 43.0594 103.238 43.1181C103.211 43.1768 103.197 43.2404 103.195 43.3051C103.193 43.3697 103.205 43.434 103.229 43.494L103.227 43.4839Z" fill="white"/>
<path d="M104.621 42.4822L104.746 42.8028C104.973 42.7126 105.089 42.6666 105.315 42.5724L105.391 42.7627C105.164 42.8569 105.049 42.903 104.82 42.9932L104.953 43.3379C105.202 43.2397 105.327 43.1896 105.576 43.0874L105.651 43.2757C105.321 43.412 105.154 43.4761 104.822 43.6084C104.623 43.1134 104.538 42.8649 104.347 42.37C104.671 42.2437 104.832 42.1796 105.154 42.0474L105.23 42.2377C104.977 42.3459 104.856 42.394 104.621 42.4822Z" fill="white"/>
<path d="M106.372 41.5283C106.587 42.0133 106.694 42.2557 106.907 42.7306L106.668 42.8368C106.254 42.5723 106.05 42.4361 105.646 42.1635L105.845 42.5884C105.93 42.7887 105.974 42.895 106.06 43.1014L105.861 43.1855L105.355 41.9591L105.59 41.861C105.988 42.1355 106.187 42.2617 106.609 42.5343L106.41 42.1134C106.32 41.9131 106.276 41.8089 106.187 41.6045L106.372 41.5283Z" fill="white"/>
<path d="M106.646 41.4041L106.845 41.314C107.066 41.7969 107.176 42.0374 107.394 42.5163L107.195 42.6085L106.646 41.4041Z" fill="white"/>
<path d="M108.4 42.0354C108.202 41.9112 108.094 41.849 107.893 41.7228C107.865 41.9593 107.851 42.0775 107.822 42.324L107.585 42.4362C107.633 42.1116 107.655 41.9492 107.696 41.6346C107.434 41.4743 107.299 41.3942 107.046 41.2339L107.279 41.1236L107.748 41.4242C107.774 41.1998 107.786 41.0896 107.808 40.8672L108.036 40.7529C108.003 41.0635 107.985 41.2178 107.945 41.5284C108.219 41.6947 108.357 41.7749 108.635 41.9292L108.4 42.0354Z" fill="white"/>
<path d="M110.175 40.3039L110.517 40.9211L110.35 41.0153L110.223 40.7829C110.229 40.8854 110.204 40.9876 110.151 41.0754C110.098 41.1632 110.02 41.2325 109.926 41.2738C109.848 41.319 109.761 41.3475 109.672 41.3576C109.582 41.3677 109.491 41.3591 109.405 41.3324C109.319 41.3058 109.239 41.2616 109.17 41.2025C109.101 41.1435 109.045 41.0709 109.006 40.9893C108.962 40.9091 108.935 40.8209 108.926 40.73C108.917 40.6391 108.927 40.5473 108.954 40.4602C108.981 40.373 109.025 40.2922 109.084 40.2227C109.143 40.1531 109.215 40.0963 109.296 40.0555C109.417 39.9837 109.558 39.9533 109.698 39.9688C109.838 39.9843 109.969 40.045 110.072 40.1416L109.873 40.2558C109.804 40.2065 109.722 40.1783 109.637 40.1748C109.552 40.1712 109.468 40.1924 109.395 40.2358C109.338 40.2638 109.287 40.3034 109.246 40.3521C109.205 40.4008 109.174 40.4576 109.155 40.5188C109.136 40.5801 109.13 40.6446 109.137 40.7083C109.145 40.772 109.165 40.8335 109.197 40.8891C109.223 40.947 109.262 40.9986 109.309 41.0405C109.357 41.0825 109.413 41.114 109.474 41.1329C109.534 41.1518 109.598 41.1576 109.661 41.1502C109.724 41.1427 109.784 41.122 109.839 41.0895C109.934 41.0466 110.009 40.9697 110.051 40.8737C110.093 40.7778 110.097 40.6696 110.064 40.5705L109.616 40.8149C109.582 40.7508 109.566 40.7187 109.531 40.6546C109.793 40.5184 109.923 40.4482 110.175 40.3039Z" fill="white"/>
<path d="M110.917 40.1214L110.736 40.2276L110.98 40.6564L110.781 40.7667L110.131 39.6124C110.33 39.5042 110.417 39.4481 110.606 39.3359C110.653 39.3018 110.706 39.2781 110.763 39.2661C110.819 39.2542 110.877 39.2544 110.933 39.2667C110.99 39.279 111.043 39.3031 111.089 39.3375C111.136 39.3718 111.174 39.4157 111.203 39.4662C111.257 39.5476 111.278 39.6471 111.262 39.7438C111.245 39.8405 111.192 39.9269 111.113 39.9852C111.354 40.0753 111.475 40.1214 111.71 40.2096L111.475 40.3499C111.265 40.2617 111.147 40.2156 110.917 40.1214ZM110.64 40.0633L110.915 39.903C111.07 39.8128 111.094 39.6906 111.03 39.5804C110.966 39.4702 110.847 39.4361 110.696 39.5243L110.425 39.6826L110.64 40.0633Z" fill="white"/>
<path d="M112.676 38.8352C112.755 38.9517 112.798 39.0893 112.799 39.2304C112.799 39.3715 112.758 39.5096 112.681 39.6269C112.603 39.7442 112.492 39.8354 112.362 39.8888C112.233 39.9422 112.09 39.9554 111.953 39.9265C111.816 39.8977 111.691 39.8282 111.593 39.727C111.496 39.6259 111.43 39.4976 111.406 39.3587C111.381 39.2198 111.398 39.0767 111.455 38.9477C111.511 38.8187 111.605 38.7097 111.724 38.6348C111.799 38.5836 111.884 38.5481 111.973 38.5304C112.062 38.5128 112.153 38.5133 112.242 38.532C112.331 38.5507 112.415 38.5871 112.49 38.6392C112.564 38.6913 112.628 38.7579 112.676 38.8352ZM111.682 39.4704C111.732 39.5518 111.804 39.6165 111.891 39.6563C111.977 39.6961 112.073 39.7092 112.167 39.694C112.26 39.6787 112.347 39.6358 112.417 39.5707C112.486 39.5055 112.535 39.4211 112.557 39.328C112.579 39.235 112.572 39.1375 112.539 39.0479C112.506 38.9584 112.447 38.8808 112.37 38.825C112.293 38.7693 112.201 38.7378 112.106 38.7346C112.011 38.7314 111.918 38.7566 111.837 38.8071C111.781 38.8388 111.732 38.8817 111.694 38.9332C111.655 38.9847 111.627 39.0437 111.612 39.1065C111.597 39.1692 111.595 39.2345 111.606 39.2981C111.617 39.3618 111.641 39.4224 111.676 39.4764L111.682 39.4704Z" fill="white"/>
<path d="M113.422 37.5327L113.874 38.188C113.914 38.2482 113.942 38.3159 113.957 38.3871C113.971 38.4584 113.972 38.5318 113.958 38.6031C113.944 38.6745 113.916 38.7424 113.877 38.803C113.837 38.8637 113.785 38.9158 113.726 38.9565C113.666 38.9971 113.599 39.0255 113.528 39.04C113.457 39.0545 113.384 39.0548 113.314 39.041C113.243 39.0271 113.175 38.9993 113.115 38.9592C113.055 38.9191 113.003 38.8674 112.963 38.8072L112.529 38.1399L112.71 38.0176L113.142 38.6729C113.164 38.7135 113.194 38.7491 113.23 38.7773C113.266 38.8055 113.308 38.8258 113.353 38.8367C113.397 38.8477 113.443 38.8492 113.488 38.841C113.534 38.8329 113.576 38.8153 113.614 38.7894C113.652 38.7636 113.685 38.73 113.709 38.6908C113.733 38.6517 113.749 38.6078 113.755 38.5621C113.762 38.5164 113.759 38.4698 113.746 38.4254C113.734 38.381 113.712 38.3397 113.683 38.3042L113.241 37.657L113.422 37.5327Z" fill="white"/>
<path d="M114.751 37.1097C114.789 37.1585 114.816 37.2148 114.83 37.2749C114.844 37.335 114.845 37.3976 114.833 37.4582C114.821 37.5188 114.797 37.5762 114.761 37.6263C114.725 37.6765 114.679 37.7183 114.626 37.749L114.351 37.9493L114.61 38.316L114.429 38.4463C114.124 38.0115 113.973 37.793 113.669 37.3602L114.114 37.0396C114.159 36.9983 114.212 36.9671 114.27 36.9481C114.327 36.9291 114.388 36.9227 114.449 36.9293C114.509 36.9359 114.567 36.9555 114.619 36.9866C114.671 37.0177 114.716 37.0597 114.751 37.1097ZM114.574 37.244C114.556 37.216 114.531 37.1924 114.503 37.175C114.474 37.1576 114.442 37.1468 114.409 37.1433C114.376 37.1399 114.343 37.1439 114.311 37.155C114.28 37.1662 114.251 37.1843 114.228 37.2079L113.963 37.3983C114.071 37.5526 114.124 37.6287 114.234 37.781L114.5 37.5806C114.528 37.5645 114.553 37.5425 114.572 37.5161C114.591 37.4896 114.604 37.4594 114.61 37.4275C114.616 37.3955 114.615 37.3626 114.608 37.3309C114.6 37.2992 114.586 37.2696 114.566 37.244H114.574Z" fill="white"/>
</g>
</svg>
