<svg width="315" height="184" viewBox="0 0 315 184" fill="none" xmlns="http://www.w3.org/2000/svg">
<g clip-path="url(#clip0_16_9294)">
<path d="M196.102 107.613C196.041 107.916 195.883 108.013 195.578 108.093C194.792 108.305 194.35 107.545 193.635 107.465C192.047 107.288 190.476 106.945 189.046 106.093C187.987 105.464 186.607 106.15 185.592 105.247C183.644 105.487 181.783 104.727 179.868 104.55C177.865 104.361 175.802 104.47 173.865 104.052C169.156 103.04 164.43 103.824 159.721 103.572C158.75 103.521 158.335 103.492 158.051 102.2C157.773 100.926 157.026 99.4337 155.552 98.8221C155.399 98.7592 155.274 98.4619 155.159 98.4734C152.453 98.7878 151.956 96.4213 151.078 94.6836C148.769 90.128 146.685 85.4523 144.328 80.9309C141.725 75.9408 139.231 70.8935 136.879 65.7719C136.77 65.5376 136.426 65.4461 136.497 65.086C136.53 64.9031 136.432 64.6345 136.524 64.543C136.612 64.4515 136.895 64.4573 137.043 64.5316C137.643 64.8402 138.347 65.0632 138.794 65.5433C140.142 66.9895 141.91 67.7897 143.395 69.0244C145.735 70.9735 148.289 72.6426 150.734 74.4375C153.664 76.5867 156.589 78.7531 159.536 80.8851C160.802 81.8054 162.062 82.7314 163.317 83.6574C164.501 84.532 165.696 85.3837 166.88 86.2696C170.406 88.9162 174.1 91.3055 177.619 93.9577C179.911 95.684 182.312 97.2444 184.55 99.0621C187.032 101.08 189.723 102.818 192.331 104.675C193.52 105.521 194.486 106.739 195.971 107.116C196.052 107.139 196.058 107.442 196.102 107.613Z" fill="#7F2B70"/>
<path d="M118.096 110.151C118.462 108.848 118.762 107.379 119.286 106.001C120.492 102.834 121.201 99.4791 122.462 96.3582C124.322 91.7682 125.49 86.9439 127.204 82.3082C127.886 80.4676 128.704 78.6213 129.086 76.6036C129.435 74.7573 130.56 73.0882 131.04 71.2533C131.547 69.3042 132.453 67.4979 132.742 65.4744C132.824 64.8971 133.435 64.9086 133.741 65.3487C134.183 65.9832 134.527 66.6977 134.87 67.395C136.507 70.7389 138.024 74.1457 139.771 77.421C143.323 84.0687 146.373 90.9622 149.691 97.7243C150.084 98.5188 150.007 98.8104 149.511 99.3191C148.638 100.211 147.743 100.971 147.792 102.572C147.819 103.526 146.39 104.103 145.604 104.035C143.792 103.869 142.161 104.864 140.409 104.658C139.47 104.544 138.805 105.195 137.937 105.332C135.874 105.664 133.855 106.361 131.815 106.887C129.768 107.413 127.793 108.162 125.818 108.865C123.7 109.619 121.452 110.065 119.499 111.363C118.609 111.946 118.004 111.403 118.096 110.151Z" fill="#050505"/>
<path d="M118.752 113.729C119.445 113.912 120.301 113.352 120.967 114.164C121.218 114.467 121.556 114.141 121.884 114.049C123.401 113.626 124.929 113.163 126.287 114.609C126.773 115.124 126.62 114.375 126.762 114.181C127.237 113.541 128.17 113.518 128.339 114.186C128.486 114.792 129.179 115.164 128.934 115.918C128.803 116.313 129.158 116.959 128.563 117.096C127.679 117.302 127.832 116.553 127.843 116.027C127.853 115.513 127.57 115.387 127.177 115.433C126.893 115.467 126.713 115.638 126.746 115.993C126.773 116.273 126.762 116.559 126.751 116.839C126.675 118.473 126.609 118.536 124.929 118.816C124.678 118.856 124.328 118.822 124.197 118.976C123.903 119.319 124.094 120.274 123.281 119.914C122.675 119.651 123.095 118.908 122.953 118.405C122.713 117.553 122.168 116.77 122.429 115.821C122.473 115.667 122.615 115.461 122.74 115.438C122.986 115.387 123.461 115.387 123.423 115.644C123.313 116.381 124.088 116.644 124.105 117.365C124.116 117.873 124.847 117.685 125.256 117.662C125.753 117.633 125.671 117.187 125.676 116.822C125.698 115.295 125.332 114.895 123.843 114.855C123.395 114.844 122.942 114.867 122.495 114.849C122.042 114.832 121.873 115.055 121.878 115.507C121.889 116.444 121.889 117.387 121.878 118.325C121.873 118.639 121.704 118.799 121.376 118.816C121.054 118.839 120.874 118.691 120.803 118.399C120.76 118.233 120.82 118.033 120.792 117.85C120.656 116.976 121.169 115.987 120.339 115.227C119.554 114.501 118.632 114.998 117.78 114.872C117.431 114.821 117.044 114.918 117.005 114.381C116.956 113.661 117.442 113.723 117.889 113.729C117.977 113.729 118.069 113.729 118.157 113.729C118.337 113.729 118.517 113.729 118.752 113.729Z" fill="#050505"/>
<path d="M131.237 113.73C133.578 113.724 134.194 114.507 134.396 116.953C134.494 118.165 133.725 118.268 133.141 118.634C132.099 119.286 131.144 118.594 130.233 118.182C129.338 117.776 129.441 116.839 129.463 115.999C129.463 115.907 129.463 115.81 129.463 115.719C129.458 113.735 129.458 113.735 131.237 113.73ZM132.072 117.691C132.639 117.656 133.321 117.937 133.277 116.822C133.223 115.324 132.89 114.873 131.466 114.867C131.062 114.867 130.407 114.747 130.582 115.444C130.746 116.102 131.177 116.656 131.155 117.434C131.144 117.794 131.733 117.662 132.072 117.691Z" fill="#050505"/>
<path d="M174.607 113.73C175.617 113.587 175.922 114.553 176.495 115.067C177.248 115.742 177.074 115.05 177.134 114.661C177.177 114.398 177.177 114.113 177.286 113.884C177.336 113.781 177.592 113.724 177.745 113.747C177.898 113.764 178.132 113.872 178.165 113.987C178.236 114.244 178.312 114.61 178.198 114.798C177.494 115.959 177.407 116.953 178.607 117.845C178.923 118.079 178.853 118.565 178.503 118.771C178.17 118.965 177.821 118.794 177.592 118.451C177.21 117.868 176.844 117.268 176.435 116.702C176.353 116.593 176.124 116.559 175.96 116.565C175.66 116.57 175.568 116.771 175.48 117.079C175.311 117.674 176.102 118.845 174.847 118.76C173.963 118.697 174.705 117.594 174.394 117.148C173.756 116.245 173.898 115.256 173.876 114.267C173.876 113.712 174.247 113.735 174.607 113.73ZM175.437 115.793C175.377 115.673 175.311 115.553 175.246 115.427C175.186 115.49 175.066 115.564 175.076 115.616C175.104 115.747 175.186 115.867 175.246 115.993C175.3 115.93 175.36 115.867 175.437 115.793Z" fill="#050505"/>
<path d="M189.341 113.729C189.979 113.901 190.689 113.449 191.332 114.09C192.156 114.907 192.724 117.09 192.151 118.097C191.895 118.548 191.485 119 190.841 118.817C190.601 118.748 190.236 118.697 190.17 118.537C190.045 118.211 190.056 117.725 190.536 117.708C191.693 117.668 191.065 116.782 191.207 116.273C191.403 115.57 190.83 115.244 190.438 114.947C189.865 114.507 189.068 115.021 189.046 115.782C189.03 116.342 189.073 116.902 189.035 117.462C189.002 117.902 189.275 118.617 188.817 118.697C188.462 118.76 187.84 118.188 187.987 117.582C188.233 116.582 187.409 115.924 187.398 115.01C187.382 113.878 187.409 113.764 188.506 113.735C188.784 113.724 189.052 113.729 189.341 113.729Z" fill="#7F2B70"/>
<path d="M139.214 114.861C139.214 115.604 139.236 116.353 139.209 117.096C139.171 118.302 138.783 118.748 137.714 118.817C137.272 118.845 136.813 118.885 136.377 118.805C135.711 118.691 136.038 118.091 137.042 116.936C138.117 114.81 138.117 114.895 136.857 114.832C135.585 114.77 135.995 115.678 135.973 116.301C135.924 117.776 135.946 117.696 137.288 117.708C138.581 117.719 137.997 116.776 137.048 116.936C135.7 117.685 135.291 117.799 135.193 117.668C134.658 116.965 134.772 114.684 135.313 114.129C135.842 113.581 137.413 113.558 138.199 114.084C138.549 114.318 138.674 114.884 139.214 114.861Z" fill="#050505"/>
<path d="M167.328 117.262C168.463 118.319 168.113 118.754 166.897 118.822C165.494 118.897 164.288 118.108 164.141 116.976C164.081 116.519 164.015 116.004 164.157 115.593C164.376 114.941 164.627 114.038 165.112 113.804C166.144 113.306 167.628 113.798 167.873 114.638C168.092 115.364 168.839 115.987 167.328 117.262C167.393 117.708 167.459 117.639 167.382 116.479C167.289 115.107 166.504 114.615 164.943 114.844C164.419 114.918 164.665 115.296 164.697 115.421C164.812 115.833 165.189 116.216 165.183 116.605C165.172 117.428 165.369 117.851 167.328 117.262Z" fill="#050505"/>
<path d="M150.051 116.502C150.051 116.222 150.024 116.027 150.057 115.844C150.21 114.867 149.664 114.798 148.955 114.85C148.42 114.89 147.88 114.838 147.339 114.867C146.996 114.884 146.826 114.701 146.816 114.41C146.799 114.055 146.81 113.666 146.93 113.341C147.045 113.032 147.476 113.072 147.623 113.209C147.967 113.518 148.267 113.741 148.769 113.752C149.435 113.764 150.161 113.444 150.761 114.152C151.361 114.867 151.225 115.804 151.623 116.599C152.087 117.525 151.088 118.079 150.51 118.571C149.948 119.051 149.2 118.925 148.54 118.622C148.453 118.582 148.414 118.285 148.442 118.125C148.469 117.965 148.622 117.696 148.704 117.702C149.615 117.782 150.341 117.685 150.051 116.502Z" fill="#050505"/>
<path d="M144.633 117.393C144.633 117.685 144.644 117.965 144.633 118.245C144.595 118.959 144.164 118.897 143.727 118.702C143.498 118.599 143.324 118.308 143.094 118.268C142.276 118.131 142.407 117.776 142.68 117.147C143.204 115.941 143.154 115.907 142.216 114.867C141.998 114.627 141.959 114.507 142.199 114.278C142.521 113.969 142.811 113.518 143.307 113.781C143.613 113.946 144.082 114.364 144.033 114.547C143.755 115.638 145.026 116.33 144.633 117.393Z" fill="#050505"/>
<path d="M160.845 116.913C160.692 117.279 161.309 118.125 160.474 118.222C159.322 118.36 159.868 117.331 159.819 116.816C159.672 115.17 159.513 114.976 157.947 114.856C157.516 114.821 157.02 115.079 156.676 114.678C156.55 114.53 156.529 114.05 156.643 113.953C157.156 113.518 159.344 113.741 159.917 114.118C160.927 114.781 160.976 115.759 160.845 116.913Z" fill="#050505"/>
<path d="M186.612 118.817C185.837 118.977 185.248 118.702 184.767 118.039C184.249 117.33 183.572 116.593 183.698 115.718C183.796 115.055 184.424 114.461 184.877 113.889C184.991 113.746 185.368 113.735 185.58 113.809C185.891 113.918 185.908 114.392 185.782 114.524C184.767 115.621 185.357 116.644 185.777 117.742C185.973 118.256 186.072 118.291 186.399 117.919C186.683 117.599 187.016 117.565 187.31 117.873C187.408 117.976 187.436 118.211 187.419 118.376C187.359 118.897 186.972 118.839 186.612 118.817Z" fill="#7F2B70"/>
<path d="M169.008 116.599C169.008 115.873 168.964 115.398 169.019 114.935C169.095 114.215 169.51 113.787 170.219 113.735C170.667 113.706 171.12 113.729 171.567 113.729C171.938 113.729 172.211 113.758 172.282 114.295C172.397 115.204 171.785 114.827 171.453 114.85C170.121 114.947 170.154 114.935 170.083 116.422C170.045 117.216 170.361 118.074 169.816 118.805C168.899 118.216 168.959 117.273 169.008 116.599Z" fill="#050505"/>
<path d="M153.691 117.422C153.593 117.645 154.455 118.845 153.189 118.759C152.3 118.702 152.807 117.685 152.785 117.119C152.742 116.159 152.234 115.461 151.798 114.707C151.585 114.341 151.59 113.969 151.94 113.764C152.131 113.649 152.414 113.689 152.671 113.895C153.686 114.724 154.128 115.747 153.691 117.422Z" fill="#050505"/>
<path d="M195.555 117.69C195.293 117.69 194.895 117.805 194.791 117.673C194.262 117.016 194.36 114.707 194.873 114.164C195.392 113.621 197.089 113.523 197.705 114.067C197.836 114.181 197.722 114.592 197.722 114.867C195.566 114.901 195.566 114.901 195.555 117.147C195.555 117.325 195.555 117.508 195.555 117.69Z" fill="#7F2B70"/>
<path d="M197.722 114.861C197.983 114.861 198.382 114.747 198.485 114.878C199.015 115.536 198.917 117.845 198.404 118.388C197.885 118.931 196.188 119.028 195.572 118.485C195.441 118.371 195.555 117.959 195.555 117.685C197.711 117.65 197.711 117.65 197.722 115.404C197.727 115.227 197.722 115.044 197.722 114.861Z" fill="#7F2B70"/>
<path d="M181.472 115.804C181.472 115.433 181.472 115.056 181.472 114.684C181.472 114.33 181.379 113.901 181.794 113.741C182.17 113.598 182.454 113.855 182.699 114.152C182.934 114.432 183.218 114.673 183.452 114.953C184.042 115.656 183.332 115.421 183.109 115.416C182.77 115.41 182.612 115.576 182.568 115.867C182.53 116.142 182.596 116.433 182.552 116.707C182.443 117.411 182.836 118.182 182.285 118.822C181.384 118.234 181.412 117.308 181.472 116.37C181.483 116.182 181.472 115.993 181.472 115.804Z" fill="#7F2B70"/>
<path d="M146.832 117.456C146.788 117.891 146.782 118.268 146.701 118.617C146.673 118.72 146.411 118.805 146.259 118.805C146.106 118.805 145.855 118.725 145.817 118.611C145.729 118.365 145.713 118.074 145.724 117.805C145.768 116.582 145.838 115.376 144.665 114.57C144.551 114.495 144.512 113.981 144.818 113.85C145.025 113.758 145.396 113.724 145.527 113.85C146.531 114.838 146.624 116.199 146.832 117.456Z" fill="#050505"/>
<path d="M161.876 113.735C162.192 113.661 162.351 113.906 162.563 114.055C163.6 114.775 162.574 116.198 163.557 117.033C163.933 117.353 162.978 117.799 163.016 118.433C163.044 118.874 162.542 118.902 162.209 118.765C161.914 118.651 161.86 118.216 161.985 118.056C163.126 116.633 162.503 115.558 161.439 114.524C161.358 114.444 161.39 114.141 161.467 113.998C161.538 113.866 161.74 113.815 161.876 113.735Z" fill="#050505"/>
<path d="M158.171 117.959C158.193 118.308 158.248 118.702 157.789 118.817C157.386 118.92 157.14 118.64 156.916 118.354C156.518 117.839 156.365 116.056 156.731 115.559C156.829 115.427 157.375 115.439 157.402 115.513C157.713 116.307 158.428 116.965 158.171 117.959Z" fill="#050505"/>
<path d="M172.26 116.222C172.26 115.707 172.277 115.427 172.255 115.147C172.216 114.581 172.62 114.93 172.8 114.884C172.931 114.85 173.221 114.97 173.242 115.067C173.499 116.187 173.068 117.451 173.87 118.474C173.881 118.485 173.673 118.76 173.532 118.811C173.379 118.863 173.068 118.84 173.035 118.76C172.68 117.868 171.862 117.108 172.26 116.222Z" fill="#050505"/>
<path d="M141.381 115.747C141.381 116.027 141.408 116.313 141.37 116.593C141.348 116.759 141.239 116.908 141.168 117.068C140.977 116.908 140.797 116.73 140.595 116.593C139.946 116.176 140.644 115.29 140.027 114.861C139.776 114.69 139.28 115.244 139.247 114.581C139.242 114.501 139.673 114.33 139.913 114.313C141.381 114.198 141.381 114.204 141.381 115.747Z" fill="#050505"/>
<path d="M118.626 117.679C118.626 117.953 118.691 118.256 118.61 118.502C118.511 118.805 118.277 118.811 118.08 118.531C117.884 118.251 117.436 118.108 117.551 117.656C117.687 117.102 117.114 116.347 117.96 115.993C118.037 115.959 118.146 115.964 118.222 115.993C118.948 116.273 118.5 116.925 118.62 117.399C118.648 117.49 118.626 117.588 118.626 117.679Z" fill="#050505"/>
<path d="M136.262 64.5257C136.18 64.4114 136.005 64.2742 136.027 64.1942C136.093 63.977 136.256 63.937 136.344 64.0856C136.42 64.2171 136.447 64.3771 136.502 64.52C136.426 64.5257 136.344 64.5257 136.262 64.5257Z" fill="#7F2B70"/>
</g>
<defs>
<clipPath id="clip0_16_9294">
<rect width="81.8462" height="56" fill="white" transform="translate(117 64)"/>
</clipPath>
</defs>
</svg>
