<svg width="40" height="40" viewBox="0 0 40 40" fill="none" xmlns="http://www.w3.org/2000/svg">
<rect width="40" height="40" rx="20" fill="white" fill-opacity="0.1"/>
<rect x="0.5" y="0.5" width="39" height="39" rx="19.5" stroke="#27D110" stroke-opacity="0.1"/>
<path d="M12.3137 17.2893C12.8928 14.8205 14.8205 12.8928 17.2893 12.3137C19.0722 11.8954 20.9278 11.8954 22.7107 12.3137C25.1796 12.8928 27.1072 14.8205 27.6863 17.2893C28.1046 19.0722 28.1046 20.9278 27.6863 22.7107C27.1072 25.1795 25.1796 27.1072 22.7107 27.6863C20.9278 28.1046 19.0722 28.1046 17.2893 27.6863C14.8205 27.1072 12.8928 25.1796 12.3137 22.7107C11.8954 20.9278 11.8954 19.0722 12.3137 17.2893Z" stroke="#27D110" stroke-width="1.5"/>
<rect x="17" y="17" width="6" height="6" rx="3" stroke="#27D110" stroke-width="1.5"/>
<circle cx="24" cy="16" r="1" fill="#27D110"/>
</svg>
