<svg width="40" height="40" viewBox="0 0 40 40" fill="none" xmlns="http://www.w3.org/2000/svg">
<rect width="40" height="40" rx="20" fill="white" fill-opacity="0.1"/>
<rect x="0.5" y="0.5" width="39" height="39" rx="19.5" stroke="#27D110" stroke-opacity="0.1"/>
<g clip-path="url(#clip0_16_10843)">
<path d="M23.6493 21.5873C23.4516 21.4881 22.477 21.008 22.2954 20.9424C22.1137 20.876 21.9817 20.8432 21.8497 21.0416C21.7176 21.2393 21.3375 21.6865 21.2215 21.8186C21.1063 21.9506 20.9903 21.9666 20.7926 21.8674C20.2085 21.6349 19.6694 21.3023 19.1995 20.8848C18.766 20.4841 18.3944 20.0214 18.0968 19.5117C17.9816 19.3132 18.0848 19.206 18.1841 19.1076C18.2729 19.0188 18.3825 18.8763 18.4809 18.7603C18.5624 18.6601 18.6293 18.5489 18.6794 18.4298C18.7057 18.3751 18.718 18.3147 18.7151 18.2541C18.7121 18.1934 18.6941 18.1345 18.6626 18.0826C18.6129 17.9833 18.2169 17.0079 18.052 16.611C17.8912 16.2254 17.728 16.2774 17.6055 16.271C17.4903 16.2654 17.3583 16.2638 17.2262 16.2638C17.1258 16.2666 17.027 16.2901 16.9362 16.3329C16.8453 16.3758 16.7642 16.4369 16.6981 16.5126C16.4741 16.7248 16.2967 16.9813 16.1773 17.2657C16.0578 17.5502 15.9989 17.8565 16.0044 18.165C16.0686 18.9125 16.3498 19.625 16.8134 20.215C17.6631 21.4889 18.8295 22.52 20.1981 23.2069C20.5673 23.3655 20.9444 23.5049 21.3279 23.6246C21.7323 23.7473 22.1598 23.7739 22.5762 23.7022C22.852 23.6463 23.1133 23.5338 23.3434 23.3719C23.5736 23.2099 23.7676 23.002 23.9133 22.7612C24.0433 22.4651 24.0834 22.1373 24.0285 21.8186C23.9797 21.7354 23.8477 21.6865 23.6493 21.5873ZM25.6433 14.3225C24.2829 12.9625 22.4747 12.1432 20.5553 12.0171C18.6358 11.891 16.736 12.4667 15.2094 13.637C13.6828 14.8073 12.6335 16.4926 12.2569 18.3789C11.8803 20.2653 12.202 22.2242 13.1622 23.891L12.0371 27.9999L16.2412 26.8981C17.404 27.5312 18.7069 27.863 20.0309 27.8631H20.0341C21.6025 27.8623 23.1355 27.3966 24.4394 26.525C25.7432 25.6533 26.7595 24.4147 27.3598 22.9657C27.96 21.5167 28.1173 19.9223 27.8118 18.3839C27.5063 16.8455 26.7517 15.4322 25.6433 14.3225V14.3225ZM23.5364 25.5162C22.4867 26.1741 21.2729 26.5233 20.0341 26.5236H20.0309C18.8505 26.5235 17.6919 26.206 16.6765 25.6042L16.4357 25.4618L13.9407 26.1163L14.6065 23.6838L14.4504 23.4341C13.7579 22.3298 13.4084 21.0448 13.4462 19.7418C13.4839 18.4389 13.9072 17.1763 14.6624 16.1139C15.4177 15.0514 16.471 14.2368 17.6893 13.773C18.9075 13.3092 20.2359 13.217 21.5065 13.5082C22.7771 13.7994 23.9329 14.4607 24.8276 15.4087C25.7223 16.3567 26.3158 17.5487 26.5331 18.834C26.7504 20.1193 26.5816 21.4402 26.0482 22.6296C25.5148 23.819 24.6407 24.8235 23.5364 25.5162Z" fill="#27D110"/>
</g>
<defs>
<clipPath id="clip0_16_10843">
<rect width="15.9267" height="16" fill="white" transform="translate(12.0371 12)"/>
</clipPath>
</defs>
</svg>
