<svg width="22" height="24" viewBox="0 0 22 24" fill="none" xmlns="http://www.w3.org/2000/svg">
<path d="M5.87741 5.87698C8.67903 3.07536 13.2214 3.07536 16.023 5.87698C18.8246 8.6786 18.8246 13.2209 16.023 16.0226L12.2232 19.8223C11.5202 20.5254 10.3802 20.5254 9.67716 19.8223L5.87741 16.0226C3.07579 13.2209 3.07579 8.6786 5.87741 5.87698Z" fill="#FFB501"/>
<path d="M17.0836 4.81632C13.6962 1.42892 8.20416 1.42892 4.81675 4.81632C1.42934 8.20373 1.42935 13.6958 4.81675 17.0832L8.6165 20.883C9.90537 22.1718 11.995 22.1718 13.2839 20.883L17.0836 17.0832C20.471 13.6958 20.471 8.20373 17.0836 4.81632Z" stroke="#FFB501" stroke-opacity="0.3" stroke-width="3"/>
</svg>
