<svg width="118" height="48" viewBox="0 0 118 48" fill="none" xmlns="http://www.w3.org/2000/svg">
<g clip-path="url(#clip0_7_568)">
<path d="M15.9801 45.7305C15.9801 46.4273 15.3744 46.6886 14.8187 46.6886C13.9472 46.6886 13.5641 46.2026 13.4795 45.6591H13.9869C14.0801 46.0231 14.3199 46.2113 14.8135 46.2113C15.2329 46.2113 15.4727 46.0371 15.4727 45.7531C15.4727 45.4692 15.219 45.4048 14.6409 45.2828C14.0352 45.147 13.5641 44.9763 13.5641 44.3892C13.5641 43.7639 14.1111 43.4364 14.7082 43.4364C15.49 43.4364 15.8507 43.8458 15.9404 44.3439H15.433C15.3433 44.0827 15.131 43.9119 14.7117 43.9119C14.2923 43.9119 14.0662 44.1018 14.0662 44.3753C14.0662 44.6 14.2388 44.6714 14.7565 44.7829C15.5487 44.9588 15.9801 45.1243 15.9801 45.7305Z" fill="black"/>
<path d="M18.831 45.0755V46.6433H18.3288V45.187C18.3288 44.8055 18.1562 44.6035 17.7903 44.6035C17.3623 44.6035 17.1311 44.8874 17.1311 45.363V46.6433H16.6289V43.1751H17.1311V44.5686C17.2133 44.424 17.3331 44.3048 17.4776 44.2241C17.6221 44.1433 17.7858 44.104 17.9508 44.1105C18.4979 44.1105 18.831 44.4728 18.831 45.0755Z" fill="black"/>
<path d="M20.121 43.3598C20.1251 43.4259 20.1095 43.4917 20.0761 43.5488C20.0428 43.6059 19.9933 43.6515 19.9339 43.6798C19.8746 43.7082 19.8082 43.7179 19.7434 43.7077C19.6785 43.6975 19.6182 43.668 19.5702 43.6228C19.5222 43.5776 19.4887 43.519 19.4741 43.4544C19.4594 43.3898 19.4644 43.3223 19.4882 43.2605C19.512 43.1988 19.5536 43.1457 19.6077 43.1081C19.6617 43.0705 19.7257 43.0502 19.7913 43.0497C19.8335 43.0469 19.8757 43.0527 19.9155 43.067C19.9553 43.0813 19.9918 43.1037 20.0227 43.1327C20.0535 43.1618 20.0782 43.1969 20.0951 43.236C20.112 43.275 20.1208 43.3172 20.121 43.3598ZM19.5428 44.1645H20.045V46.6346H19.5428V44.1645Z" fill="black"/>
<path d="M23.2874 45.3995C23.2874 46.1538 22.8128 46.6885 22.1588 46.6885C21.987 46.693 21.817 46.6521 21.6657 46.5699C21.5143 46.4878 21.3869 46.3671 21.2959 46.22V47.7563H20.792V44.1645H21.2959V44.593C21.386 44.4446 21.5131 44.3225 21.6645 44.2391C21.8159 44.1557 21.9863 44.1137 22.1588 44.1175C22.8025 44.1105 23.2874 44.6435 23.2874 45.3995ZM22.7801 45.3995C22.7801 44.9275 22.4781 44.5948 22.0518 44.5948C21.847 44.6044 21.6537 44.6933 21.5121 44.843C21.3706 44.9927 21.2916 45.1917 21.2916 45.3987C21.2916 45.6056 21.3706 45.8046 21.5121 45.9543C21.6537 46.104 21.847 46.1929 22.0518 46.2025C22.4746 46.2025 22.7801 45.8751 22.7801 45.3995Z" fill="black"/>
<path d="M26.4536 45.3995C26.4536 46.1538 25.979 46.6885 25.325 46.6885C25.1546 46.6915 24.9864 46.6499 24.8367 46.5678C24.687 46.4857 24.5609 46.3658 24.4707 46.22V47.7563H23.9668V44.1645H24.4707V44.593C24.5608 44.4446 24.6879 44.3225 24.8393 44.2391C24.9907 44.1557 25.1611 44.1137 25.3336 44.1175C25.9687 44.1105 26.4536 44.6435 26.4536 45.3995ZM25.948 45.3995C25.948 44.9275 25.6442 44.5948 25.218 44.5948C25.0132 44.6044 24.8199 44.6933 24.6783 44.843C24.5367 44.9927 24.4578 45.1917 24.4578 45.3987C24.4578 45.6056 24.5367 45.8046 24.6783 45.9543C24.8199 46.104 25.0132 46.1929 25.218 46.2025C25.6408 46.2025 25.948 45.8751 25.948 45.3995Z" fill="black"/>
<path d="M27.6912 43.3598C27.6852 43.4432 27.6481 43.5212 27.5874 43.5781C27.5268 43.6351 27.447 43.6667 27.3641 43.6667C27.2813 43.6667 27.2015 43.6351 27.1408 43.5781C27.0802 43.5212 27.0431 43.4432 27.0371 43.3598C27.0431 43.2764 27.0802 43.1983 27.1408 43.1414C27.2015 43.0845 27.2813 43.0528 27.3641 43.0528C27.447 43.0528 27.5268 43.0845 27.5874 43.1414C27.6481 43.1983 27.6852 43.2764 27.6912 43.3598ZM27.1113 44.1645H27.6118V46.6346H27.1113V44.1645Z" fill="black"/>
<path d="M30.5458 45.0755V46.6433H30.0436V45.187C30.0436 44.8055 29.871 44.6035 29.5086 44.6035C29.0772 44.6035 28.8459 44.8874 28.8459 45.363V46.6433H28.3438V44.1645H28.8459V44.5721C28.9275 44.4267 29.0471 44.3067 29.1917 44.2253C29.3363 44.1439 29.5002 44.1042 29.6657 44.1105C30.2214 44.1105 30.5458 44.4728 30.5458 45.0755Z" fill="black"/>
<path d="M33.6729 44.1645V46.6032C33.6729 47.3383 33.2156 47.8104 32.4891 47.8104C31.9075 47.8104 31.3777 47.5055 31.2707 46.8906H31.7884C31.873 47.2094 32.1439 47.3575 32.4787 47.3575C32.9274 47.3575 33.169 47.1014 33.169 46.6206V46.1973C33.0762 46.3423 32.9482 46.461 32.7972 46.5421C32.6462 46.6232 32.4772 46.664 32.3061 46.6607C31.6521 46.6607 31.1758 46.1259 31.1758 45.3856C31.1758 44.6453 31.6607 44.1105 32.3061 44.1105C32.4785 44.1073 32.6487 44.1495 32.8 44.2329C32.9513 44.3162 33.0785 44.438 33.169 44.5861V44.1645H33.6729ZM33.1759 45.3839C33.1806 45.2814 33.1646 45.179 33.1288 45.083C33.0931 44.987 33.0383 44.8993 32.968 44.8254C32.8976 44.7514 32.813 44.6926 32.7194 44.6527C32.6258 44.6127 32.5251 44.5925 32.4235 44.593C32.2247 44.6064 32.0383 44.6955 31.9022 44.8423C31.7661 44.9892 31.6903 45.1828 31.6903 45.3839C31.6903 45.585 31.7661 45.7786 31.9022 45.9254C32.0383 46.0723 32.2247 46.1614 32.4235 46.1747C32.525 46.1755 32.6257 46.1554 32.7193 46.1157C32.8129 46.0759 32.8975 46.0174 32.9679 45.9435C33.0383 45.8697 33.093 45.7821 33.1288 45.6862C33.1646 45.5903 33.1806 45.488 33.1759 45.3856V45.3839Z" fill="black"/>
<path d="M38.9174 43.4904V46.6346H38.4152V44.1767L37.4487 45.6382H37.3987L36.4426 44.1732V46.6311H35.9404V43.4904H36.5324L37.4263 44.8456L38.3202 43.4904H38.9174Z" fill="black"/>
<path d="M42.1323 44.1645V46.6345H41.6301V46.22C41.5407 46.3665 41.4147 46.4869 41.2649 46.5692C41.115 46.6514 40.9464 46.6925 40.7759 46.6885C40.1218 46.6885 39.6455 46.1538 39.6455 45.3995C39.6455 44.6453 40.1304 44.1105 40.7707 44.1105C40.9431 44.1069 41.1135 44.1489 41.2648 44.2324C41.4162 44.3158 41.5433 44.4377 41.6336 44.586V44.1645H42.1323ZM41.6353 45.3995C41.6417 45.2959 41.6269 45.1921 41.592 45.0944C41.557 44.9968 41.5026 44.9074 41.4321 44.8318C41.3616 44.7562 41.2765 44.696 41.182 44.655C41.0875 44.6139 40.9857 44.5928 40.8829 44.593C40.4549 44.593 40.1529 44.9257 40.1529 45.3978C40.1529 45.8698 40.4601 46.2008 40.8829 46.2008C40.9854 46.2015 41.087 46.1809 41.1813 46.1403C41.2757 46.0997 41.3607 46.04 41.4313 45.9649C41.5018 45.8898 41.5563 45.8008 41.5914 45.7036C41.6265 45.6063 41.6414 45.5028 41.6353 45.3995Z" fill="black"/>
<path d="M45.3079 43.1751V46.6346H44.8057V46.22C44.7136 46.3661 44.5859 46.4859 44.4349 46.5679C44.2838 46.6499 44.1144 46.6915 43.9429 46.6886C43.2888 46.6886 42.8125 46.1538 42.8125 45.3995C42.8125 44.6453 43.2974 44.1105 43.9377 44.1105C44.1099 44.1083 44.2797 44.1509 44.4308 44.2342C44.582 44.3175 44.7093 44.4387 44.8006 44.5861V43.1751H45.3079ZM44.8057 45.3995C44.8119 45.2961 44.7969 45.1924 44.7619 45.095C44.7268 44.9975 44.6724 44.9084 44.6019 44.833C44.5314 44.7576 44.4464 44.6976 44.352 44.6566C44.2577 44.6156 44.156 44.5946 44.0533 44.5948C43.6271 44.5948 43.325 44.9275 43.325 45.3995C43.325 45.8716 43.6305 46.2026 44.0533 46.2026C44.156 46.2032 44.2577 46.1826 44.3522 46.1419C44.4467 46.1012 44.5318 46.0414 44.6024 45.966C44.6729 45.8907 44.7274 45.8016 44.7624 45.7041C44.7974 45.6067 44.8121 45.503 44.8057 45.3995Z" fill="black"/>
<path d="M48.4623 45.5389H46.4725C46.4769 45.6356 46.5003 45.7305 46.5413 45.818C46.5823 45.9056 46.6401 45.984 46.7114 46.0488C46.7827 46.1136 46.866 46.1635 46.9565 46.1956C47.047 46.2277 47.1429 46.2413 47.2387 46.2356C47.3712 46.2444 47.5034 46.2143 47.6194 46.1491C47.7354 46.0839 47.8303 45.9864 47.8928 45.8681H48.4105C48.3286 46.1146 48.1695 46.3275 47.9572 46.4745C47.7448 46.6216 47.4908 46.6949 47.2335 46.6833C46.8948 46.6845 46.5696 46.5498 46.3292 46.3089C46.0889 46.0679 45.9533 45.7405 45.9522 45.3987C45.951 45.0568 46.0845 44.7285 46.3231 44.4859C46.5618 44.2434 46.8862 44.1064 47.2249 44.1053C48.0118 44.1105 48.5106 44.7254 48.4623 45.5389ZM46.5001 45.1243H47.9238C47.8949 44.9598 47.8085 44.8113 47.6802 44.7058C47.5519 44.6003 47.3903 44.5448 47.2249 44.5495C47.0567 44.5452 46.8923 44.6003 46.76 44.7052C46.6277 44.8101 46.5358 44.9583 46.5001 45.1243Z" fill="black"/>
<path d="M52.9801 45.7305C52.9801 46.4273 52.3744 46.6886 51.8187 46.6886C50.9454 46.6886 50.5641 46.2026 50.4795 45.6591H50.9869C51.0801 46.0231 51.3199 46.2113 51.8135 46.2113C52.2311 46.2113 52.4727 46.0371 52.4727 45.7531C52.4727 45.4692 52.219 45.4048 51.6409 45.2828C51.0352 45.147 50.5641 44.9763 50.5641 44.3892C50.5641 43.7639 51.1111 43.4364 51.7065 43.4364C52.49 43.4364 52.8507 43.8458 52.9387 44.3439H52.4279C52.3398 44.0827 52.1259 43.9119 51.7082 43.9119C51.2906 43.9119 51.0628 44.1018 51.0628 44.3753C51.0628 44.6 51.2354 44.6714 51.7531 44.7829C52.5452 44.9588 52.9801 45.1243 52.9801 45.7305Z" fill="black"/>
<path d="M54.1882 43.3598C54.1822 43.4432 54.1452 43.5212 54.0845 43.5781C54.0238 43.6351 53.9441 43.6667 53.8612 43.6667C53.7784 43.6667 53.6986 43.6351 53.6379 43.5781C53.5773 43.5212 53.5402 43.4432 53.5342 43.3598C53.5402 43.2764 53.5773 43.1983 53.6379 43.1414C53.6986 43.0845 53.7784 43.0528 53.8612 43.0528C53.9441 43.0528 54.0238 43.0845 54.0845 43.1414C54.1452 43.1983 54.1822 43.2764 54.1882 43.3598ZM53.6101 44.1645H54.1123V46.6346H53.6101V44.1645Z" fill="black"/>
<path d="M58.5132 45.0476V46.6345H58.011V45.1556C58.011 44.7881 57.8643 44.5948 57.526 44.5948C57.1308 44.5948 56.9255 44.9048 56.9255 45.3542V46.6345H56.4319V45.1556C56.4319 44.7881 56.2852 44.5948 55.947 44.5948C55.55 44.5948 55.3499 44.9048 55.3499 45.3542V46.6345H54.8477V44.1645H55.3499V44.5582C55.4231 44.4197 55.5331 44.3044 55.6675 44.2254C55.8019 44.1463 55.9554 44.1065 56.1109 44.1105C56.2766 44.1 56.441 44.1457 56.578 44.2404C56.715 44.3351 56.8166 44.4733 56.8668 44.6331C56.9396 44.4741 57.0567 44.34 57.2038 44.2472C57.3509 44.1544 57.5217 44.1069 57.6951 44.1105C58.2025 44.1105 58.5132 44.4606 58.5132 45.0476Z" fill="black"/>
<path d="M61.7388 45.3995C61.7388 46.1538 61.2625 46.6885 60.6084 46.6885C60.4381 46.6915 60.2698 46.6499 60.1202 46.5678C59.9705 46.4856 59.8444 46.3658 59.7541 46.2199V47.7563H59.252V44.1645H59.7541V44.593C59.8444 44.4447 59.9715 44.3227 60.1229 44.2393C60.2743 44.1559 60.4446 44.1139 60.617 44.1175C61.2538 44.1105 61.7388 44.6435 61.7388 45.3995ZM61.2314 45.3995C61.2314 44.9274 60.9294 44.5947 60.5014 44.5947C60.2966 44.6044 60.1033 44.6933 59.9617 44.843C59.8202 44.9927 59.7412 45.1917 59.7412 45.3986C59.7412 45.6056 59.8202 45.8046 59.9617 45.9543C60.1033 46.104 60.2966 46.1929 60.5014 46.2025C60.919 46.2025 61.2314 45.8751 61.2314 45.3995Z" fill="black"/>
<path d="M62.3994 43.1751H62.9068V46.6346H62.3994V43.1751Z" fill="black"/>
<path d="M66.0529 45.5389H64.0631C64.0677 45.6356 64.0912 45.7303 64.1323 45.8178C64.1734 45.9052 64.2312 45.9836 64.3025 46.0483C64.3737 46.1131 64.4569 46.163 64.5473 46.1952C64.6377 46.2273 64.7336 46.2411 64.8293 46.2357C64.9618 46.2444 65.094 46.2144 65.21 46.1492C65.326 46.084 65.4209 45.9864 65.4834 45.8681H66.0011C65.9189 46.1146 65.7593 46.3273 65.5467 46.4741C65.334 46.6208 65.0797 46.6937 64.8224 46.6816C64.4837 46.6828 64.1584 46.5481 63.9181 46.3071C63.6778 46.0662 63.5422 45.7388 63.541 45.3969C63.5399 45.0551 63.6733 44.7268 63.912 44.4842C64.1507 44.2416 64.4751 44.1047 64.8138 44.1036C65.6024 44.1105 66.096 44.7254 66.0529 45.5389ZM64.0907 45.1243H65.5144C65.4855 44.9599 65.3991 44.8114 65.2708 44.7058C65.1425 44.6003 64.9809 44.5449 64.8155 44.5495C64.6473 44.5452 64.4829 44.6003 64.3506 44.7052C64.2183 44.8102 64.1264 44.9584 64.0907 45.1243Z" fill="black"/>
<path d="M15.5684 0.541748H9.34018L5.88867 20.1836H10.2307L11.2661 14.1513H13.5389C18.9595 14.1513 23.0461 11.6534 23.0461 6.32316C23.0461 2.09031 19.3754 0.541748 15.5684 0.541748ZM14.1516 10.5316H11.9081L13.0488 4.08655H15.1508C17.2355 4.08655 18.4038 5.04111 18.4038 6.75168C18.4038 9.12939 16.8179 10.5316 14.1516 10.5316Z" fill="black"/>
<path d="M57.653 6.66107L57.6484 6.66555V6.66107H57.653Z" fill="black"/>
<path d="M39.5349 0L37.5675 11.2406C36.9773 14.6077 35.3982 15.989 33.3964 15.989C31.089 15.989 29.8948 14.8324 29.8948 12.4477C29.8977 11.818 29.9624 11.1902 30.0881 10.5734L31.8898 0H27.4201L25.6132 10.5212C25.455 11.3725 25.373 12.2365 25.3682 13.1027C25.3682 17.8059 28.3986 19.9153 33.2635 19.9153C38.011 19.9153 41.0138 17.1091 41.9026 11.9461L43.9821 0H39.5349Z" fill="black"/>
<path d="M78.33 3.78692L78.9703 0H67.0781L64.7656 13.2159H69.2301L69.558 11.3224H73.1165L73.7775 7.42927L70.219 7.49023L70.8644 3.78692H78.33Z" fill="black"/>
<path d="M58.0038 5.76748C58.0038 4.14053 56.5715 3.3288 54.6818 3.3288H52.3744L51.3511 9.19383L51.3217 9.36802L50.716 12.7648H50.7056L50.3242 14.9805L50.2656 15.301L49.5149 19.6349H45.0693L48.5139 0H55.0977C59.1031 0 62.3458 1.56772 62.3458 5.35465C62.3458 8.61029 60.4251 10.5177 57.7312 11.6412L60.1472 15.8479H78.5662L77.9018 19.6349H58.1747L53.1044 10.3661L54.8302 9.62931C56.4127 8.95519 57.5534 7.86301 57.9089 6.16638L58.0038 5.76748Z" fill="black"/>
<path d="M1.15623 22.7825L0.555664 26.0312H5.83819L3.54121 38.9998L5.13236 40.4874L7.33959 39.106L9.6521 26.0312H14.8552L15.4282 22.7825H1.15623Z" fill="black"/>
<path d="M25.469 32.7829L29.4054 39.646H25.469C25.469 39.646 22.5559 33.9831 21.4601 31.4015C22.0779 31.2117 23.2462 30.717 23.6673 30.5306C23.7674 30.4905 23.8243 30.4626 23.8243 30.4626L24.0746 30.339C24.9754 29.8512 25.469 28.982 25.469 27.7261C25.469 26.3326 24.468 25.6497 22.8389 25.6497H20.8612L19.9759 30.717L19.9604 30.7501L19.4323 33.7479L19.1562 35.3609L18.4124 39.6425H14.5898L17.5409 22.7791H23.2013C26.6373 22.7791 29.4279 24.1308 29.4279 27.3812C29.4279 30.1787 27.7849 31.8109 25.469 32.7829Z" fill="black"/>
<path d="M43.6768 22.7546H40.0682L30.3057 39.6512H34.6528L35.7763 37.4285L36.4666 36.0646L37.9904 33.0737L38.5686 31.9241L41.2814 26.5468L42.2254 31.9241L42.4256 33.0737L42.9433 36.0646L43.1832 37.4738L43.5612 39.6512H47.715L43.6768 22.7546Z" fill="black"/>
<path d="M62.5639 22.7825L60.7467 33.2811L55.1656 22.7825H51.6106L48.6475 39.646H52.3233L54.2803 28.4211L60.0064 39.646H63.2749L66.238 22.7825H62.5639Z" fill="black"/>
<path d="M70.7295 27.2157C70.7295 26.1706 71.62 25.5034 72.8591 25.5034C74.433 25.5034 75.2751 26.4684 75.6065 27.9839L78.8975 27.2157C78.2969 23.9827 76.0845 22.5404 72.8159 22.5404C69.5474 22.5404 67.0105 24.5384 67.0105 27.592C67.0105 32.0304 74.0498 32.1436 74.0498 34.7983C74.0498 35.9305 73.149 36.8015 71.7149 36.8015C69.8304 36.8015 68.8519 35.5943 68.3738 33.8106L65.126 34.8557C65.5315 38.1027 67.7284 39.8899 71.4974 39.8899C75.1215 39.8899 77.8241 37.8205 77.8241 34.3454C77.831 29.4767 70.7295 29.5046 70.7295 27.2157Z" fill="black"/>
<path d="M9.92997 39.8515L9.55721 43.7639L4.42483 46.9742L0 42.8319L0.372762 38.9144L3.08564 41.4576L4.79759 43.0566L6.85469 41.7711L9.92997 39.8515Z" fill="#27D110"/>
<path d="M118 21.058C117.077 22.0021 115.389 23.6273 114.031 24.9094H94.9941L113.486 25.4319C112.666 26.2106 112.193 26.6513 112.046 26.7837L111.596 27.1739C110.549 28.0959 109.5 28.975 108.45 29.8111H96.6992L107.917 30.21C106.147 31.6184 104.303 32.9297 102.394 34.138L101.954 34.408C95.8397 38.2176 89.168 40.9071 80.8895 42.8319L77.709 43.5722C77.709 43.5722 91.5909 35.6761 82.6291 21.051L118 21.058Z" fill="#27D110"/>
<path d="M103.823 18.8266L91.6876 10.2024H83.0934L81.8525 18.8266H103.823Z" fill="#27D110"/>
<path d="M90.4014 8.82977H83.2344L83.633 5.85632C86.0253 6.49577 88.3075 7.49836 90.4014 8.82977Z" fill="#27D110"/>
<g opacity="0.8">
<path d="M92.9488 33.1904L91.4888 33.4918C91.4714 33.4946 91.4536 33.4908 91.4387 33.4813L91.0315 33.2514L90.6156 33.0163C90.6 33.0163 90.5845 32.9988 90.569 33.0163C90.5534 33.0337 90.569 33.0441 90.569 33.0598L90.9624 33.659L91.2351 34.0736C91.261 34.1102 91.2593 34.1137 91.2213 34.138L90.7571 34.4289L89.7993 35.0317L89.4817 35.232C89.4679 35.2407 89.4558 35.2459 89.4438 35.232C89.4317 35.218 89.4438 35.2058 89.4541 35.1954L89.6871 35.0125C89.8131 34.9115 89.9425 34.8122 90.065 34.7077C90.2273 34.57 90.3947 34.4411 90.5586 34.307C90.6552 34.2269 90.7519 34.1502 90.8503 34.0719C90.8546 34.0694 90.8584 34.066 90.8614 34.0619C90.8643 34.0579 90.8665 34.0533 90.8676 34.0484C90.8687 34.0435 90.8688 34.0384 90.8679 34.0334C90.867 34.0285 90.8651 34.0238 90.8623 34.0196L90.6414 33.6102L90.2963 32.9535L89.8493 32.1192L89.5318 31.5287L89.1953 30.9033C89.1884 30.8882 89.1761 30.8763 89.1608 30.8702C89.1498 30.866 89.1378 30.865 89.1263 30.8673C89.1147 30.8697 89.1041 30.8753 89.0956 30.8835C89.0871 30.8917 89.0811 30.9022 89.0783 30.9137C89.0754 30.9252 89.0759 30.9373 89.0796 30.9486C89.0969 31.0131 89.109 31.0775 89.1245 31.142L89.5905 33.1835C89.5991 33.2201 89.5905 33.2305 89.5525 33.2218L89.3799 33.1678L89.0814 33.0737C88.9985 33.0494 88.9088 33.0267 88.8346 33.0006L88.536 32.9083L88.2323 32.8177C88.1909 32.8055 88.1684 32.8177 88.1495 32.8438C88.1305 32.8699 88.1391 32.8978 88.1702 32.9257L88.8864 33.5841L89.8821 34.4986C89.8917 34.5047 89.8997 34.5132 89.9052 34.5233C89.9107 34.5333 89.9135 34.5446 89.9135 34.5561C89.9135 34.5676 89.9107 34.5789 89.9052 34.5889C89.8997 34.599 89.8917 34.6075 89.8821 34.6136L89.2436 35.1362L88.7725 35.5142L88.203 35.9758L87.9941 36.15L88.2927 36.2771L89.0468 35.9287L90.8088 35.1048L91.7149 34.6798C91.7291 34.6749 91.7419 34.6666 91.7522 34.6556C91.7625 34.6445 91.7699 34.6311 91.7738 34.6164C91.7778 34.6018 91.7781 34.5864 91.7747 34.5716C91.7713 34.5569 91.7644 34.5432 91.7546 34.5317C91.6855 34.4255 91.6165 34.3192 91.5457 34.2147C91.5302 34.192 91.5319 34.1781 91.5561 34.1624L92.5104 33.5632L93.0126 33.2479C93.0118 33.2416 93.0118 33.2351 93.0126 33.2288C92.9971 33.1817 92.9729 33.1852 92.9488 33.1904ZM89.7389 32.9936C89.6612 32.6452 89.5801 32.3073 89.5024 31.9624C89.5014 31.9572 89.5014 31.9519 89.5024 31.9467C89.5024 31.9258 89.5024 31.9206 89.5214 31.9188C89.5404 31.9171 89.5404 31.9188 89.5456 31.9328C89.5749 31.9868 89.6043 32.0425 89.6336 32.0948C89.751 32.3177 89.87 32.539 89.9891 32.7602C90.126 33.0134 90.2618 33.2671 90.3964 33.5214L90.6225 33.943C90.6483 33.9917 90.6552 33.9917 90.6086 34.0283L90.1272 34.4168C90.0892 34.4464 90.0789 34.4411 90.0668 34.3941C89.9552 33.9273 89.8459 33.4604 89.7389 32.9936ZM89.5318 33.9447L88.7569 33.2288C88.7474 33.2226 88.7401 33.2134 88.7362 33.2026C88.7357 33.1992 88.736 33.1956 88.737 33.1922C88.7379 33.1889 88.7396 33.1857 88.7419 33.1831C88.7442 33.1804 88.7471 33.1783 88.7503 33.1769C88.7534 33.1755 88.7569 33.1747 88.7604 33.1748L88.9502 33.234L89.1383 33.2897L89.335 33.3507L89.5214 33.4064L89.6388 33.4413C89.656 33.4413 89.656 33.4622 89.6595 33.4761C89.7009 33.6503 89.7406 33.8245 89.7803 33.9987C89.7906 34.0405 89.801 34.084 89.8096 34.1259C89.8096 34.1398 89.8217 34.1537 89.8096 34.1642C89.7975 34.1746 89.7803 34.1642 89.7699 34.152L89.5318 33.9447ZM91.5337 34.53C91.5337 34.5474 91.5181 34.5509 91.5078 34.5561L91.0988 34.7477L89.7182 35.3905L89.4886 35.4985C89.4783 35.4985 89.4645 35.5107 89.4558 35.4985C89.4472 35.4863 89.4455 35.4689 89.4558 35.4567L89.6888 35.3104L90.2894 34.9306L91.3248 34.2826C91.3473 34.2687 91.3611 34.2669 91.3766 34.2931C91.4215 34.3645 91.4698 34.4359 91.5164 34.5056C91.5268 34.5143 91.5337 34.5213 91.5302 34.53H91.5337ZM92.0755 33.5911C92.0755 33.6015 92.0755 33.6068 92.06 33.6102L91.4491 33.9935C91.4267 34.0091 91.4146 34.0039 91.4008 33.983L91.1316 33.5737C91.1316 33.5615 91.1178 33.5475 91.1316 33.5353C91.1454 33.5232 91.1557 33.5353 91.1695 33.5353L91.3904 33.659C91.4231 33.6787 91.462 33.6849 91.4991 33.6764L92.0427 33.565C92.0617 33.5615 92.0773 33.5702 92.0721 33.5911H92.0755Z" fill="white"/>
</g>
<g opacity="0.8">
<path d="M85.3648 39.2906L84.8626 39.4004C84.8402 39.531 84.8298 39.5972 84.8057 39.7278L84.6055 39.7696C84.6969 39.2802 84.7401 39.0346 84.8212 38.5503L85.0542 38.498C85.3268 38.9109 85.4666 39.1164 85.7445 39.524L85.5443 39.5693L85.3648 39.2906ZM85.2595 39.1338L84.9765 38.7019C84.9437 38.9057 84.9282 39.0084 84.8937 39.2122C85.0404 39.1826 85.1128 39.1652 85.2526 39.1338H85.2595Z" fill="white"/>
<path d="M86.6055 39.1269L86.6504 39.3011C86.3639 39.3743 86.2224 39.4109 85.9359 39.4753L85.6719 38.3518L85.8548 38.3082C85.9445 38.688 85.9911 38.8778 86.0809 39.2558C86.288 39.2071 86.3967 39.1809 86.6055 39.1269Z" fill="white"/>
<path d="M87.9758 38.1218C87.9925 38.1728 87.998 38.2269 87.9922 38.2803C87.9863 38.3337 87.9691 38.3852 87.9418 38.4313C87.9144 38.4774 87.8776 38.517 87.8337 38.5475C87.7899 38.5779 87.74 38.5985 87.6876 38.6078L87.4063 38.6897C87.4477 38.8395 87.4685 38.9144 87.5116 39.0659L87.3252 39.1164C87.2044 38.6723 87.144 38.4493 87.0215 38.0051C87.2044 37.9546 87.2959 37.9285 87.4771 37.8745C87.5257 37.854 87.578 37.8443 87.6306 37.8459C87.6832 37.8476 87.7348 37.8605 87.782 37.884C87.8292 37.9074 87.871 37.9407 87.9044 37.9817C87.9378 38.0228 87.9622 38.0705 87.9758 38.1218ZM87.7929 38.1793C87.7859 38.151 87.7728 38.1246 87.7545 38.102C87.7363 38.0794 87.7133 38.0612 87.6873 38.0485C87.6613 38.0359 87.6328 38.0292 87.604 38.0289C87.5751 38.0286 87.5465 38.0348 87.5202 38.0469C87.4115 38.08 87.358 38.0957 87.2493 38.1253L87.358 38.5172L87.6324 38.4388C87.6611 38.4349 87.6886 38.4247 87.7129 38.4089C87.7372 38.393 87.7578 38.372 87.7731 38.3472C87.7885 38.3224 87.7982 38.2945 87.8016 38.2655C87.805 38.2364 87.802 38.207 87.7929 38.1793Z" fill="white"/>
<path d="M88.9943 37.3972C89.1392 37.8344 89.2134 38.0521 89.3584 38.4893L89.1755 38.552L89.0202 38.073L88.4472 38.2594C88.5059 38.451 88.5352 38.5468 88.5956 38.7402L88.4127 38.7977L88.0762 37.695L88.2487 37.6393C88.304 37.8135 88.3333 37.9093 88.3885 38.0887L88.958 37.9041C88.9011 37.7299 88.8717 37.6341 88.8131 37.4564L88.9943 37.3972Z" fill="white"/>
<path d="M90.5286 37.4512C90.5737 37.5646 90.5842 37.689 90.5588 37.8085C90.5333 37.928 90.4731 38.0371 90.3858 38.1217C90.2985 38.2064 90.1881 38.2628 90.0689 38.2837C89.9496 38.3047 89.8268 38.2891 89.7163 38.2391C89.6059 38.1891 89.5127 38.1069 89.4488 38.0031C89.385 37.8993 89.3533 37.7786 89.3579 37.6565C89.3624 37.5343 89.4031 37.4164 89.4745 37.3177C89.546 37.2191 89.645 37.1442 89.7589 37.1028C89.832 37.0735 89.9102 37.0594 89.9888 37.0611C90.0674 37.0629 90.1449 37.0805 90.2166 37.113C90.2884 37.1455 90.353 37.1921 90.4065 37.2502C90.4601 37.3083 90.5016 37.3766 90.5286 37.4512ZM89.5656 37.7996C89.593 37.878 89.6428 37.9464 89.7088 37.9962C89.7747 38.046 89.8538 38.0749 89.9361 38.0792C90.0183 38.0836 90.1 38.0632 90.1707 38.0207C90.2415 37.9781 90.2981 37.9154 90.3335 37.8403C90.3689 37.7652 90.3813 37.6813 90.3694 37.599C90.3574 37.5168 90.3215 37.44 90.2663 37.3783C90.211 37.3167 90.1389 37.273 90.059 37.2528C89.9791 37.2326 89.8951 37.2368 89.8176 37.2648C89.7646 37.2822 89.7158 37.3104 89.6741 37.3477C89.6324 37.385 89.5987 37.4306 89.5753 37.4816C89.5518 37.5325 89.539 37.5879 89.5376 37.6441C89.5363 37.7003 89.5464 37.7562 89.5674 37.8083L89.5656 37.7996Z" fill="white"/>
<path d="M90.7753 36.9286L90.884 37.2073C91.0807 37.1289 91.1808 37.0888 91.3775 37.007L91.4431 37.1725C91.2464 37.2543 91.1463 37.2944 90.9478 37.3728L91.0635 37.6724C91.2792 37.587 91.3879 37.5435 91.6036 37.4547L91.6692 37.6184C91.3827 37.7368 91.2378 37.7926 90.9496 37.9075C90.777 37.4773 90.7028 37.2613 90.5371 36.831C90.8184 36.7213 90.9582 36.6656 91.2378 36.5506L91.3033 36.7161C91.0842 36.8101 90.9789 36.8519 90.7753 36.9286Z" fill="white"/>
<path d="M92.294 36.0994C92.4803 36.521 92.5735 36.7317 92.7582 37.1446L92.5511 37.2369C92.1921 37.007 92.0144 36.8885 91.6641 36.6516L91.8366 37.0209C91.9109 37.1951 91.9488 37.2874 92.023 37.4668L91.8504 37.54L91.4121 36.4739L91.6157 36.3886C91.9609 36.6272 92.1335 36.737 92.4993 36.9739L92.3268 36.6081C92.2491 36.4339 92.2111 36.3433 92.1335 36.1656L92.294 36.0994Z" fill="white"/>
<path d="M92.5322 35.9915L92.7048 35.9131C92.8964 36.3329 92.9913 36.5419 93.1811 36.9582L93.0085 37.0384L92.5322 35.9915Z" fill="white"/>
<path d="M94.0541 36.5402C93.8816 36.4322 93.7884 36.3782 93.6141 36.2684C93.5899 36.474 93.5778 36.5768 93.552 36.791L93.3466 36.8886C93.388 36.6064 93.407 36.4653 93.4432 36.1918C93.2154 36.0524 93.0981 35.9828 92.8789 35.8434L93.0808 35.7476L93.4881 36.0089C93.5105 35.8138 93.5209 35.718 93.5399 35.5246L93.7383 35.4254C93.709 35.6954 93.6935 35.8295 93.6589 36.0995C93.8971 36.2441 94.0162 36.3137 94.2578 36.4479L94.0541 36.5402Z" fill="white"/>
<path d="M95.5934 35.0351L95.8902 35.5716L95.7452 35.6535L95.6348 35.4514C95.6405 35.5406 95.6189 35.6294 95.5729 35.7057C95.5269 35.7821 95.4587 35.8423 95.3776 35.8782C95.3097 35.9175 95.2344 35.9423 95.1566 35.951C95.0787 35.9598 94.9999 35.9524 94.9251 35.9292C94.8502 35.906 94.7808 35.8676 94.7212 35.8163C94.6616 35.7649 94.6131 35.7018 94.5786 35.6309C94.5409 35.5612 94.5174 35.4845 94.5097 35.4055C94.5019 35.3265 94.5101 35.2467 94.5336 35.1709C94.5571 35.0951 94.5955 35.0249 94.6466 34.9645C94.6976 34.904 94.7602 34.8546 94.8306 34.8191C94.9358 34.7567 95.0581 34.7303 95.1794 34.7438C95.3007 34.7573 95.4144 34.81 95.5036 34.894L95.331 34.9933C95.271 34.9504 95.2 34.9259 95.1265 34.9229C95.053 34.9198 94.9802 34.9382 94.9169 34.9759C94.8672 35.0003 94.823 35.0347 94.7871 35.077C94.7512 35.1193 94.7244 35.1687 94.7082 35.2219C94.692 35.2752 94.6868 35.3313 94.693 35.3866C94.6993 35.442 94.7167 35.4955 94.7443 35.5438C94.7675 35.5941 94.8008 35.6389 94.8422 35.6754C94.8837 35.7119 94.9322 35.7393 94.9847 35.7557C95.0372 35.7721 95.0926 35.7772 95.1472 35.7707C95.2018 35.7642 95.2544 35.7463 95.3017 35.718C95.384 35.6807 95.4496 35.6139 95.4856 35.5304C95.5217 35.447 95.5256 35.353 95.4967 35.2668L95.1084 35.4793C95.0791 35.4236 95.0653 35.3957 95.0342 35.34C95.262 35.2215 95.3742 35.1605 95.5934 35.0351Z" fill="white"/>
<path d="M96.2373 34.8766L96.0803 34.9689L96.2926 35.3417L96.12 35.4375L95.5557 34.4342C95.7282 34.3401 95.8042 34.2913 95.9681 34.1938C96.0086 34.1642 96.0548 34.1435 96.1037 34.1331C96.1526 34.1228 96.2032 34.1229 96.252 34.1336C96.3009 34.1443 96.347 34.1653 96.3873 34.1952C96.4276 34.225 96.4611 34.2631 96.4858 34.307C96.533 34.3778 96.5513 34.4643 96.5368 34.5483C96.5223 34.6324 96.4762 34.7076 96.4082 34.7582C96.617 34.8366 96.7223 34.8766 96.9259 34.9533L96.7223 35.0752C96.5393 34.9986 96.4375 34.9585 96.2373 34.8766ZM95.9975 34.8261L96.2356 34.6868C96.3702 34.6084 96.3909 34.5021 96.3357 34.4063C96.2805 34.3105 96.1769 34.2809 96.0458 34.3575L95.8111 34.4951L95.9975 34.8261Z" fill="white"/>
<path d="M97.7646 33.7583C97.8331 33.8596 97.8701 33.9792 97.8707 34.1019C97.8714 34.2245 97.8356 34.3445 97.7682 34.4465C97.7007 34.5485 97.6046 34.6278 97.4921 34.6743C97.3796 34.7207 97.256 34.7321 97.137 34.707C97.0181 34.6819 96.9093 34.6216 96.8246 34.5336C96.74 34.4456 96.6833 34.3341 96.6619 34.2134C96.6405 34.0927 96.6553 33.9683 96.7045 33.8561C96.7537 33.744 96.835 33.6493 96.938 33.5841C97.0032 33.5396 97.0766 33.5088 97.1539 33.4934C97.2312 33.4781 97.3107 33.4785 97.3878 33.4948C97.4649 33.511 97.5379 33.5427 97.6026 33.588C97.6674 33.6332 97.7224 33.6912 97.7646 33.7583ZM96.9017 34.3105C96.9449 34.3813 97.0079 34.4375 97.0827 34.4721C97.1576 34.5067 97.241 34.5181 97.3222 34.5049C97.4035 34.4916 97.4791 34.4543 97.5393 34.3977C97.5996 34.341 97.6418 34.2676 97.6607 34.1867C97.6796 34.1058 97.6743 34.0211 97.6454 33.9433C97.6166 33.8654 97.5654 33.798 97.4986 33.7495C97.4317 33.701 97.3521 33.6736 97.2698 33.6709C97.1875 33.6681 97.1063 33.69 97.0363 33.7339C96.9879 33.7615 96.9455 33.7988 96.9119 33.8435C96.8784 33.8883 96.8543 33.9396 96.8412 33.9941C96.828 34.0487 96.8262 34.1054 96.8357 34.1607C96.8452 34.2161 96.8659 34.2688 96.8965 34.3157L96.9017 34.3105Z" fill="white"/>
<path d="M98.4116 32.6261L98.8033 33.1957C98.8383 33.2481 98.8628 33.3069 98.8753 33.3688C98.8878 33.4308 98.8881 33.4946 98.8761 33.5566C98.8642 33.6186 98.8402 33.6777 98.8057 33.7304C98.7712 33.7831 98.7267 33.8284 98.6748 33.8637C98.6229 33.8991 98.5646 33.9237 98.5032 33.9364C98.4419 33.949 98.3787 33.9492 98.3172 33.9372C98.2558 33.9251 98.1973 33.901 98.145 33.8661C98.0928 33.8312 98.0479 33.7863 98.0129 33.734L97.6367 33.1539L97.7938 33.0476L98.1683 33.6172C98.1872 33.6525 98.2132 33.6835 98.2447 33.708C98.2762 33.7325 98.3124 33.7501 98.351 33.7597C98.3896 33.7692 98.4298 33.7705 98.4689 33.7634C98.5081 33.7563 98.5453 33.741 98.5782 33.7185C98.6112 33.6961 98.6391 33.6669 98.6602 33.6328C98.6812 33.5988 98.695 33.5607 98.7006 33.5209C98.7062 33.4812 98.7035 33.4407 98.6926 33.4021C98.6818 33.3635 98.6631 33.3276 98.6377 33.2967L98.2545 32.7341L98.4116 32.6261Z" fill="white"/>
<path d="M99.5638 32.2585C99.5965 32.3009 99.6199 32.3499 99.6322 32.4021C99.6445 32.4544 99.6456 32.5087 99.6353 32.5614C99.625 32.6142 99.6035 32.664 99.5724 32.7076C99.5413 32.7512 99.5013 32.7876 99.4551 32.8142L99.2169 32.9884L99.4413 33.3072L99.2842 33.4204C99.0202 33.0424 98.889 32.8525 98.625 32.4763L99.0116 32.1976C99.0503 32.1617 99.0962 32.1346 99.1462 32.118C99.1962 32.1015 99.2491 32.0959 99.3014 32.1017C99.3537 32.1075 99.4041 32.1244 99.4494 32.1515C99.4946 32.1785 99.5337 32.215 99.5638 32.2585ZM99.4102 32.3752C99.3943 32.3509 99.3733 32.3304 99.3486 32.3153C99.3239 32.3001 99.2962 32.2907 99.2674 32.2877C99.2387 32.2847 99.2097 32.2882 99.1824 32.2979C99.1552 32.3076 99.1304 32.3233 99.1099 32.3439L98.8804 32.5094C98.9736 32.6435 99.0202 32.7097 99.1151 32.8421L99.3464 32.6679C99.3707 32.6539 99.3918 32.6347 99.4082 32.6118C99.4246 32.5888 99.4359 32.5625 99.4413 32.5347C99.4467 32.507 99.4461 32.4783 99.4395 32.4508C99.433 32.4233 99.4206 32.3975 99.4033 32.3752H99.4102Z" fill="white"/>
</g>
</g>
<defs>
<clipPath id="clip0_7_568">
<rect width="118" height="47.8103" fill="white"/>
</clipPath>
</defs>
</svg>
