<svg width="163" height="42" viewBox="0 0 163 42" fill="none" xmlns="http://www.w3.org/2000/svg">
<g clip-path="url(#clip0_16_9977)">
<path d="M28.5921 0.195412C36.6163 0.572644 42.7425 4.07681 46.6112 11.2351C46.9981 11.9487 47.699 12.9031 46.9662 13.494C46.1515 14.153 44.7133 14.1803 44.0306 13.3894C42.8973 12.0714 41.55 12.135 40.1163 12.1396C36.6299 12.1441 33.139 12.2259 29.6526 12.1259C28.0687 12.0805 26.9171 12.5804 25.884 13.7439C24.7279 15.0438 23.3443 16.1437 22.2246 17.4663C20.9092 19.0161 19.2298 18.648 17.6003 18.6161C17.1452 18.6071 16.9768 18.2344 17.1543 17.8026C17.2362 17.5981 17.3864 17.4072 17.5457 17.2527C20.1947 14.6575 22.8299 12.0532 25.5107 9.48986C26.2026 8.82629 27.1493 8.80812 28.0823 8.8172C31.4185 8.83993 34.7547 8.83538 38.0909 8.8172C38.5916 8.81266 39.2789 9.03536 39.5292 8.4627C39.8842 7.65824 39.0058 7.47644 38.587 7.15375C29.1428 -0.127281 15.0106 4.92672 12.2114 16.5664C12.0339 17.3026 11.8018 18.0435 11.7836 18.7889C11.7472 20.3841 10.7095 20.3614 9.5898 20.2932C8.26533 20.216 8.3336 19.3842 8.41553 18.3662C9.06183 10.208 15.006 3.26781 23.4171 0.922606C25.1011 0.44993 26.7988 0.0772429 28.5921 0.195412Z" fill="#1E9A75"/>
<path d="M24.0273 32.0692C22.2113 32.0692 20.3907 32.0511 18.5747 32.0829C18.1696 32.092 17.5324 31.8374 17.4095 32.3965C17.3094 32.8464 17.892 33.0828 18.2333 33.3555C25.9753 39.5957 37.8591 37.3823 42.8612 28.7787C44.0127 26.7925 44.8046 24.7155 45.0641 22.4112C45.2871 20.4205 45.8014 20.1887 47.7722 20.4569C49.0102 20.6296 48.9692 21.4204 48.8554 22.2658C47.8177 30.174 43.7305 35.9506 36.3663 39.0548C26.3622 43.2726 15.1884 39.0276 10.3047 29.3832C9.94059 28.6696 8.89831 27.7106 9.95425 27.0243C10.8645 26.4335 12.4894 26.3017 13.1038 27.2243C14.1416 28.7832 15.4751 28.5605 16.8815 28.5605C20.5955 28.5696 24.3049 28.5333 28.0144 28.6105C29.1841 28.6333 30.0307 28.2697 30.8044 27.4379C32.0879 26.0563 33.558 24.8291 34.7414 23.3656C36.0295 21.7704 37.6771 22.0521 39.311 22.143C40.0484 22.1839 40.144 22.7475 39.7616 23.2702C39.4112 23.752 38.9378 24.1474 38.51 24.5701C36.4163 26.6471 34.2863 28.6923 32.2427 30.8148C31.3278 31.7647 30.3402 32.1647 29.0293 32.092C27.3681 32.0011 25.6977 32.0692 24.0319 32.0692C24.0273 32.0783 24.0273 32.0738 24.0273 32.0692Z" fill="#214866"/>
<path d="M89.7683 7.98569C89.7683 10.0264 89.7182 12.0671 89.791 14.1032C89.8274 15.1167 89.4042 15.4758 88.4711 15.4394C88.2435 15.4303 88.016 15.444 87.7884 15.4485C84.7617 15.494 84.6889 15.8848 84.8072 12.6261C84.8208 12.1989 84.9938 11.5308 84.5796 11.399C83.9242 11.1944 83.8377 11.9716 83.5601 12.3761C83.3507 12.6897 83.1823 13.0306 82.9821 13.3487C82.4495 14.1896 82.0263 14.0396 81.4619 13.2988C80.9476 12.6261 80.8565 11.249 79.8461 11.4535C79.3637 11.5489 79.6322 12.9761 79.655 13.7851C79.6914 14.9395 79.2954 15.4031 78.0893 15.3803C74.2114 15.3122 74.7166 15.6394 74.7349 12.1989C74.7531 8.94923 74.6893 5.69958 74.7303 2.45447C74.7394 1.70456 74.3343 0.722844 75.3994 0.281983C76.5099 -0.177058 78.7947 0.286528 79.3455 1.12735C80.0873 2.26359 80.7928 3.43164 81.4391 4.62242C81.9625 5.58141 82.404 5.72685 83.0003 4.69969C83.6056 3.65435 84.2337 2.62264 84.8846 1.60002C85.6674 0.368337 87.9568 -0.290682 89.2221 0.295618C89.8502 0.586495 89.7865 1.12735 89.791 1.64093C89.8001 3.75433 89.7956 5.87229 89.7956 7.98569C89.7865 7.98569 89.7774 7.98569 89.7683 7.98569Z" fill="#214866"/>
<path d="M43.8077 18.9072C40.6308 18.9072 37.4493 18.9526 34.2724 18.8844C32.9752 18.8572 31.9921 19.1844 31.05 20.1343C29.3068 21.8978 27.8594 24.3293 25.5564 25.0701C23.358 25.7792 20.7637 25.2838 18.3469 25.2928C12.8988 25.3065 7.4462 25.3201 1.99812 25.2883C1.31085 25.2838 0.300433 25.6519 0.0501035 24.6566C-0.200226 23.6612 0.528005 22.984 1.33361 22.475C2.20749 21.9205 3.1906 21.9023 4.18281 21.9023C10.086 21.9023 15.9893 21.8341 21.8925 21.9296C23.6448 21.9568 24.992 21.5114 26.0616 20.157C26.2027 19.9798 26.4166 19.8616 26.5441 19.6798C29.0883 16.0666 32.5201 15.0121 36.9077 15.2803C42.9383 15.6439 49.01 15.3621 55.0679 15.3985C55.7507 15.403 56.7065 15.0076 57.0433 15.9984C57.3983 17.0392 56.62 17.68 55.9464 18.2845C55.2728 18.8935 54.4125 18.8617 53.5796 18.8617C50.3253 18.8663 47.0711 18.8663 43.8168 18.8663C43.8077 18.8844 43.8077 18.8935 43.8077 18.9072Z" fill="#C2285B"/>
<path d="M149.342 24.4248C149.342 22.4613 149.396 20.4934 149.324 18.5299C149.274 17.221 149.797 16.9256 151.062 16.8438C152.792 16.7301 153.998 17.2346 154.817 18.7345C154.963 18.9981 155.14 19.248 155.327 19.4844C155.919 20.2252 156.274 21.6478 157.22 21.4523C157.871 21.3205 157.402 19.8571 157.434 18.9981C157.512 16.8756 157.475 16.871 159.86 16.8801C162.231 16.8892 162.318 16.9528 162.327 19.0072C162.341 22.5613 162.368 26.1155 162.313 29.6651C162.3 30.4741 162.791 31.5558 161.585 32.0148C160.302 32.5057 158.226 32.0012 157.498 31.0286C156.774 30.0605 156.101 29.0606 155.372 28.0971C155.122 27.7653 154.936 27.1472 154.394 27.3608C154.012 27.5108 154.262 28.0335 154.253 28.388C154.244 28.7652 154.271 29.1424 154.262 29.5197C154.185 32.0966 154.185 32.0966 151.595 32.0921C149.337 32.0876 149.337 32.0876 149.333 29.8696C149.328 28.0562 149.333 26.2427 149.333 24.4248C149.333 24.4248 149.337 24.4248 149.342 24.4248Z" fill="#214866"/>
<path d="M106.395 7.66738C106.395 5.78577 106.458 3.89961 106.372 2.01799C106.308 0.613599 106.909 0.118198 108.238 0.195462C109.822 0.286362 111.41 0.240912 112.99 0.381806C118.351 0.863572 119.835 6.38116 117.354 9.47628C116.521 10.5171 117.04 11.2624 117.523 12.1214C119.352 15.362 119.343 15.2711 115.67 15.3893C113.986 15.4438 112.921 14.9666 112.33 13.3895C112.229 13.1213 112.102 12.5805 111.592 12.7896C111.278 12.9168 111.324 13.3122 111.36 13.5986C111.529 15.0166 110.869 15.5029 109.521 15.3575C108.925 15.2938 108.315 15.3347 107.71 15.362C106.731 15.4075 106.39 14.953 106.413 13.994C106.463 11.8851 106.426 9.77624 106.426 7.66738C106.417 7.66738 106.404 7.66738 106.395 7.66738ZM111.365 5.93575C111.392 6.57204 111.137 7.41286 112.189 7.40832C113.108 7.40377 113.472 6.75839 113.472 5.91302C113.467 4.97222 112.78 4.54045 112.02 4.54954C111.128 4.55863 111.478 5.41762 111.365 5.93575Z" fill="#214866"/>
<path d="M148.122 24.443C148.122 28.7425 144.841 32.0149 140.531 32.0103C136.375 32.0103 133.012 28.7153 132.962 24.6066C132.911 20.3343 136.207 16.9938 140.499 16.9711C144.877 16.9483 148.122 20.1298 148.122 24.443ZM140.626 27.3336C142.215 27.3109 143.484 25.9655 143.412 24.3748C143.343 22.8613 142.105 21.6297 140.635 21.6206C139.019 21.6069 137.718 22.8886 137.722 24.4748C137.736 26.1019 139.006 27.3518 140.626 27.3336Z" fill="#214866"/>
<path d="M81.8762 17.0392C86.282 17.012 89.5636 20.1844 89.6045 24.5066C89.6409 28.5153 86.2001 31.9467 82.0628 32.0285C77.8482 32.1103 74.4346 28.738 74.4209 24.4703C74.4118 20.2389 77.5933 17.0665 81.8762 17.0392ZM82.0764 27.3154C83.5193 27.279 84.8847 25.9746 84.9074 24.6157C84.9348 23.0068 83.4646 21.5751 81.858 21.6342C80.2786 21.6933 78.986 23.0477 79.0315 24.5975C79.0725 26.0701 80.5153 27.3563 82.0764 27.3154Z" fill="#214866"/>
<path d="M113.577 22.6431C113.577 24.0021 113.604 25.361 113.573 26.7199C113.491 29.9469 111.943 31.7012 108.739 32.283C107.683 32.4739 106.627 32.4693 105.58 32.2739C102.849 31.7603 101.215 30.1014 101.088 27.3517C100.947 24.3384 101.061 21.3114 101.033 18.289C101.024 17.2073 101.511 16.7938 102.563 16.8756C103.163 16.921 103.773 16.8847 104.379 16.8665C105.535 16.8347 105.976 17.3801 105.944 18.5345C105.89 20.6479 105.881 22.7658 105.963 24.8747C106.003 25.9609 105.38 27.4926 107.251 27.7517C108.338 27.9016 108.689 27.1154 108.689 24.7565C108.684 22.7931 108.73 20.8251 108.634 18.8663C108.561 17.421 109.039 16.7074 110.559 16.8756C110.933 16.9165 111.32 16.8937 111.693 16.8437C113.204 16.6483 113.714 17.3255 113.6 18.7844C113.5 20.0616 113.577 21.3523 113.577 22.634C113.573 22.6431 113.577 22.6431 113.577 22.6431Z" fill="#214866"/>
<path d="M103.154 15.353C102.057 15.3212 100.956 15.5803 100.2 14.2713C99.7996 13.5805 96.3269 13.7987 95.7534 14.4986C94.5336 15.9893 92.9588 15.2303 91.5478 15.2758C90.6011 15.3076 90.8515 14.4577 91.0335 13.9123C91.4614 12.6261 91.962 11.3626 92.4399 10.0945C93.4777 7.34027 94.5928 4.6133 95.5258 1.82723C96.0219 0.345575 96.9823 0.181957 98.3067 0.163777C99.5993 0.145597 100.182 0.681902 100.605 1.84087C101.971 5.59955 103.436 9.31733 104.856 13.0533C105.721 15.3349 105.703 15.3576 103.154 15.353ZM98.8484 10.0627C98.6026 9.63548 98.7482 8.88556 98.1793 8.79012C97.6695 8.70831 97.6149 9.36733 97.4738 9.75819C97.2736 10.3127 97.5922 10.6081 98.1019 10.6672C98.4979 10.7172 98.7846 10.5036 98.8484 10.0627Z" fill="#214866"/>
<path d="M69.5278 16.5484C69.7417 16.5575 70.1195 16.5529 70.4927 16.5938C72.7093 16.8438 73.6833 18.5163 72.8549 20.5888C72.641 21.1251 72.2405 21.1388 71.7671 21.157C71.1982 21.1751 70.4017 20.8024 70.1377 21.5115C69.8191 22.3705 70.8432 22.5386 71.2756 22.9568C72.7457 24.3748 73.8198 25.9064 73.6605 28.0835C73.5149 30.0651 72.6319 31.3286 70.8022 31.9876C68.8679 32.6875 66.9244 32.3512 64.9809 32.0512C64.3528 31.9558 64.0979 31.5013 64.0661 30.9332C64.0251 30.106 64.0297 29.2788 64.016 28.4516C64.0024 27.5017 64.5485 27.3336 65.3541 27.4517C66.2826 27.5881 67.5752 28.2744 67.9985 27.1518C68.3854 26.1337 66.9608 25.6928 66.2781 25.0429C65.3997 24.2112 64.5303 23.3976 64.1981 22.1523C63.3379 18.939 65.5681 16.4984 69.5278 16.5484Z" fill="#214866"/>
<path d="M68.0945 15.7166C67.2571 15.7666 66.4469 15.562 65.6231 15.4757C64.3897 15.3439 64.0028 14.703 63.9664 13.5259C63.889 11.0034 63.93 10.9307 66.4333 11.008C66.9931 11.0262 67.735 11.3398 68.0581 10.6217C68.3813 9.90356 67.6713 9.57178 67.2662 9.17182C66.5698 8.48553 65.7596 7.89468 65.1407 7.14931C64.0802 5.86309 63.5886 4.39506 64.2622 2.7407C64.9586 1.03179 66.2694 0.150069 68.0945 0.0364448C68.8455 -0.00900485 69.6056 -0.0135498 70.3566 0.0318998C72.8599 0.181884 72.9464 0.350047 72.9191 2.86796C72.9054 4.0951 72.646 4.7723 71.2396 4.41779C70.8345 4.3178 70.2656 4.24053 70.1108 4.82683C70.0107 5.20861 70.302 5.52676 70.6069 5.77219C70.8982 6.00852 71.1986 6.24032 71.4808 6.49029C73.5244 8.31737 74.2435 10.7807 73.3879 13.0032C72.7234 14.7303 70.8254 15.7075 68.0945 15.7166Z" fill="#214866"/>
<path d="M121.569 9.83086C121.569 8.54918 121.519 7.25841 121.583 5.98128C121.638 4.88594 121.374 4.27237 120.104 4.31328C118.088 4.38145 118.952 2.81798 118.816 1.859C118.661 0.781841 118.989 0.168271 120.272 0.204631C122.844 0.272805 125.42 0.245535 127.991 0.195541C129.097 0.172816 129.58 0.690942 129.412 1.69538C129.252 2.64982 130.14 4.28146 128.228 4.28601C126.631 4.29055 126.585 5.12228 126.608 6.30397C126.658 8.79461 126.594 11.2898 126.644 13.7804C126.667 14.9394 126.226 15.3394 125.051 15.3848C121.565 15.5212 121.565 15.5711 121.565 12.0988C121.565 11.3443 121.565 10.5899 121.565 9.83086C121.574 9.83086 121.569 9.83086 121.569 9.83086Z" fill="#214866"/>
<path d="M122.671 26.7245C122.671 27.779 122.68 28.8379 122.671 29.8924C122.643 32.0649 122.639 32.0694 120.363 32.1058C119.985 32.1103 119.603 32.0831 119.23 32.1149C117.983 32.2239 117.487 31.7513 117.537 30.4287C117.632 27.8653 117.537 25.2974 117.573 22.7341C117.587 21.7251 117.532 20.9524 116.18 21.0115C114.237 21.0979 114.924 19.5708 114.801 18.58C114.642 17.2983 115.284 16.8438 116.531 16.8711C118.948 16.9211 121.369 16.9029 123.79 16.862C124.91 16.8438 125.547 17.2074 125.406 18.4209C125.292 19.4299 126.03 20.9343 124.164 20.9888C122.762 21.0297 122.575 21.7296 122.643 22.875C122.716 24.1521 122.662 25.4383 122.662 26.7245C122.662 26.7245 122.666 26.7245 122.671 26.7245Z" fill="#214866"/>
<path d="M90.6235 24.5475C90.6235 22.5887 90.6736 20.6298 90.6053 18.6709C90.5598 17.2892 91.1515 16.7893 92.4987 16.8438C96.2172 16.9938 95.8212 16.453 95.8258 20.0753C95.8258 22.1069 95.8713 24.143 95.8076 26.1746C95.7621 27.4836 96.1353 28.0881 97.5917 28.0563C99.7218 28.0108 100.523 29.2743 99.8948 31.3332C99.6945 31.9876 99.2303 32.0785 98.6841 32.0831C96.4948 32.0967 94.3056 32.074 92.1164 32.1149C90.8966 32.1376 90.578 31.515 90.6007 30.4196C90.6462 28.4608 90.6144 26.5019 90.6144 24.543C90.6144 24.5475 90.6189 24.5475 90.6235 24.5475Z" fill="#214866"/>
<path d="M131.797 24.452C131.797 26.4108 131.71 28.3743 131.824 30.3241C131.91 31.7739 131.3 32.1602 129.976 32.1193C126.048 31.9921 126.603 32.4693 126.581 28.7379C126.562 25.4246 126.663 22.1068 126.567 18.7935C126.521 17.2709 127.086 16.7119 128.533 16.8619C128.834 16.8937 129.139 16.8619 129.439 16.8664C131.806 16.8801 131.806 16.8801 131.801 19.2525C131.801 20.9842 131.801 22.7158 131.801 24.4474C131.801 24.452 131.797 24.452 131.797 24.452Z" fill="#214866"/>
<path d="M63.9208 37.2096C64.2166 36.5233 63.4156 34.8462 64.5034 34.8644C65.8369 34.8871 65.1178 36.5279 65.1861 37.4459C65.3317 39.4366 65.3499 39.4548 67.2479 39.5048C68.2765 39.5321 68.4221 39.1412 68.5496 38.2368C68.8045 36.4506 70.2973 35.5689 71.8175 36.1143C72.878 36.496 73.6427 37.8504 73.3377 38.8094C72.9326 40.0911 71.4807 41.091 70.3429 40.5274C69.205 39.9639 68.3175 39.9457 67.2752 40.5456C66.9793 40.7138 66.5333 40.6411 66.1555 40.6501C64.1347 40.7001 63.9708 40.5411 63.9253 38.5186C63.9162 38.1459 63.9208 37.7686 63.9208 37.2096ZM71.194 39.5003C71.6673 39.3548 72.1088 38.9821 72.0724 38.2731C72.0314 37.4868 71.6082 36.9687 70.7798 37.0869C70.0789 37.1869 69.7648 37.7732 69.8468 38.414C69.9196 39.023 70.2291 39.573 71.194 39.5003Z" fill="#214866"/>
<path d="M74.5846 36.7916C75.5222 36.119 77.8753 35.8372 78.4487 36.478C79.227 37.3416 78.8356 38.4869 78.7446 39.4731C78.5534 41.5184 76.9513 42.4592 75.0306 41.7911C74.7575 41.6956 74.3934 41.6184 74.4025 41.2593C74.4116 40.8684 74.7848 40.8912 75.0534 40.8775C75.3492 40.8594 75.6542 40.923 75.95 40.9003C76.2868 40.8775 76.8102 41.023 76.8011 40.4912C76.7966 40.2049 76.3232 40.264 76.0456 40.2458C75.3993 40.2003 74.9032 39.9276 74.6119 39.3322C74.7939 39.155 74.9714 38.9732 75.1535 38.7959C75.4994 38.9277 75.8408 39.1595 76.1912 39.1777C76.8375 39.2095 77.4201 38.955 77.452 38.2096C77.4884 37.4188 77.0833 36.9098 76.2231 37.0007C75.8681 37.037 75.5313 37.237 75.1854 37.3643C74.9805 37.1734 74.7848 36.9825 74.5846 36.7916Z" fill="#214866"/>
<path d="M84.6156 36.5734C84.5382 36.6734 84.4654 36.8643 84.3789 36.8688C83.0726 36.9733 83.0772 37.4278 84.0967 38.0323C84.8386 38.4732 85.362 39.0004 84.8932 39.8412C84.3926 40.7366 83.5187 40.9774 82.5356 40.6502C82.176 40.532 81.7664 40.3048 81.8346 39.8821C81.8847 39.6003 82.3034 39.6049 82.6038 39.564C82.9224 39.5231 83.4277 39.8276 83.5005 39.2776C83.5278 39.0867 83.1682 38.8322 82.9634 38.6232C82.8587 38.5186 82.7176 38.4459 82.5902 38.3686C81.9848 38.005 81.3476 37.5914 81.912 36.7961C82.5219 35.9371 83.4049 35.8553 84.3425 36.237C84.4608 36.2825 84.5246 36.4507 84.6156 36.5734Z" fill="#214866"/>
<path d="M91.5794 38.3141C91.6021 36.8188 92.7718 35.8371 94.3057 36.0325C94.6743 36.078 95.1295 36.1098 95.1568 36.5916C95.1841 37.1461 94.7153 37.0688 94.3648 37.0506C93.6867 37.0143 93.1906 37.2551 92.9311 37.9005C92.74 38.3687 92.8674 38.7822 93.1997 39.1413C93.5456 39.5185 93.9825 39.5413 94.4513 39.4776C94.7654 39.4367 95.1795 39.4867 95.2159 39.773C95.2706 40.173 94.8882 40.4321 94.515 40.5411C93.0904 40.9729 91.5566 39.7958 91.5794 38.3141Z" fill="#214866"/>
<path d="M97.888 39.2277C97.9198 38.8187 97.5193 38.6596 97.2189 38.4869C96.4406 38.046 96.0628 37.4461 96.5726 36.6462C97.0505 35.9054 97.8652 35.9463 98.6253 36.1326C99.0076 36.228 99.3808 36.7325 98.8301 36.8325C97.3964 37.0961 97.6604 37.4552 98.6207 38.0188C99.4081 38.4823 99.663 39.1595 99.217 39.9186C98.8529 40.5412 98.1747 40.7594 97.4374 40.6094C97.0642 40.5321 96.5999 40.4321 96.5544 40.0185C96.4952 39.4686 97.0277 39.6368 97.3463 39.564C97.5466 39.5186 97.806 39.5913 97.888 39.2277Z" fill="#214866"/>
<path d="M86.8138 35.1189C87.4692 35.1371 87.5693 35.9143 88.0791 36.2142C88.5297 36.4824 88.2566 36.7414 87.9653 37.055C87.1733 37.9004 87.1733 38.773 88.1109 39.5457C88.3521 39.7457 88.5843 39.9275 88.3977 40.2547C88.1837 40.6365 87.806 40.6728 87.4237 40.6047C87.0413 40.5365 86.6363 40.3501 86.5361 39.9956C86.1493 38.6549 85.8443 37.2914 86.0491 35.8825C86.0855 35.537 86.2903 35.1734 86.8138 35.1189Z" fill="#214866"/>
<path d="M79.746 38.2868C79.9417 37.7368 79.3227 36.5461 80.3514 36.5597C81.2207 36.5688 80.7655 37.755 80.9203 38.414C80.9521 38.5549 80.9339 38.714 80.8975 38.8549C80.7838 39.3139 81.0841 40.0957 80.4242 40.1457C79.5002 40.2138 79.8325 39.3503 79.7551 38.8231C79.7278 38.6731 79.746 38.5231 79.746 38.2868Z" fill="#214866"/>
<path d="M89.6042 38.0369C89.7953 37.5734 89.1354 36.5189 90.1276 36.5371C91.0015 36.5507 90.5645 37.6006 90.7011 38.1915C90.7648 38.4687 90.7102 38.7823 90.6783 39.0732C90.6374 39.4822 90.7921 40.0958 90.2004 40.1322C89.3675 40.1822 89.677 39.4459 89.6133 39.005C89.5723 38.7141 89.6042 38.4142 89.6042 38.0369Z" fill="#214866"/>
<path d="M74.6121 39.3321C73.6837 38.4959 73.7064 37.646 74.5848 36.7915C74.7851 36.9824 74.9808 37.1733 75.1811 37.3642C75.0081 37.8368 74.9581 38.3141 75.1492 38.7958C74.9717 38.9776 74.7897 39.1549 74.6121 39.3321Z" fill="#214866"/>
</g>
<defs>
<clipPath id="clip0_16_9977">
<rect width="162.75" height="42" fill="white"/>
</clipPath>
</defs>
</svg>
