<svg width="316" height="184" viewBox="0 0 316 184" fill="none" xmlns="http://www.w3.org/2000/svg">
<g clip-path="url(#clip0_16_9257)">
<path d="M181.682 63.0807C181.723 63.4728 181.535 63.8016 181.404 64.1508C180.759 65.8816 180.129 67.6175 179.491 69.3504C179.368 69.6823 179.283 70.0366 178.969 70.2623C178.842 70.3542 178.877 70.4746 178.884 70.6186C178.906 71.0342 178.715 71.4049 178.54 71.7705C178.468 71.9195 178.322 71.9747 178.155 71.9747C175.604 71.9737 173.052 71.9747 170.526 71.9747C170.35 71.747 170.482 71.5846 170.546 71.4182C171.576 68.7112 172.609 66.0042 173.638 63.2971C173.673 63.2042 173.676 63.1001 173.694 63C174.103 63 174.512 63 174.921 63C174.991 63.0929 175.092 63.1011 175.196 63.1001C177.358 63.0939 179.519 63.0868 181.682 63.0807Z" fill="#D7BF80"/>
<path d="M190.592 63C190.813 63.1338 190.677 63.3002 190.622 63.4452C189.586 66.1931 188.544 68.9389 187.51 71.6877C187.443 71.8685 187.365 71.9757 187.155 71.9757C184.721 71.9665 182.286 71.9614 179.851 71.9543C179.822 71.9543 179.792 71.9298 179.722 71.8971C179.832 71.5846 179.938 71.266 180.057 70.9525C181.022 68.412 181.991 65.8755 182.955 63.337C182.995 63.2308 183.07 63.1236 182.999 63C183.203 63 183.408 63 183.612 63C183.698 63.1103 183.821 63.099 183.939 63.098C185.197 63.0939 186.455 63.0899 187.714 63.0858C188.309 63.0899 188.906 63.1154 189.5 63.0919C189.863 63.0776 190.244 63.2114 190.592 63Z" fill="#1A4873"/>
<path d="M172.263 63C172.135 63.775 171.812 64.4888 171.542 65.2169C170.769 67.301 169.963 69.3739 169.204 71.4631C169.053 71.8797 168.84 71.9839 168.426 71.9798C166.315 71.9614 164.203 71.9716 162.093 71.9716C161.861 71.9716 161.627 71.9716 161.313 71.9716C161.645 71.071 161.945 70.2459 162.252 69.4229C162.976 67.4827 163.703 65.5436 164.432 63.6055C164.51 63.3993 164.607 63.2012 164.696 63C164.73 63 164.764 63 164.798 63C164.916 63.144 165.079 63.0919 165.226 63.0929C167.399 63.1001 169.571 63.1052 171.744 63.1052C171.886 63.1052 172.056 63.1675 172.16 63C172.194 63 172.229 63 172.263 63Z" fill="#32A5A5"/>
<path d="M210.607 84.5458C210.02 85.0206 209.341 84.7265 208.709 84.8338C208.682 84.7265 208.656 84.6775 208.661 84.6326C208.694 84.3324 208.807 83.9964 208.467 83.8065C208.08 83.59 207.677 83.6329 207.305 83.8657C206.977 84.071 206.712 84.3385 206.7 84.7531C206.693 84.9961 206.886 85.0972 207.094 85.1554C207.518 85.2749 207.943 85.3882 208.368 85.5097C209.526 85.8406 209.909 86.6207 209.458 87.7307C208.713 89.5687 206.583 90.693 204.622 90.2856C203.404 90.0323 202.954 89.2164 203.39 88.0554C203.445 87.9094 203.484 87.7685 203.69 87.7715C204.197 87.7787 204.704 87.7736 205.193 87.7736C205.221 87.8522 205.247 87.8859 205.242 87.9114C205.025 88.8478 205.34 89.1797 206.293 88.9938C206.793 88.8968 207.227 88.6936 207.453 88.1831C207.614 87.8175 207.565 87.5489 207.157 87.4274C206.767 87.312 206.373 87.215 205.978 87.119C205.642 87.0374 205.343 86.8842 205.062 86.6881C204.668 86.4134 204.539 86.0315 204.616 85.5771C204.972 83.4726 207.285 81.946 209.365 82.4372C209.851 82.5526 210.207 82.8375 210.455 83.2704C210.508 83.1816 210.558 83.0989 210.608 83.0151C210.607 83.5247 210.607 84.0352 210.607 84.5458Z" fill="#1A4873"/>
<path d="M175.535 121C175.512 120.802 175.23 120.7 175.348 120.422C175.542 120.369 175.718 120.385 175.928 120.519C176.264 120.73 176.448 120.605 176.501 120.137C176.135 120.298 175.776 120.365 175.476 120.051C175.186 119.747 175.199 119.364 175.271 118.995C175.348 118.595 175.645 118.339 176.037 118.4C176.36 118.45 176.674 118.456 177.018 118.409C177.018 119.109 177.022 119.762 177.016 120.415C177.014 120.674 176.825 120.832 176.659 120.999C176.284 121 175.91 121 175.535 121ZM175.751 119.225C175.757 119.521 175.767 119.83 176.131 119.853C176.448 119.874 176.488 119.591 176.52 119.352C176.561 119.059 176.449 118.817 176.143 118.798C175.894 118.783 175.767 118.988 175.751 119.225Z" fill="#1A4873"/>
<path d="M154.164 121C153.982 120.851 153.764 120.723 153.837 120.434C154.183 120.122 154.816 121.114 155.075 120.147C154.977 120.147 154.928 120.134 154.891 120.149C154.353 120.372 154.001 120.282 153.827 119.872C153.587 119.311 153.765 118.643 154.209 118.449C154.301 118.409 154.427 118.349 154.5 118.382C154.82 118.524 155.149 118.465 155.507 118.43C155.507 119.095 155.511 119.722 155.504 120.348C155.501 120.648 155.338 120.855 155.084 121C154.777 121 154.471 121 154.164 121ZM155.042 119.31C155.039 119.007 154.895 118.803 154.628 118.799C154.297 118.793 154.23 119.072 154.242 119.34C154.253 119.603 154.319 119.881 154.661 119.856C154.995 119.834 155 119.533 155.042 119.31Z" fill="#1A4873"/>
<path d="M125.329 121C125.158 120.846 124.945 120.713 125.017 120.428C126.146 120.316 126.163 120.312 126.175 120.132C125.794 120.318 125.405 120.387 125.124 120.014C124.85 119.648 124.846 119.224 125.025 118.806C125.154 118.504 125.429 118.326 125.713 118.393C126.026 118.468 126.325 118.439 126.673 118.435C126.673 119.124 126.682 119.796 126.669 120.468C126.664 120.734 126.46 120.88 126.248 121.001C125.942 121 125.635 121 125.329 121ZM126.214 119.32C126.22 119.004 126.089 118.792 125.812 118.791C125.482 118.79 125.426 119.058 125.431 119.335C125.436 119.613 125.501 119.872 125.841 119.855C126.188 119.837 126.166 119.524 126.214 119.32Z" fill="#1A4873"/>
<path d="M120.114 121C120.114 120.153 120.114 119.307 120.114 118.419C120.518 118.462 120.867 118.433 121.218 118.403C121.672 118.365 122.013 118.902 121.943 119.436C121.856 120.088 121.523 120.392 120.998 120.293C120.9 120.275 120.805 120.235 120.673 120.193C120.656 120.473 120.641 120.737 120.627 120.999C120.455 121 120.285 121 120.114 121ZM121.438 119.342C121.436 119.09 121.352 118.821 121.049 118.806C120.722 118.789 120.643 119.086 120.649 119.349C120.655 119.597 120.682 119.904 121.028 119.908C121.364 119.912 121.413 119.636 121.438 119.342Z" fill="#1A4873"/>
<path d="M118.171 121C118.171 120.159 118.171 119.319 118.171 118.44C118.514 118.423 118.848 118.434 119.178 118.391C119.48 118.351 119.718 118.576 119.828 118.868C119.986 119.286 119.984 119.703 119.686 120.066C119.484 120.314 119.214 120.381 118.908 120.27C118.832 120.242 118.758 120.213 118.647 120.171C118.623 120.473 118.602 120.736 118.581 121C118.444 121 118.307 121 118.171 121ZM119.403 119.469C119.411 119.116 119.392 118.81 119.028 118.803C118.763 118.798 118.606 118.996 118.618 119.285C118.629 119.564 118.645 119.871 118.995 119.908C119.332 119.942 119.403 119.679 119.403 119.469Z" fill="#1A4873"/>
<path d="M172.16 63C172.056 63.1675 171.886 63.1052 171.744 63.1052C169.571 63.1052 167.398 63.1001 165.225 63.0929C165.079 63.0929 164.915 63.144 164.798 63C167.252 63 169.706 63 172.16 63Z" fill="#79DCDA"/>
<path d="M181.682 63.0807C179.519 63.0868 177.358 63.0939 175.196 63.1001C175.093 63.1001 174.99 63.0929 174.921 63C177.17 63 179.42 63 181.67 63C181.681 63.0255 181.685 63.0531 181.682 63.0807Z" fill="#F0DEA8"/>
<path d="M187.714 63.0858C186.455 63.0899 185.197 63.0939 183.938 63.098C183.821 63.098 183.697 63.1093 183.612 63C184.975 63 186.339 63 187.702 63C187.704 63.0286 187.709 63.0572 187.714 63.0858Z" fill="#306FAA"/>
<path d="M187.714 63.0858C187.709 63.0572 187.705 63.0286 187.703 63C188.657 63 189.612 63 190.566 63C190.566 63 190.594 63 190.593 63C190.245 63.2114 189.864 63.0776 189.501 63.0919C188.907 63.1154 188.309 63.0909 187.714 63.0858Z" fill="#538ABF"/>
<path d="M174.794 81.9624C174.524 82.9774 174.143 83.9536 173.788 84.938C173.041 87.0088 172.293 89.0797 171.548 91.1515C170.488 94.1006 169.428 97.0496 168.379 100.002C168.302 100.221 168.182 100.277 167.97 100.292C165.624 100.444 163.275 100.332 160.927 100.353C160.73 100.355 160.533 100.278 160.266 100.224C160.622 99.2062 160.964 98.2188 161.315 97.2354C161.788 95.91 162.272 94.5886 162.746 93.2642C163.124 92.2115 163.499 91.1577 163.863 90.0998C164.726 87.5898 165.723 85.1269 166.519 82.5945C166.674 82.1054 166.89 81.847 167.478 81.8583C169.709 81.9011 171.94 81.8807 174.17 81.8879C174.368 81.8889 174.576 81.8511 174.794 81.9624Z" fill="#D7BF80"/>
<path d="M168.445 73.866C168.447 74.2468 168.258 74.5613 168.141 74.8902C166.82 78.5774 165.486 82.2606 164.164 85.9469C163.476 87.8646 162.8 89.7864 162.121 91.7081C162.037 91.945 161.944 92.1247 161.633 92.1258C159.248 92.1309 156.863 92.1492 154.479 92.1635C154.429 92.1635 154.38 92.1482 154.252 92.1278C154.491 91.4518 154.722 90.7901 154.959 90.1315C156.202 86.6627 157.443 83.1929 158.691 79.7252C159.357 77.8718 160.039 76.0236 160.706 74.1703C160.792 73.9313 160.908 73.8149 161.181 73.8159C163.531 73.8261 165.883 73.8251 168.234 73.8282C168.299 73.8282 168.364 73.8506 168.445 73.866Z" fill="#32A5A5"/>
<path d="M165.972 110.515C166.681 108.533 167.349 106.665 168.018 104.798C169.464 100.763 170.914 96.7298 172.349 92.6913C172.455 92.3931 172.577 92.2563 172.917 92.2593C175.215 92.2787 177.515 92.2777 179.815 92.2849C179.912 92.2849 180.008 92.3063 180.137 92.3216C179.918 92.9915 179.724 93.6399 179.496 94.275C178.128 98.092 176.751 101.906 175.381 105.723C174.853 107.193 174.334 108.668 173.815 110.142C173.739 110.36 173.672 110.524 173.374 110.523C170.94 110.51 168.505 110.515 165.972 110.515Z" fill="#1A4873"/>
<path d="M154.756 110.395C154.914 110.053 155.043 109.763 155.181 109.478C156.194 107.404 157.212 105.333 158.215 103.255C158.344 102.988 158.503 102.892 158.796 102.903C159.387 102.924 159.979 102.909 160.647 102.909C159.775 104.712 158.935 106.451 158.068 108.246C159.172 108.246 160.208 108.247 161.244 108.245C161.359 108.245 161.488 108.268 161.551 108.126C161.966 107.18 162.502 106.291 162.854 105.317C162.875 105.26 162.849 105.185 162.843 105.09C162.362 105.357 162.025 105.749 161.659 106.108C161.541 106.223 161.46 106.398 161.263 106.399C160.573 106.403 159.882 106.4 159.053 106.4C159.558 105.865 159.969 105.428 160.382 104.992C160.779 104.573 161.225 104.191 161.564 103.73C162.07 103.04 162.697 102.827 163.531 102.893C164.423 102.962 165.323 102.908 166.255 102.908C166.165 103.5 165.785 103.89 165.574 104.355C164.696 106.287 163.749 108.187 162.826 110.099C162.752 110.252 162.686 110.399 162.464 110.398C159.916 110.394 157.366 110.395 154.756 110.395Z" fill="#1A4873"/>
<path d="M144.754 102.918C144.114 104.236 143.487 105.439 142.943 106.678C142.454 107.793 141.776 108.655 140.735 109.363C139.693 110.074 138.707 110.523 137.421 110.418C136.187 110.317 134.937 110.399 133.694 110.395C133.532 110.394 133.357 110.449 133.165 110.308C133.534 109.536 133.9 108.758 134.274 107.985C135.013 106.463 135.762 104.948 136.491 103.424C136.662 103.067 136.864 102.902 137.296 102.906C139.747 102.931 142.196 102.918 144.754 102.918ZM136.389 108.242C137.282 108.242 138.081 108.225 138.879 108.247C139.517 108.266 139.993 107.888 140.275 107.457C140.76 106.715 141.073 105.861 141.485 104.999C140.347 104.999 139.265 105 138.185 104.998C138.029 104.998 137.942 105.066 137.874 105.206C137.395 106.197 136.91 107.182 136.389 108.242Z" fill="#1A4873"/>
<path d="M140.825 95.5486C138.907 95.5486 137.095 95.5486 135.195 95.5486C135.482 94.8317 135.786 94.2221 136.112 93.6217C136.198 93.4634 136.332 93.4287 136.495 93.4287C138.979 93.4297 141.463 93.4297 144.086 93.4297C143.214 95.2433 142.379 96.9802 141.521 98.7651C141.807 98.8009 141.986 98.8233 142.237 98.855C141.957 99.5636 141.675 100.238 141.273 100.858C141.196 100.977 141.064 100.957 140.948 100.957C138.224 100.954 135.501 100.95 132.777 100.944C132.73 100.944 132.682 100.923 132.595 100.902C132.834 100.222 133.165 99.5994 133.479 98.9693C133.584 98.76 133.801 98.8162 133.983 98.8162C135.584 98.8141 137.184 98.8049 138.784 98.8213C139.144 98.8254 139.331 98.7018 139.479 98.373C139.885 97.4642 140.333 96.5717 140.825 95.5486Z" fill="#32A5A5"/>
<path d="M152.856 93.4294C153.678 93.4294 154.442 93.4355 155.206 93.4263C155.466 93.4233 155.55 93.555 155.611 93.7817C155.82 94.5659 156.049 95.345 156.282 96.167C156.904 95.8709 157.546 95.6677 157.791 94.9161C157.926 94.5005 158.169 94.1217 158.358 93.7235C158.435 93.5632 158.514 93.4304 158.726 93.4324C159.367 93.4386 160.009 93.4345 160.709 93.4345C160.503 94.1789 160.033 94.7252 159.808 95.3746C159.508 96.2375 158.999 96.8757 158.138 97.2249C157.919 97.3138 157.726 97.4608 157.52 97.5803C156.75 98.0265 156.754 98.0245 157.012 98.9077C157.198 99.5408 157.369 100.178 157.539 100.787C157.38 101.021 157.174 100.949 156.999 100.953C156.438 100.964 155.875 100.941 155.314 100.966C154.937 100.984 154.767 100.825 154.679 100.473C154.465 99.6225 154.224 98.7791 153.984 97.8938C153.311 98.1695 152.699 98.4268 152.399 99.1171C152.175 99.6307 151.916 100.128 151.684 100.638C151.59 100.844 151.466 100.963 151.225 100.96C150.617 100.952 150.008 100.957 149.349 100.957C149.598 100.181 150.062 99.5694 150.293 98.871C150.669 97.7365 151.516 97.1371 152.507 96.6429C153.508 96.1425 153.502 96.1364 153.225 95.0857C153.104 94.6261 152.995 94.1636 152.883 93.702C152.867 93.6377 152.869 93.5693 152.856 93.4294Z" fill="#32A5A5"/>
<path d="M200.788 87.658C201.271 86.4521 201.754 85.2451 202.237 84.0391C202.287 83.9125 202.334 83.7849 202.387 83.6603C202.893 82.4584 203.083 82.3645 204.477 82.6392C204.214 83.6082 203.77 84.5058 203.409 85.433C202.868 86.8248 202.293 88.2053 201.778 89.6063C201.615 90.0474 201.4 90.2078 200.935 90.1761C200.33 90.1342 199.719 90.1659 199.049 90.1659C199.124 88.4269 199.197 86.7512 199.27 85.0756C199.245 85.0664 199.221 85.0582 199.197 85.049C199.082 85.3074 198.958 85.5616 198.854 85.8241C198.345 87.1199 197.83 88.4136 197.342 89.7176C197.216 90.0536 197.052 90.2027 196.682 90.17C196.295 90.1363 195.902 90.1628 195.537 90.1628C195.432 90.0403 195.474 89.9453 195.512 89.8504C196.43 87.5661 197.354 85.2839 198.261 82.9945C198.386 82.68 198.536 82.5473 198.892 82.5667C199.533 82.6014 200.179 82.5759 200.889 82.5759C200.835 84.2975 200.783 85.968 200.731 87.6386C200.749 87.6447 200.769 87.6509 200.788 87.658Z" fill="#1A4873"/>
<path d="M182.894 76.5288C183.538 77.1608 183.628 77.5979 183.243 78.4332C182.729 79.5503 181.83 80.2099 180.635 80.4182C179.256 80.6592 177.862 80.502 176.436 80.5254C176.475 80.0302 176.687 79.6595 176.84 79.2735C177.619 77.3201 178.411 75.3708 179.18 73.4133C179.304 73.0978 179.459 72.962 179.807 72.9834C181.044 73.059 182.292 72.8609 183.524 73.1008C184.219 73.2356 184.507 73.6502 184.387 74.3425C184.271 75.0032 183.98 75.5658 183.423 75.9651C183.207 76.1213 183.03 76.3072 182.894 76.5288ZM178.892 78.9304C179.455 78.9304 179.897 78.9386 180.339 78.9284C180.894 78.9162 181.269 78.6394 181.455 78.1258C181.614 77.6888 181.454 77.4222 180.989 77.3988C180.563 77.3773 180.137 77.3885 179.712 77.3916C179.617 77.3926 179.498 77.363 179.442 77.4804C179.225 77.9308 179.007 78.3811 178.892 78.9304ZM180.141 75.8456C180.602 75.8456 181.009 75.862 181.414 75.8405C181.823 75.8191 182.108 75.5791 182.285 75.2238C182.46 74.8715 182.333 74.609 181.943 74.5662C181.574 74.5253 181.197 74.5457 180.823 74.5386C180.694 74.5365 180.588 74.5692 180.543 74.706C180.425 75.0726 180.179 75.3943 180.141 75.8456Z" fill="#32A5A5"/>
<path d="M180.443 90.1232C181.385 87.742 182.317 85.4107 183.225 83.0693C183.369 82.6966 183.545 82.5424 183.962 82.5628C184.863 82.6057 185.767 82.5873 186.67 82.5986C186.857 82.6006 187.046 82.6077 187.229 82.6425C188.256 82.8375 188.635 83.491 188.243 84.4693C187.916 85.2882 187.458 86.0193 186.5 86.3583C187.152 86.7974 186.901 87.3284 186.721 87.8543C186.469 88.5875 186.087 89.2829 186.096 90.1253C185.48 90.1253 184.879 90.1253 184.25 90.1253C184.201 89.6586 184.434 89.2716 184.574 88.8652C184.695 88.5129 184.856 88.1729 184.967 87.8186C185.082 87.4561 184.956 87.2222 184.543 87.2049C184.509 87.2038 184.474 87.2018 184.44 87.1998C183.322 87.1507 183.323 87.1507 182.946 88.1892C182.866 88.4129 182.788 88.6375 182.696 88.857C182.093 90.2938 182.092 90.2938 180.443 90.1232ZM183.996 85.6272C184.454 85.6272 184.842 85.6466 185.229 85.6231C185.829 85.5864 186.269 85.2463 186.361 84.7817C186.402 84.5734 186.417 84.362 186.162 84.2752C185.653 84.1037 185.104 84.068 184.612 84.2038C184.317 84.2855 184.311 84.7685 184.188 85.0768C184.126 85.232 184.077 85.3913 183.996 85.6272Z" fill="#1A4873"/>
<path d="M175.218 72.9925C175.14 74.4303 175.07 75.768 174.991 77.1056C174.938 78.0206 174.863 78.9345 174.818 79.8504C174.795 80.3059 174.68 80.5795 174.13 80.5111C173.698 80.457 173.253 80.4999 172.805 80.4999C172.649 80.0475 172.925 79.6217 172.834 79.1224C172.059 79.1224 171.281 79.1193 170.504 79.1244C170.303 79.1254 170.197 79.2888 170.134 79.4379C169.741 80.3722 169.037 80.6867 168.069 80.504C167.89 80.4703 167.697 80.5438 167.515 80.4417C167.51 80.216 167.67 80.072 167.786 79.9148C169.301 77.849 170.835 75.7986 172.33 73.7186C172.697 73.208 173.064 72.8884 173.737 72.9793C174.2 73.0426 174.679 72.9925 175.218 72.9925ZM173.299 75.0062C172.647 75.8343 172 76.6288 171.493 77.5815C171.95 77.5815 172.325 77.5764 172.699 77.5835C172.915 77.5876 173.053 77.5386 173.074 77.2854C173.141 76.5246 173.224 75.7659 173.299 75.0062Z" fill="#32A5A5"/>
<path d="M195 82.5789C194.869 84.0616 194.745 85.4646 194.622 86.8676C194.537 87.8336 194.439 88.7975 194.372 89.7646C194.352 90.0709 194.25 90.1802 193.942 90.1669C193.452 90.1454 192.96 90.1607 192.419 90.1607C192.485 89.6706 192.544 89.2274 192.609 88.7342C191.878 88.7342 191.182 88.7404 190.487 88.7312C190.197 88.7271 190.096 88.9579 190.023 89.1406C189.666 90.0382 189.006 90.318 188.095 90.1638C187.92 90.1342 187.735 90.1597 187.547 90.1597C187.549 89.8718 187.719 89.7339 187.831 89.5756C189.407 87.3506 190.993 85.1317 192.565 82.9046C192.729 82.6728 192.898 82.5585 193.191 82.5707C193.766 82.5952 194.342 82.5789 195 82.5789ZM193.15 84.5895C193.124 84.5823 193.097 84.5752 193.071 84.568C192.515 85.4074 191.959 86.2457 191.375 87.128C191.904 87.128 192.352 87.128 192.838 87.128C192.944 86.2652 193.047 85.4268 193.15 84.5895Z" fill="#1A4873"/>
<path d="M186.491 78.9235C187.524 78.9235 188.488 78.9235 189.488 78.9235C189.428 79.4943 189.129 79.9171 188.959 80.3847C188.919 80.4981 188.83 80.5236 188.717 80.5236C187.173 80.5216 185.629 80.5226 184.038 80.5226C184.237 79.7455 184.565 79.0767 184.836 78.3874C185.482 76.7444 186.138 75.1055 186.77 73.4574C186.905 73.1061 187.075 72.9683 187.47 72.9775C188.746 73.0091 190.024 72.9918 191.301 72.9938C191.481 72.9938 191.661 72.9938 191.92 72.9938C191.713 73.5064 191.544 73.9271 191.375 74.3468C191.284 74.5715 191.085 74.55 190.898 74.55C190.166 74.5521 189.433 74.5745 188.702 74.5439C188.321 74.5276 188.142 74.6817 188.042 75.0177C187.971 75.2577 187.869 75.4884 187.754 75.7958C188.581 75.7958 189.355 75.7958 190.176 75.7958C190.105 76.3758 189.83 76.8118 189.662 77.2825C189.592 77.4766 189.397 77.4061 189.258 77.4081C188.679 77.4194 188.1 77.4286 187.521 77.4051C187.216 77.3928 187.046 77.5041 186.945 77.7788C186.809 78.1413 186.66 78.4977 186.491 78.9235Z" fill="#32A5A5"/>
<path d="M151.387 110.375C152.263 108.555 153.081 106.853 153.953 105.043C152.222 105.043 150.615 105.043 148.912 105.043C149.266 104.312 149.573 103.679 149.877 103.046C149.954 102.886 150.098 102.912 150.23 102.912C152.101 102.91 153.974 102.91 155.845 102.909C155.963 102.909 156.074 102.905 156.172 103.004C156.567 103.401 156.678 104.072 156.42 104.607C155.59 106.335 154.752 108.057 153.932 109.789C153.731 110.213 153.482 110.446 152.967 110.387C152.486 110.332 151.993 110.375 151.387 110.375Z" fill="#1A4873"/>
<path d="M149.475 102.91C148.955 103.983 148.475 104.971 147.998 105.962C147.388 107.23 146.766 108.492 146.182 109.773C145.978 110.222 145.753 110.446 145.205 110.412C144.223 110.351 143.234 110.395 142.17 110.395C142.52 109.681 142.829 109.011 143.176 108.363C143.303 108.125 143.582 108.252 143.789 108.249C144.712 108.237 144.748 108.256 145.06 107.384C145.287 106.747 145.679 106.204 145.947 105.594C146.027 105.412 146.167 105.249 146.137 104.996C145.717 104.996 145.298 104.996 144.822 104.996C145.082 104.285 145.4 103.657 145.725 103.032C145.793 102.903 145.915 102.91 146.035 102.91C147.158 102.91 148.279 102.91 149.475 102.91Z" fill="#1A4873"/>
<path d="M175.693 90.1611C176.485 88.1587 177.242 86.241 178.033 84.2417C177.434 84.2417 176.89 84.2417 176.316 84.2417C176.36 83.6484 176.667 83.2205 176.807 82.7396C176.853 82.5823 177.006 82.5752 177.146 82.5752C178.829 82.5752 180.511 82.5752 182.239 82.5752C182.181 83.1368 181.875 83.5769 181.744 84.0722C181.697 84.2509 181.503 84.2202 181.351 84.2284C180.845 84.2549 180.221 84.0262 179.864 84.3203C179.517 84.6062 179.427 85.2107 179.239 85.6815C178.707 87.0202 178.173 88.3589 177.661 89.7047C177.536 90.0335 177.379 90.203 177 90.1703C176.597 90.1346 176.188 90.1611 175.693 90.1611Z" fill="#1A4873"/>
<path d="M148.598 113.276C148.233 113.882 147.88 114.468 147.502 115.095C148.031 115.208 148.402 115.165 148.6 114.632C148.699 114.367 148.912 114.145 149.037 113.886C149.304 113.332 149.681 113.03 150.363 113.266C150.027 113.856 149.683 114.461 149.276 115.175C149.866 115.048 150.257 114.832 150.533 114.432C150.658 114.251 150.768 114.055 150.85 113.851C151.083 113.27 151.486 113.058 152.086 113.251C151.684 114.515 150.58 115.895 148.99 115.793C148.077 115.735 147.156 115.783 146.245 115.783C146.18 115.5 146.306 115.294 146.438 115.141C146.796 114.725 147.045 114.246 147.317 113.78C147.697 113.132 147.725 113.114 148.598 113.276Z" fill="#1A4873"/>
<path d="M147.927 93.4348C147.478 94.5887 146.917 95.6026 146.385 96.6309C146.342 96.7157 146.284 96.7657 146.192 96.7657C145.54 96.7678 144.887 96.7667 144.153 96.7667C144.425 95.9243 144.936 95.2984 145.149 94.5631C145.431 93.5941 146.018 93.2643 146.978 93.4276C147.266 93.4767 147.572 93.4348 147.927 93.4348Z" fill="#32A5A5"/>
<path d="M147.178 96.7819C147.478 95.9354 147.949 95.2655 148.181 94.5232C148.513 93.4602 149.206 93.2948 150.143 93.4265C150.373 93.4592 150.611 93.4316 150.873 93.4316C150.858 93.8554 150.638 94.1474 150.49 94.4589C150.169 95.1318 149.819 95.7904 149.501 96.4643C149.401 96.6767 149.271 96.784 149.039 96.7819C148.447 96.7799 147.855 96.7819 147.178 96.7819Z" fill="#32A5A5"/>
<path d="M131.865 96.779C132.419 95.6271 132.91 94.607 133.4 93.5869C133.474 93.4327 133.614 93.4368 133.75 93.4368C134.361 93.4348 134.973 93.4358 135.647 93.4358C135.461 94.0801 135.121 94.6101 134.88 95.1789C134.747 95.4903 134.519 95.7701 134.429 96.0897C134.254 96.7126 133.848 96.8392 133.274 96.7861C132.856 96.7473 132.433 96.779 131.865 96.779Z" fill="#32A5A5"/>
<path d="M111.186 113.209C110.678 114.069 110.216 114.853 109.753 115.636C109.672 115.773 109.539 115.784 109.398 115.784C108.275 115.783 107.152 115.783 106.039 115.783C105.923 115.561 106.088 115.439 106.166 115.303C106.437 114.832 106.786 114.396 106.988 113.9C107.239 113.281 107.653 113.17 108.254 113.198C109.201 113.241 110.149 113.209 111.186 113.209ZM109.792 113.773C109.159 113.843 108.5 113.589 108.01 113.899C107.652 114.125 107.501 114.677 107.233 115.124C109.206 115.197 109.314 115.139 109.792 113.773Z" fill="#1A4873"/>
<path d="M124.302 107.708C123.331 110.102 122.651 111.013 119.569 110.639C119.848 110.116 120.115 109.613 120.384 109.113C120.457 108.978 120.568 108.856 120.604 108.714C120.828 107.827 121.402 107.593 122.264 107.694C122.916 107.77 123.586 107.708 124.302 107.708ZM123.115 108.462C121.588 108.305 121.099 108.63 120.854 109.942C122.271 110.145 122.668 109.591 123.115 108.462Z" fill="#1A4873"/>
<path d="M171.846 113.324C171.551 113.811 171.29 114.334 170.942 114.79C170.554 115.301 169.96 115.658 169.368 115.746C168.491 115.876 167.582 115.78 166.6 115.78C167.101 114.918 167.555 114.13 168.016 113.347C168.078 113.24 168.198 113.205 168.327 113.205C169.451 113.209 170.575 113.21 171.7 113.212C171.772 113.213 171.832 113.233 171.846 113.324ZM167.96 115.13C169.6 115.171 170.329 114.772 170.469 113.79C169.991 113.79 169.515 113.791 169.039 113.789C168.884 113.788 168.727 113.776 168.635 113.937C168.419 114.316 168.205 114.695 167.96 115.13Z" fill="#1A4873"/>
<path d="M120.568 107.774C120.079 108.698 119.603 109.592 119.133 110.492C119.061 110.63 118.973 110.69 118.816 110.689C117.955 110.684 117.093 110.687 116.186 110.687C116.325 110.206 116.579 109.844 116.771 109.455C116.967 109.06 117.216 108.688 117.379 108.281C117.575 107.79 117.873 107.578 118.437 107.758C118.224 108.528 117.63 109.13 117.387 109.897C118.489 110.114 118.489 110.114 119.293 108.651C118.942 108.813 118.625 108.928 118.238 108.796C118.858 108.103 119.45 107.443 120.568 107.774Z" fill="#1A4873"/>
<path d="M116.858 114.066C116.14 114.362 115.559 114.866 114.952 115.326C114.522 115.65 114.1 115.917 113.487 115.732C114.01 115.229 114.604 114.873 115.218 114.394C114.918 114.375 114.696 114.361 114.47 114.346C114.73 113.365 115.043 113.134 115.984 113.265C115.804 113.557 115.636 113.831 115.467 114.103C116.313 113.51 117.146 112.907 118.298 113.288C117.847 114.057 117.395 114.827 116.945 115.598C116.87 115.727 116.768 115.788 116.614 115.785C116.193 115.779 115.772 115.783 115.309 115.783C115.415 115.353 115.57 115.07 116.03 115.14C116.199 115.165 116.277 115.067 116.346 114.942C116.511 114.647 116.679 114.353 116.845 114.058C116.864 114.04 116.881 114.023 116.899 114.004C116.88 114.003 116.86 114.003 116.84 114.002C116.845 114.024 116.851 114.045 116.858 114.066Z" fill="#1A4873"/>
<path d="M124.071 113.253C123.952 114.281 123.069 114.475 122.34 114.834C122.323 115.16 122.522 115.421 122.552 115.751C122.175 115.782 121.735 115.936 121.482 115.69C121.244 115.458 121.202 115.025 121.065 114.656C120.765 114.791 120.46 114.866 120.331 115.185C120.103 115.751 119.692 115.92 119.05 115.727C119.38 115.294 119.432 114.7 120.055 114.475C120.466 114.327 121.036 114.219 120.703 113.522C120.676 113.464 120.629 113.327 120.747 113.223C121.069 113.249 121.487 113.05 121.737 113.319C121.947 113.546 121.981 113.933 122.099 114.263C122.438 114.172 122.718 114.025 122.867 113.721C123.121 113.205 123.534 113.113 124.071 113.253Z" fill="#1A4873"/>
<path d="M158.369 113.834C157.364 113.6 156.744 113.881 156.314 114.819C155.818 115.901 155.743 115.866 154.485 115.755C154.605 115.471 154.587 115.102 155.058 115.137C155.217 115.149 155.27 114.986 155.339 114.872C155.615 114.424 155.902 113.981 156.16 113.522C156.281 113.308 156.414 113.2 156.675 113.204C157.661 113.217 158.649 113.209 159.675 113.209C159.579 113.627 159.3 113.909 159.121 114.24C158.944 114.568 158.739 114.882 158.558 115.208C158.183 115.882 158.186 115.883 157.304 115.714C157.483 115.394 157.648 115.085 157.827 114.782C158.005 114.48 158.239 114.209 158.369 113.834Z" fill="#1A4873"/>
<path d="M184.006 113.788C183.51 113.788 183.108 113.796 182.706 113.785C182.488 113.779 182.421 113.927 182.336 114.076C182.11 114.474 181.851 114.857 181.661 115.271C181.459 115.709 181.154 115.857 180.694 115.791C180.495 115.763 180.289 115.786 180.039 115.786C180.164 115.462 180.213 115.143 180.637 115.132C180.819 115.127 180.852 114.938 180.932 114.811C181.255 114.293 181.471 113.616 181.934 113.304C182.402 112.987 183.12 113.227 183.727 113.21C184.219 113.196 184.711 113.207 185.23 113.207C185.216 113.542 184.99 113.741 184.857 113.98C184.642 114.365 184.397 114.734 184.183 115.12C183.779 115.852 183.785 115.856 182.873 115.731C183.063 115.393 183.239 115.072 183.423 114.755C183.597 114.454 183.783 114.158 184.006 113.788Z" fill="#1A4873"/>
<path d="M166.161 113.805C165.596 113.786 165.092 113.637 164.802 114.306C164.629 114.705 164.188 114.386 163.899 114.51C163.772 114.189 164.308 113.92 163.873 113.657C164.001 113.473 164.026 113.202 164.352 113.205C165.372 113.215 166.392 113.209 167.44 113.209C167.429 113.509 167.228 113.687 167.114 113.9C166.996 114.125 166.795 114.316 166.72 114.55C166.36 115.663 165.591 115.957 164.498 115.8C163.914 115.717 163.309 115.785 162.678 115.785C162.781 115.344 162.962 115.07 163.462 115.137C163.713 115.169 163.972 115.142 164.227 115.142C165.552 115.141 165.552 115.141 166.161 113.805Z" fill="#1A4873"/>
<path d="M189.758 94.5774C189.717 94.2435 189.819 94.1149 190.116 94.1251C190.59 94.1414 191.067 94.1292 191.594 94.1292C191.402 94.5478 191.228 94.9277 191.054 95.3076C191.008 95.4076 190.931 95.4597 190.826 95.4934C190.123 95.7221 189.409 95.8753 188.673 95.6884C188.032 95.5251 187.778 95.0329 187.976 94.3967C188.373 93.1152 189.766 92.3545 191.052 92.7272C191.446 92.8415 191.743 93.0713 191.815 93.5563C191.481 93.6309 191.218 93.7677 190.92 93.4042C190.562 92.9661 189.43 93.2071 189.058 93.7452C189.04 93.7718 189.046 93.8136 189.028 93.8402C188.758 94.2252 188.51 94.6326 188.865 95.0727C189.09 95.3515 190.116 95.2943 190.443 95.0124C190.533 94.9348 190.556 94.7827 190.626 94.6305C190.309 94.6122 190.044 94.5958 189.758 94.5774Z" fill="#1A4873"/>
<path d="M185.059 95.7669C184.687 95.7373 184.191 95.7179 183.934 95.2206C183.619 94.613 183.904 94.0657 184.259 93.6215C184.827 92.9088 185.608 92.5422 186.545 92.6606C187.583 92.7913 187.967 93.6133 187.414 94.516C186.905 95.3452 186.144 95.7587 185.059 95.7669ZM186.118 93.212C185.484 93.2141 184.94 93.6093 184.686 94.2546C184.59 94.4987 184.535 94.757 184.709 94.9796C184.902 95.2267 185.192 95.2982 185.488 95.24C186.12 95.1144 186.551 94.7233 186.774 94.131C186.994 93.5449 186.74 93.211 186.118 93.212Z" fill="#1A4873"/>
<path d="M138.719 115.128C139.297 115.169 139.673 114.895 139.981 114.52C140.14 114.326 140.253 114.091 140.367 113.866C140.727 113.154 140.801 113.116 141.668 113.266C140.582 115.457 139.956 116.009 136.892 115.75C137.03 115.439 137.076 115.077 137.555 115.143C137.744 115.17 137.811 114.999 137.889 114.872C138.1 114.524 138.309 114.175 138.512 113.822C138.9 113.148 138.943 113.126 139.822 113.267C139.453 113.89 139.095 114.493 138.719 115.128Z" fill="#1A4873"/>
<path d="M174.229 115.785C174.344 115.284 174.574 115.089 175.037 115.131C175.51 115.174 175.991 115.115 176.465 115.151C176.857 115.181 177.106 115.058 177.265 114.696C177.387 114.418 177.554 114.161 177.747 113.807C176.938 113.807 176.192 113.807 175.4 113.807C175.526 113.387 175.687 113.188 176.096 113.2C177.06 113.226 178.026 113.208 179.08 113.208C178.707 113.865 178.374 114.454 178.034 115.052C178.108 115.111 178.194 115.181 178.265 115.238C178.131 115.694 177.832 115.812 177.377 115.795C176.341 115.761 175.304 115.785 174.229 115.785Z" fill="#1A4873"/>
<path d="M131.002 115.786C131.131 115.307 131.324 115.078 131.773 115.133C132.057 115.168 132.35 115.142 132.639 115.143C133.913 115.146 133.941 115.127 134.445 113.807C133.691 113.807 132.955 113.807 132.174 113.807C132.281 113.388 132.439 113.188 132.87 113.202C133.832 113.235 134.796 113.212 135.843 113.212C135.46 113.872 135.117 114.465 134.773 115.059C134.788 115.221 134.984 115.054 134.998 115.332C134.936 115.639 134.694 115.813 134.219 115.798C133.171 115.764 132.12 115.786 131.002 115.786Z" fill="#1A4873"/>
<path d="M208.898 93.5389C208.594 93.5685 208.328 93.6645 208.059 93.3275C207.855 93.0712 207.462 93.1509 207.147 93.2581C207.033 93.2969 206.937 93.3724 206.941 93.5164C206.944 93.64 207.038 93.688 207.13 93.7298C207.422 93.8656 207.721 93.9861 208.008 94.1311C208.59 94.4252 208.652 94.9603 208.127 95.3565C207.443 95.8711 206.675 95.8671 205.895 95.6087C205.587 95.5066 205.397 95.2666 205.452 94.9491C205.526 94.5284 205.903 94.8102 206.118 94.704C206.397 95.2452 206.858 95.4157 207.356 95.1747C207.497 95.1063 207.636 95.0246 207.644 94.851C207.652 94.6621 207.496 94.6019 207.352 94.5467C207.115 94.4559 206.866 94.3885 206.638 94.2792C206.129 94.0352 206.031 93.5981 206.366 93.156C206.784 92.6066 208.14 92.4453 208.655 92.8925C208.835 93.0508 208.969 93.2458 208.898 93.5389Z" fill="#1A4873"/>
<path d="M194.065 94.6886C194.252 95.2625 195.037 95.4534 195.43 95.0725C195.632 94.8765 195.582 94.7008 195.35 94.5906C195.121 94.4823 194.869 94.421 194.634 94.324C193.962 94.0473 193.87 93.4418 194.425 92.9761C194.883 92.5912 195.958 92.5126 196.457 92.8342C196.7 92.9904 196.862 93.1936 196.806 93.5286C196.497 93.5756 196.209 93.6828 195.971 93.3152C195.858 93.1426 195.573 93.1416 195.35 93.1783C195.155 93.21 194.91 93.211 194.873 93.4734C194.838 93.7287 195.089 93.7471 195.243 93.8257C195.483 93.9493 195.745 94.033 195.984 94.1586C196.452 94.4047 196.52 94.7835 196.188 95.2042C195.711 95.8108 194.198 95.9823 193.591 95.4983C193.387 95.336 193.265 95.095 193.362 94.8714C193.491 94.5722 193.812 94.7662 194.065 94.6886Z" fill="#1A4873"/>
<path d="M205.422 93.6083C205.067 93.6655 204.777 93.7503 204.532 93.3612C204.386 93.1294 204.028 93.2009 203.763 93.252C203.208 93.3582 202.646 94.0392 202.631 94.608C202.621 95.0226 202.845 95.2309 203.25 95.2534C203.56 95.2707 203.859 95.1472 204.022 94.9266C204.304 94.5447 204.62 94.6601 204.969 94.7101C204.65 95.7231 202.941 96.0121 202.208 95.5546C201.894 95.3585 201.83 95.0379 201.841 94.7111C201.889 93.3357 203.566 92.2543 204.848 92.7608C205.264 92.9252 205.359 93.0569 205.422 93.6083Z" fill="#1A4873"/>
<path d="M129.792 108.438C130.224 107.266 130.3 107.201 131.115 107.268C131.08 107.398 131.045 107.524 130.998 107.699C131.658 107.699 132.294 107.699 132.982 107.699C132.485 108.95 131.888 110.039 130.672 110.638C130.361 110.791 130.016 110.645 129.668 110.651C130.408 109.962 131.509 109.641 131.761 108.438C131.115 108.438 130.483 108.438 129.792 108.438Z" fill="#1A4873"/>
<path d="M126.729 113.775C125.948 113.775 125.205 113.775 124.453 113.775C124.749 112.835 124.891 112.74 125.827 112.849C125.805 112.96 125.782 113.068 125.751 113.222C126.537 113.222 127.293 113.222 128.066 113.222C127.193 115.277 125.797 116.034 124.505 115.719C125.266 115.095 126.424 114.967 126.729 113.775Z" fill="#1A4873"/>
<path d="M114.632 108.41C113.918 108.41 113.297 108.41 112.643 108.41C112.761 107.936 112.929 107.662 113.464 107.697C114.225 107.746 114.991 107.709 115.762 107.709C115.162 109.365 114.122 110.947 112.415 110.659C113.203 109.983 114.174 109.516 114.632 108.41Z" fill="#1A4873"/>
<path d="M142.022 118.471C142.4 118.374 142.717 118.503 143.048 118.404C143.343 118.316 143.675 118.448 143.709 118.887C143.722 119.067 143.818 119.24 143.883 119.439C144.045 119.189 144.051 118.916 144.123 118.662C144.174 118.483 144.276 118.42 144.453 118.419C144.639 118.418 144.725 118.499 144.764 118.679C144.817 118.924 144.897 119.164 144.97 119.421C145.295 119.121 144.974 118.342 145.798 118.443C145.626 119.006 145.461 119.534 145.304 120.066C145.25 120.249 145.123 120.281 144.954 120.288C144.768 120.295 144.738 120.162 144.677 120.044C144.576 119.847 144.682 119.516 144.307 119.468C144.266 119.676 144.226 119.87 144.19 120.065C144.161 120.228 144.068 120.286 143.904 120.284C143.754 120.282 143.644 120.257 143.593 120.093C143.494 119.77 143.373 119.454 143.279 119.129C143.223 118.933 143.115 118.855 142.914 118.866C142.694 118.877 142.623 119.01 142.609 119.198C142.594 119.434 142.566 119.672 142.579 119.909C142.596 120.243 142.45 120.337 142.085 120.241C141.956 119.683 142.08 119.096 142.022 118.471Z" fill="#1A4873"/>
<path d="M150.152 117.805C150.347 117.705 150.479 117.727 150.65 117.772C150.65 118.583 150.65 119.404 150.65 120.309C150.259 120.154 149.895 120.308 149.533 120.293C149.136 120.277 148.907 119.977 148.86 119.581C148.835 119.365 148.856 119.143 148.856 118.929C148.359 118.848 148.359 118.848 148.198 120.223C148.064 120.325 147.918 120.29 147.734 120.242C147.734 119.666 147.734 119.082 147.734 118.424C148.531 118.543 149.327 118.426 150.153 118.44C150.152 118.271 150.152 118.04 150.152 117.805ZM150.159 119.326C150.145 119.061 150.066 118.792 149.752 118.802C149.427 118.813 149.392 119.12 149.385 119.371C149.377 119.638 149.458 119.921 149.78 119.905C150.093 119.889 150.137 119.598 150.159 119.326Z" fill="#1A4873"/>
<path d="M112.407 107.709C111.891 108.703 111.432 109.601 110.956 110.49C110.758 110.86 110.369 110.894 110.003 110.592C110.532 109.967 110.76 109.179 111.226 108.438C110.516 108.438 109.879 108.438 109.209 108.438C109.3 107.931 109.483 107.661 110.038 107.697C110.795 107.746 111.557 107.709 112.407 107.709Z" fill="#1A4873"/>
<path d="M127.549 107.763C127.312 108.719 127.078 109.666 126.845 110.611C126.586 110.747 126.336 110.659 126.089 110.694C125.964 110.349 126.22 110.083 126.177 109.758C125.72 110.124 125.545 110.935 124.666 110.627C124.897 110.298 125.12 109.988 125.333 109.671C125.425 109.534 125.56 109.515 125.691 109.54C126.168 109.627 126.373 109.41 126.403 108.955C126.414 108.804 126.467 108.657 126.5 108.509C126.41 108.377 126.246 108.453 126.132 108.39C126.293 107.616 126.336 107.648 127.549 107.763Z" fill="#1A4873"/>
<path d="M157.132 118.792C156.936 118.471 156.73 118.152 157.114 117.843C157.392 117.618 157.975 117.659 158.195 117.922C158.569 118.373 158.153 118.613 157.897 118.899C157.986 119.013 158.069 119.118 158.152 119.223C158.194 119.255 158.215 119.25 158.238 119.207C158.315 119.06 158.414 119.027 158.568 119.121C158.671 119.185 158.744 119.267 158.679 119.36C158.475 119.659 158.711 119.816 158.886 119.986C158.764 120.223 158.65 120.415 158.389 120.184C158.229 120.041 158.102 120.161 157.974 120.221C157.731 120.335 157.481 120.341 157.227 120.294C156.902 120.235 156.659 120.069 156.585 119.728C156.518 119.415 156.634 119.163 156.879 118.967C156.957 118.904 157.043 118.853 157.132 118.792ZM157.916 119.677C157.665 119.533 157.617 119.257 157.356 119.163C157.168 119.351 157.014 119.552 157.211 119.778C157.398 119.991 157.626 119.915 157.916 119.677ZM157.603 118.54C157.773 118.428 157.918 118.331 157.792 118.136C157.74 118.055 157.607 118.02 157.524 118.086C157.33 118.238 157.469 118.37 157.603 118.54Z" fill="#1A4873"/>
<path d="M200.674 92.7013C200.671 93.1445 200.452 93.2905 200.089 93.2272C199.547 93.1322 199.256 93.365 199.088 93.8725C198.938 94.3198 198.676 94.7313 198.541 95.1826C198.379 95.7248 198.045 95.7922 197.549 95.6687C197.779 94.8252 198.298 94.1166 198.579 93.2445C198.233 93.2445 197.922 93.2445 197.568 93.2445C197.596 92.9515 197.597 92.7074 197.929 92.7043C198.842 92.6962 199.755 92.7013 200.674 92.7013Z" fill="#1A4873"/>
<path d="M169.208 118.367C169.722 118.676 170.268 118.142 170.729 118.584C170.756 118.611 170.92 118.484 171.025 118.443C171.481 118.267 171.858 118.478 171.894 118.963C171.925 119.382 171.9 119.804 171.9 120.197C171.744 120.327 171.612 120.269 171.484 120.275C171.449 120.213 171.407 120.171 171.405 120.128C171.392 119.789 171.389 119.45 171.38 119.111C171.375 118.945 171.325 118.791 171.128 118.799C170.959 118.805 170.844 118.926 170.831 119.095C170.81 119.348 170.794 119.604 170.814 119.858C170.843 120.226 170.701 120.35 170.299 120.245C170.299 119.892 170.296 119.539 170.3 119.186C170.302 119 170.258 118.815 170.059 118.795C169.839 118.772 169.725 118.939 169.714 119.151C169.7 119.405 169.706 119.659 169.695 119.914C169.679 120.275 169.676 120.275 169.209 120.234C169.208 119.648 169.208 119.06 169.208 118.367Z" fill="#1A4873"/>
<path d="M184.429 115.786C184.587 115.404 184.68 115.073 185.139 115.138C185.313 115.162 185.416 115.067 185.502 114.92C185.709 114.57 185.93 114.229 186.143 113.887C186.024 113.686 185.81 113.862 185.68 113.746C185.849 113.144 186.21 113.043 187.474 113.267C187.005 114.061 186.544 114.841 186.083 115.622C186.018 115.732 185.926 115.789 185.791 115.788C185.357 115.784 184.922 115.786 184.429 115.786Z" fill="#1A4873"/>
<path d="M127.248 115.787C127.39 115.352 127.527 115.058 127.977 115.138C128.098 115.159 128.212 115.13 128.282 115.004C128.492 114.622 128.706 114.242 128.945 113.814C128.746 113.79 128.607 113.771 128.461 113.754C128.674 113.129 128.91 113.066 130.262 113.266C129.791 114.062 129.328 114.844 128.865 115.626C128.798 115.738 128.697 115.787 128.568 115.787C128.148 115.786 127.728 115.787 127.248 115.787Z" fill="#1A4873"/>
<path d="M142.425 115.785C142.639 115.421 142.696 115.045 143.168 115.142C143.329 115.174 143.412 115.084 143.493 114.961C143.73 114.61 143.958 114.256 144.144 113.815C143.966 113.796 143.813 113.779 143.653 113.761C143.87 113.144 144.259 113.042 145.456 113.285C144.985 114.083 144.525 114.865 144.065 115.647C143.982 115.788 143.845 115.787 143.707 115.787C143.317 115.785 142.927 115.785 142.425 115.785Z" fill="#1A4873"/>
<path d="M114.926 118.431C114.663 118.512 114.45 118.537 114.29 118.274C114.187 118.103 113.997 118.124 113.828 118.15C113.713 118.167 113.585 118.188 113.581 118.35C113.576 118.477 113.659 118.525 113.763 118.559C113.955 118.619 114.143 118.698 114.339 118.74C114.753 118.829 114.986 119.074 115.015 119.492C115.046 119.942 114.789 120.18 114.379 120.281C113.618 120.467 113.067 120.149 112.984 119.463C113.232 119.343 113.438 119.296 113.581 119.633C113.681 119.871 113.912 119.896 114.144 119.858C114.309 119.832 114.431 119.738 114.46 119.57C114.493 119.375 114.344 119.306 114.192 119.259C113.981 119.195 113.767 119.144 113.558 119.075C113.212 118.961 113.029 118.721 113.046 118.351C113.064 117.955 113.335 117.776 113.677 117.732C114.326 117.65 114.845 117.73 114.926 118.431Z" fill="#1A4873"/>
<path d="M162.163 113.828C161.971 113.795 161.83 113.772 161.654 113.741C162.048 112.783 162.848 113.407 163.486 113.271C163.003 114.077 162.523 114.885 162.034 115.687C161.936 115.848 161.756 115.781 161.61 115.785C161.255 115.793 160.898 115.788 160.501 115.788C160.62 115.407 160.696 115.056 161.195 115.144C161.377 115.177 161.474 115.056 161.553 114.916C161.749 114.565 161.946 114.213 162.163 113.828Z" fill="#1A4873"/>
<path d="M182.233 92.6983C181.914 93.5938 181.536 94.3596 181.128 95.2041C181.794 95.2041 182.38 95.2041 182.994 95.2041C182.997 95.5298 182.924 95.7126 182.61 95.7116C181.813 95.7106 181.018 95.7116 180.128 95.7116C180.587 94.7058 180.998 93.7541 181.459 92.8259C181.595 92.5532 181.919 92.7524 182.233 92.6983Z" fill="#1A4873"/>
<path d="M175.225 120.223C174.861 120.345 174.651 120.293 174.509 119.941C174.294 119.41 173.825 119.825 173.481 119.675C173.304 119.963 173.319 120.487 172.746 120.213C172.965 119.436 173.282 118.691 173.573 117.937C173.642 117.759 173.766 117.731 173.933 117.731C174.098 117.731 174.229 117.744 174.3 117.924C174.603 118.687 174.913 119.448 175.225 120.223ZM173.639 119.197C173.862 119.236 174.022 119.26 174.201 119.188C174.173 118.925 174.077 118.692 173.946 118.425C173.839 118.694 173.748 118.922 173.639 119.197Z" fill="#1A4873"/>
<path d="M162.022 118.395C161.755 118.566 161.534 118.636 161.38 118.299C161.355 118.247 161.277 118.204 161.215 118.187C160.902 118.096 160.651 118.156 160.493 118.476C160.291 118.888 160.396 119.593 160.714 119.781C161.055 119.982 161.292 119.827 161.476 119.531C161.511 119.474 161.54 119.414 161.57 119.361C161.744 119.339 161.886 119.372 162.031 119.521C161.954 119.778 161.875 120.038 161.588 120.187C160.996 120.492 160.231 120.263 159.969 119.693C159.626 118.947 159.875 118.08 160.51 117.802C161.148 117.521 161.756 117.752 162.022 118.395Z" fill="#1A4873"/>
<path d="M115.265 117.798C115.466 117.723 115.596 117.714 115.74 117.769C115.875 117.996 115.736 118.267 115.835 118.503C116.736 118.25 116.979 118.442 116.974 119.401C116.972 119.671 116.974 119.94 116.974 120.219C116.57 120.359 116.409 120.247 116.438 119.845C116.456 119.609 116.44 119.37 116.439 119.132C116.439 118.94 116.363 118.78 116.157 118.787C115.981 118.793 115.83 118.907 115.825 119.108C115.815 119.478 115.822 119.847 115.822 120.21C115.435 120.336 115.246 120.309 115.259 119.889C115.281 119.197 115.265 118.503 115.265 117.798Z" fill="#1A4873"/>
<path d="M129.618 107.732C129.108 108.702 128.646 109.615 128.149 110.51C127.96 110.85 127.62 110.661 127.269 110.665C127.77 109.702 128.226 108.783 128.725 107.888C128.91 107.555 129.255 107.753 129.618 107.732Z" fill="#1A4873"/>
<path d="M151.285 115.718C151.738 114.966 152.183 114.21 152.647 113.465C152.832 113.168 152.885 113.173 153.702 113.271C153.216 114.085 152.765 114.894 152.256 115.665C152.046 115.982 151.654 115.734 151.285 115.718Z" fill="#1A4873"/>
<path d="M117.425 115.742C117.883 114.939 118.299 114.167 118.758 113.422C118.995 113.037 119.413 113.294 119.804 113.21C119.672 113.644 119.422 113.956 119.235 114.299C119.065 114.612 118.825 114.892 118.695 115.218C118.456 115.819 118.036 115.918 117.425 115.742Z" fill="#1A4873"/>
<path d="M143.259 113.263C142.778 114.075 142.336 114.834 141.879 115.583C141.708 115.863 141.546 115.875 140.833 115.729C141.302 114.933 141.755 114.146 142.228 113.372C142.344 113.18 142.43 113.192 143.259 113.263Z" fill="#1A4873"/>
<path d="M161.27 113.236C160.775 114.064 160.326 114.835 159.857 115.592C159.611 115.987 159.23 115.765 158.789 115.786C159.305 114.926 159.748 114.114 160.271 113.356C160.473 113.061 160.881 113.26 161.27 113.236Z" fill="#1A4873"/>
<path d="M199.864 95.6487C200.279 94.7164 200.671 93.8056 201.09 92.907C201.269 92.5231 201.618 92.7702 201.911 92.7212C201.868 93.1694 201.609 93.4972 201.454 93.8669C201.272 94.3029 201.032 94.7185 200.887 95.1657C200.722 95.6722 200.426 95.8213 199.864 95.6487Z" fill="#1A4873"/>
<path d="M191.572 95.7169C192.019 94.7325 192.429 93.8441 192.825 92.9486C193.007 92.5361 193.34 92.7638 193.722 92.6831C193.268 93.695 192.866 94.6324 192.423 95.5504C192.271 95.866 191.939 95.6617 191.572 95.7169Z" fill="#1A4873"/>
<path d="M140.925 118.379C141.461 118.377 141.879 118.815 141.871 119.367C141.862 119.935 141.458 120.325 140.89 120.315C140.318 120.304 139.935 119.909 139.943 119.339C139.952 118.79 140.372 118.381 140.925 118.379ZM140.478 119.361C140.536 119.594 140.544 119.875 140.892 119.889C141.277 119.904 141.32 119.592 141.332 119.341C141.344 119.089 141.246 118.833 140.908 118.83C140.553 118.827 140.53 119.1 140.478 119.361Z" fill="#1A4873"/>
<path d="M122.978 118.41C123.387 118.504 123.742 118.473 124.103 118.404C124.33 118.361 124.547 118.5 124.625 118.729C124.788 119.206 124.709 119.702 124.683 120.19C124.677 120.314 124.55 120.37 124.416 120.377C124.253 120.385 124.201 120.274 124.194 120.155C124.174 119.851 124.185 119.545 124.166 119.241C124.154 119.041 124.152 118.778 123.874 118.793C123.633 118.807 123.502 119.004 123.502 119.26C123.503 119.58 123.502 119.9 123.502 120.226C123.143 120.341 122.955 120.303 122.974 119.891C122.995 119.421 122.978 118.948 122.978 118.41Z" fill="#1A4873"/>
<path d="M146.939 119.039C146.592 118.46 146.196 119.263 145.873 118.866C146.048 118.38 146.432 118.343 146.889 118.404C147.368 118.469 147.439 118.778 147.427 119.173C147.417 119.511 147.425 119.85 147.425 120.282C147.025 120.139 146.628 120.346 146.213 120.294C145.966 120.263 145.823 120.074 145.788 119.844C145.749 119.584 145.879 119.37 146.123 119.274C146.372 119.177 146.636 119.124 146.939 119.039ZM146.868 119.381C146.672 119.531 146.339 119.412 146.318 119.749C146.307 119.899 146.441 119.992 146.598 119.958C146.862 119.902 146.934 119.717 146.868 119.381Z" fill="#1A4873"/>
<path d="M107.503 118.392C107.912 118.514 108.238 118.455 108.577 118.399C108.899 118.346 109.183 118.53 109.196 118.916C109.211 119.352 109.199 119.789 109.199 120.229C108.841 120.34 108.643 120.292 108.672 119.885C108.69 119.649 108.672 119.41 108.67 119.172C108.669 118.992 108.639 118.801 108.425 118.794C108.194 118.787 108.053 118.936 108.05 119.179C108.046 119.517 108.049 119.854 108.049 120.203C107.707 120.323 107.485 120.352 107.499 119.912C107.514 119.442 107.503 118.969 107.503 118.392Z" fill="#1A4873"/>
<path d="M179.2 120.236C179.2 119.645 179.2 119.06 179.2 118.434C179.56 118.441 179.902 118.502 180.248 118.392C180.445 118.33 180.719 118.445 180.794 118.679C180.949 119.155 180.879 119.653 180.853 120.142C180.843 120.305 180.687 120.278 180.571 120.282C180.417 120.287 180.361 120.188 180.359 120.056C180.353 119.767 180.353 119.479 180.355 119.19C180.357 118.984 180.308 118.786 180.072 118.789C179.845 118.791 179.709 118.951 179.707 119.195C179.705 119.433 179.687 119.671 179.698 119.908C179.715 120.275 179.541 120.344 179.2 120.236Z" fill="#1A4873"/>
<path d="M178.911 119.487C178.688 119.487 178.503 119.487 178.318 119.487C178.135 119.487 177.952 119.487 177.731 119.487C177.845 119.873 178.007 120.136 178.36 119.813C178.562 119.629 178.69 119.76 178.862 119.762C178.672 120.27 178.288 120.496 177.861 120.37C177.416 120.237 177.149 119.655 177.267 119.069C177.354 118.633 177.716 118.346 178.138 118.38C178.66 118.419 178.918 118.77 178.911 119.487ZM177.809 119.165C178.013 119.132 178.211 119.208 178.39 119.116C178.421 118.88 178.276 118.794 178.125 118.8C177.971 118.805 177.772 118.841 177.809 119.165Z" fill="#1A4873"/>
<path d="M185.425 119.483C185.044 119.483 184.663 119.483 184.23 119.483C184.355 119.885 184.499 120.154 184.856 119.794C185.062 119.587 185.184 119.761 185.356 119.772C185.154 120.257 184.785 120.422 184.301 120.28C183.881 120.158 183.629 119.778 183.729 119.144C183.807 118.657 184.212 118.337 184.644 118.38C185.172 118.431 185.409 118.752 185.425 119.483ZM184.205 119.109C184.505 119.168 184.717 119.202 184.965 119.097C184.713 118.719 184.498 118.706 184.205 119.109Z" fill="#1A4873"/>
<path d="M167.114 119.371C167.096 118.811 167.49 118.386 168.036 118.375C168.547 118.364 168.969 118.769 168.992 119.295C169.02 119.889 168.64 120.308 168.07 120.316C167.491 120.324 167.133 119.97 167.114 119.371ZM167.605 119.351C167.648 119.598 167.676 119.893 168.043 119.898C168.374 119.903 168.456 119.669 168.473 119.39C168.49 119.08 168.398 118.831 168.051 118.822C167.739 118.814 167.625 119.045 167.605 119.351Z" fill="#1A4873"/>
<path d="M138.665 119.191C138.466 119.548 138.73 119.948 138.48 120.245C138.397 120.342 138.228 120.307 138.08 120.21C138.08 119.415 138.08 118.607 138.08 117.732C138.586 117.732 139.074 117.729 139.562 117.733C139.877 117.735 139.777 117.946 139.783 118.162C139.383 118.162 139.016 118.162 138.671 118.162C138.554 118.362 138.571 118.525 138.619 118.728C138.93 118.728 139.246 118.728 139.573 118.728C139.71 119.049 139.645 119.2 139.305 119.192C139.084 119.186 138.864 119.191 138.665 119.191Z" fill="#1A4873"/>
<path d="M165.808 118.862C165.436 119.189 165.074 118.474 164.721 118.912C164.94 119.098 165.23 119.072 165.477 119.168C165.761 119.279 165.941 119.482 165.895 119.772C165.852 120.043 165.679 120.264 165.356 120.294C164.885 120.339 164.436 120.34 164.189 119.849C164.562 119.251 165 120.413 165.381 119.76C165.204 119.505 164.895 119.564 164.658 119.465C164.397 119.356 164.21 119.198 164.234 118.905C164.257 118.642 164.44 118.497 164.693 118.424C165.194 118.277 165.553 118.407 165.808 118.862Z" fill="#1A4873"/>
<path d="M164.022 118.473C164.022 119.011 164.022 119.516 164.022 120.022C164.022 120.146 163.967 120.333 163.855 120.266C163.491 120.047 163.175 120.356 162.839 120.304C162.513 120.254 162.329 120.06 162.329 119.717C162.329 119.313 162.329 118.909 162.329 118.512C162.472 118.381 162.623 118.425 162.768 118.443C162.904 118.572 162.842 118.733 162.849 118.879C162.859 119.116 162.857 119.353 162.86 119.591C162.862 119.779 162.921 119.939 163.137 119.936C163.333 119.934 163.447 119.796 163.463 119.609C163.485 119.357 163.481 119.102 163.489 118.847C163.501 118.425 163.501 118.425 164.022 118.473Z" fill="#1A4873"/>
<path d="M187.048 119.052C186.7 119.022 186.474 118.585 186.061 118.883C186.242 119.088 186.494 119.063 186.698 119.134C187.006 119.243 187.26 119.424 187.232 119.764C187.201 120.149 186.888 120.285 186.54 120.31C186.118 120.338 185.728 120.275 185.522 119.86C185.909 119.274 186.305 120.357 186.699 119.797C186.571 119.507 186.267 119.574 186.052 119.483C185.783 119.369 185.536 119.239 185.557 118.918C185.581 118.575 185.848 118.455 186.158 118.402C186.786 118.295 187.102 118.511 187.048 119.052Z" fill="#1A4873"/>
<path d="M134.297 119.476C133.898 119.476 133.528 119.476 133.152 119.476C133.256 120 133.412 120.087 133.752 119.782C133.964 119.591 134.077 119.765 134.245 119.787C134.003 120.267 133.629 120.428 133.159 120.276C132.756 120.145 132.511 119.636 132.613 119.14C132.715 118.642 133.09 118.332 133.537 118.375C134.02 118.422 134.247 118.73 134.297 119.476ZM133.8 119.105C133.793 118.88 133.629 118.793 133.468 118.793C133.297 118.793 133.147 118.897 133.16 119.151C133.37 119.136 133.579 119.213 133.8 119.105Z" fill="#1A4873"/>
<path d="M134.851 118.921C135.21 119.03 135.464 119.107 135.717 119.183C135.975 119.261 136.121 119.434 136.127 119.701C136.134 119.971 135.969 120.135 135.734 120.238C135.242 120.453 134.702 120.289 134.399 119.811C134.623 119.698 134.798 119.554 135.025 119.856C135.178 120.059 135.4 119.986 135.602 119.809C135.418 119.525 135.132 119.569 134.911 119.477C134.648 119.367 134.401 119.229 134.443 118.897C134.482 118.588 134.716 118.439 135.006 118.402C135.392 118.353 135.774 118.347 135.994 118.771C135.647 119.054 135.292 118.614 134.851 118.921Z" fill="#1A4873"/>
<path d="M130.702 118.399C131.115 118.522 131.455 118.457 131.808 118.403C132.141 118.352 132.383 118.591 132.396 118.958C132.41 119.379 132.399 119.801 132.399 120.216C131.901 120.289 131.899 120.289 131.888 119.872C131.883 119.651 131.883 119.431 131.887 119.21C131.892 119.005 131.845 118.803 131.617 118.793C131.393 118.784 131.243 118.942 131.229 119.18C131.212 119.451 131.205 119.723 131.201 119.993C131.199 120.167 131.164 120.291 130.949 120.284C130.739 120.278 130.7 120.154 130.701 119.981C130.703 119.492 130.702 119.002 130.702 118.399Z" fill="#1A4873"/>
<path d="M151.798 119.318C151.798 119.2 151.794 119.081 151.799 118.963C151.811 118.651 151.692 118.191 152.291 118.551C152.361 118.594 152.53 118.463 152.658 118.425C153.093 118.29 153.447 118.513 153.481 118.967C153.506 119.304 153.488 119.643 153.491 119.981C153.492 120.146 153.471 120.282 153.251 120.284C153.043 120.286 152.99 120.177 152.99 119.998C152.99 119.71 152.985 119.422 152.977 119.135C152.972 118.948 152.896 118.769 152.693 118.792C152.52 118.813 152.332 118.904 152.329 119.145C152.326 119.381 152.321 119.619 152.311 119.856C152.303 120.048 152.372 120.297 152.039 120.283C151.703 120.269 151.815 120.009 151.801 119.828C151.789 119.658 151.798 119.488 151.798 119.318Z" fill="#1A4873"/>
<path d="M182.837 119.628C182.608 120.169 182.242 120.383 181.793 120.302C181.356 120.224 181.085 119.883 181.068 119.391C181.051 118.882 181.302 118.523 181.778 118.416C182.244 118.312 182.61 118.44 182.809 118.94C182.576 119.073 182.391 119.12 182.186 118.884C182.025 118.7 181.82 118.786 181.723 118.971C181.581 119.239 181.584 119.544 181.772 119.787C181.897 119.949 182.134 119.97 182.242 119.764C182.398 119.466 182.583 119.588 182.837 119.628Z" fill="#1A4873"/>
<path d="M127.916 117.787C128.274 117.684 128.449 117.76 128.426 118.181C128.398 118.717 128.419 119.255 128.419 119.848C128.782 119.848 129.099 119.849 129.416 119.847C129.564 119.846 129.693 119.865 129.689 120.056C129.685 120.229 129.583 120.285 129.422 120.284C128.933 120.281 128.444 120.283 127.915 120.283C127.916 119.44 127.916 118.623 127.916 117.787Z" fill="#1A4873"/>
<path d="M113.049 108.955C112.759 109.71 112.344 110.349 111.997 111.02C111.808 111.384 111.469 111.207 111.116 111.211C111.485 110.478 111.809 109.779 112.187 109.108C112.374 108.775 112.723 108.965 113.049 108.955Z" fill="#1A4873"/>
<path d="M106.685 117.776C106.883 117.728 107.03 117.696 107.199 117.801C107.199 118.594 107.199 119.401 107.199 120.205C107.03 120.321 106.874 120.309 106.685 120.215C106.685 119.417 106.685 118.609 106.685 117.776Z" fill="#1A4873"/>
<path d="M109.866 117.807C110.147 118.001 109.936 118.495 110.39 118.517C110.413 118.518 110.443 118.723 110.331 118.824C109.94 119.181 109.96 119.486 110.356 119.914C110.489 120.058 110.477 120.226 110.249 120.301C109.895 120.416 109.604 120.225 109.558 119.856C109.51 119.471 109.582 119.094 109.397 118.693C109.272 118.427 109.579 118.07 109.866 117.807Z" fill="#1A4873"/>
<path d="M166.633 117.847C166.733 118.096 166.542 118.432 166.974 118.468C167.081 118.477 167.105 118.714 166.943 118.835C166.557 119.125 166.559 119.606 166.952 119.887C167.103 119.994 167.099 120.167 166.997 120.219C166.834 120.302 166.623 120.327 166.435 120.318C166.243 120.31 166.241 120.118 166.215 119.969C166.141 119.542 166.289 119.104 166.015 118.666C165.927 118.525 166.155 117.948 166.633 117.847Z" fill="#1A4873"/>
<path d="M107.954 110.673C108.196 110.191 108.418 109.756 108.634 109.319C108.828 108.925 109.167 109.161 109.507 109.086C109.363 109.687 109.05 110.15 108.743 110.596C108.586 110.824 108.254 110.667 107.954 110.673Z" fill="#1A4873"/>
<path d="M111.437 120.255C111.437 119.435 111.437 118.627 111.437 117.81C111.561 117.688 111.704 117.721 111.904 117.787C111.904 118.532 111.912 119.29 111.9 120.049C111.895 120.386 111.649 120.271 111.437 120.255Z" fill="#1A4873"/>
<path d="M124.084 109.004C124.57 108.482 124.543 107.471 125.603 107.744C125.212 109.008 125.034 109.166 124.084 109.004Z" fill="#1A4873"/>
<path d="M114.206 113.256C113.502 114.577 113.741 114.485 112.712 114.363C113.09 113.267 113.208 113.177 114.206 113.256Z" fill="#1A4873"/>
<path d="M129.855 118.507C130.051 118.396 130.197 118.427 130.41 118.45C130.41 118.984 130.409 119.506 130.411 120.027C130.412 120.23 130.295 120.284 130.115 120.284C129.918 120.283 129.85 120.191 129.853 119.999C129.86 119.492 129.855 118.985 129.855 118.507Z" fill="#1A4873"/>
<path d="M115.609 109.008C116.13 108.518 115.979 107.46 117.069 107.742C116.827 108.769 116.455 109.132 115.609 109.008Z" fill="#1A4873"/>
<path d="M175.065 113.282C174.607 113.812 174.516 114.759 173.499 114.351C173.839 113.304 174.059 113.144 175.065 113.282Z" fill="#1A4873"/>
<path d="M130.253 114.354C130.647 113.252 130.787 113.149 131.743 113.266C131.319 114.38 131.126 114.521 130.253 114.354Z" fill="#1A4873"/>
<path d="M180.942 113.26C180.522 113.831 180.427 114.717 179.426 114.364C179.578 113.465 179.954 113.173 180.942 113.26Z" fill="#1A4873"/>
<path d="M111.12 114.367C111.652 113.196 111.652 113.196 112.632 113.247C112.309 114.281 112.036 114.489 111.12 114.367Z" fill="#1A4873"/>
<path d="M146.991 113.325C146.574 113.803 146.479 114.752 145.468 114.343C145.972 113.138 146.124 113.082 146.991 113.325Z" fill="#1A4873"/>
<path d="M122.661 120.231C122.475 120.316 122.31 120.287 122.12 120.253C122.12 119.67 122.12 119.086 122.12 118.539C122.329 118.382 122.484 118.411 122.661 118.473C122.661 119.065 122.661 119.651 122.661 120.231Z" fill="#1A4873"/>
<path d="M150.967 118.478C151.183 118.413 151.327 118.401 151.503 118.501C151.503 118.993 151.502 119.498 151.504 120.002C151.505 120.182 151.446 120.286 151.241 120.285C151.046 120.284 150.965 120.205 150.967 120.015C150.969 119.51 150.967 119.005 150.967 118.478Z" fill="#1A4873"/>
<path d="M183.492 120.253C183.211 120.307 183.002 120.321 183.006 119.976C183.012 119.487 183.007 118.998 183.007 118.529C183.167 118.389 183.314 118.415 183.492 118.462C183.492 119.044 183.492 119.63 183.492 120.253Z" fill="#1A4873"/>
<path d="M117.771 118.475C117.771 119.078 117.771 119.648 117.771 120.231C117.444 120.348 117.288 120.271 117.295 119.914C117.305 119.443 117.297 118.973 117.297 118.519C117.457 118.394 117.596 118.402 117.771 118.475Z" fill="#1A4873"/>
<path d="M111.018 117.758C111.071 118.556 111.02 118.655 110.472 118.738C110.743 118.412 110.413 118.113 110.521 117.786C110.683 117.686 110.852 117.739 111.018 117.758Z" fill="#1A4873"/>
<path d="M136.325 120.74C136.829 120.441 136.176 120.114 136.402 119.814C136.541 119.745 136.684 119.754 136.825 119.819C136.931 120.49 136.857 120.65 136.325 120.74Z" fill="#1A4873"/>
<path d="M130.164 118.189C129.979 118.19 129.84 118.161 129.85 117.946C129.859 117.773 129.959 117.723 130.118 117.727C130.283 117.732 130.422 117.742 130.407 117.966C130.397 118.143 130.305 118.199 130.164 118.189Z" fill="#1A4873"/>
<path d="M183.505 118.192C183.284 118.154 183.033 118.293 183.013 117.957C182.999 117.733 183.157 117.725 183.314 117.733C183.638 117.747 183.493 117.973 183.505 118.192Z" fill="#1A4873"/>
<path d="M122.696 118.17C122.48 118.17 122.349 118.17 122.218 118.17C122.131 118.017 122.1 117.859 122.246 117.765C122.33 117.711 122.489 117.708 122.583 117.751C122.763 117.834 122.643 118.006 122.696 118.17Z" fill="#1A4873"/>
<path d="M151 118.188C150.937 117.859 150.979 117.713 151.273 117.728C151.492 117.738 151.537 117.868 151.496 118.021C151.413 118.331 151.182 118.115 151 118.188Z" fill="#1A4873"/>
<path d="M117.773 117.701C117.759 117.951 117.903 118.18 117.548 118.185C117.385 118.187 117.297 118.131 117.305 117.954C117.322 117.583 117.576 117.796 117.773 117.701Z" fill="#1A4873"/>
</g>
<defs>
<clipPath id="clip0_16_9257">
<rect width="104.607" height="58" fill="white" transform="translate(106 63)"/>
</clipPath>
</defs>
</svg>
