<svg width="315" height="184" viewBox="0 0 315 184" fill="none" xmlns="http://www.w3.org/2000/svg">
<g clip-path="url(#clip0_16_9220)">
<path d="M224.988 97.3248C224.899 97.3814 224.827 97.361 224.759 97.361C222.322 97.3622 219.885 97.3601 217.448 97.3665C217.284 97.3669 217.196 97.3108 217.109 97.1799C215.911 95.3599 214.707 93.5439 213.51 91.7235C213.435 91.6104 213.364 91.5594 213.224 91.5628C212.815 91.573 212.406 91.5666 211.981 91.5666C211.981 93.4988 211.981 95.4139 211.981 97.3457C209.703 97.3457 207.44 97.3457 205.166 97.3457C205.166 90.6012 205.166 83.847 205.166 77.0681C205.234 77.0681 205.301 77.0681 205.368 77.0681C208.847 77.0681 212.325 77.0447 215.803 77.0778C217.514 77.0944 219.192 77.3724 220.735 78.1751C222.79 79.2442 223.975 80.926 224.219 83.2386C224.353 84.5093 224.263 85.7608 223.765 86.9554C223.154 88.4221 222.086 89.4712 220.712 90.2309C220.576 90.3053 220.44 90.3772 220.283 90.4618C221.851 92.7497 223.415 95.0309 224.988 97.3248ZM211.995 82.757C211.995 84.0876 211.995 85.3906 211.995 86.7046C213.038 86.7046 214.065 86.7076 215.09 86.7016C215.273 86.7008 215.456 86.6706 215.636 86.6412C216.732 86.4631 217.553 85.8289 217.485 84.5769C217.451 83.9456 217.183 83.4554 216.63 83.1379C216.101 82.8339 215.517 82.7582 214.919 82.7574C213.95 82.7557 212.98 82.757 211.995 82.757Z" fill="black"/>
<path d="M109.288 77.0676C109.389 77.0676 109.473 77.0676 109.558 77.0676C113.001 77.0676 116.444 77.0506 119.887 77.0757C121.382 77.0863 122.855 77.3108 124.245 77.9C126.673 78.9292 128.092 80.7202 128.338 83.3806C128.452 84.6049 128.345 85.8012 127.873 86.9473C127.25 88.4642 126.136 89.5227 124.714 90.2879C124.621 90.3381 124.524 90.381 124.429 90.4282C124.423 90.4312 124.419 90.438 124.392 90.4647C125.956 92.7459 127.523 95.0318 129.09 97.3172C129.034 97.3886 128.965 97.361 128.908 97.361C126.449 97.3627 123.991 97.361 121.532 97.3665C121.382 97.3669 121.304 97.3091 121.228 97.1935C120.029 95.3736 118.825 93.557 117.629 91.7354C117.545 91.6079 117.461 91.5598 117.31 91.5637C116.907 91.5743 116.503 91.5671 116.077 91.5671C116.077 93.4962 116.077 95.4165 116.077 97.3495C113.805 97.3495 111.555 97.3495 109.289 97.3495C109.288 90.5982 109.288 83.8461 109.288 77.0676ZM116.079 86.6914C116.124 86.6974 116.151 86.7042 116.178 86.7042C117.177 86.705 118.176 86.7191 119.174 86.6995C119.77 86.688 120.344 86.5656 120.855 86.2195C121.928 85.4917 121.833 83.7092 120.686 83.1077C120.212 82.8594 119.702 82.7646 119.176 82.7595C118.22 82.7497 117.263 82.7561 116.307 82.7582C116.233 82.7582 116.152 82.7315 116.079 82.7923C116.079 84.0838 116.079 85.3774 116.079 86.6914Z" fill="black"/>
<path d="M203.336 97.3554C197.514 97.3554 191.714 97.3554 185.895 97.3554C185.895 90.6008 185.895 83.8495 185.895 77.0825C191.659 77.0825 197.428 77.0825 203.208 77.0825C203.208 78.9309 203.208 80.7747 203.208 82.6358C199.678 82.6358 196.14 82.6358 192.587 82.6358C192.587 83.3134 192.587 83.9745 192.587 84.6543C195.869 84.6543 199.159 84.6543 202.463 84.6543C202.463 86.3092 202.463 87.9459 202.463 89.5928C199.171 89.5928 195.886 89.5928 192.586 89.5928C192.586 90.3202 192.586 91.0369 192.586 91.772C196.161 91.772 199.742 91.772 203.336 91.772C203.336 93.6382 203.336 95.4866 203.336 97.3554Z" fill="black"/>
<path d="M129.847 77.0747C132.164 77.0747 134.45 77.0747 136.755 77.0747C136.755 77.1555 136.755 77.232 136.755 77.3081C136.755 80.9445 136.752 84.581 136.758 88.2174C136.759 88.8032 136.837 89.3818 137.052 89.9362C137.395 90.8196 138.012 91.3956 138.937 91.626C139.637 91.8007 140.34 91.7905 141.03 91.5809C142.157 91.2387 142.71 90.408 142.918 89.3027C142.988 88.935 143.006 88.5622 143.006 88.1872C143.004 84.5648 143.005 80.9424 143.005 77.3204C143.005 77.2435 143.005 77.1665 143.005 77.079C145.317 77.079 147.615 77.079 149.916 77.079C149.951 77.1436 149.934 77.2158 149.934 77.2851C149.934 80.9501 149.946 84.6146 149.929 88.2795C149.922 89.8809 149.696 91.4508 149.04 92.9345C148.338 94.5198 147.228 95.7241 145.69 96.5327C144.384 97.2192 142.979 97.5445 141.521 97.6818C140.875 97.7426 140.226 97.7787 139.578 97.7638C137.919 97.7264 136.29 97.5232 134.741 96.8779C132.609 95.9902 131.18 94.4488 130.433 92.2734C130.096 91.2948 129.917 90.2831 129.872 89.2517C129.812 87.8527 129.853 86.4523 129.849 85.0529C129.843 82.4847 129.848 79.9166 129.848 77.3485C129.847 77.2639 129.847 77.1801 129.847 77.0747Z" fill="black"/>
<path d="M107.75 82.8204C105.762 82.8204 103.787 82.8204 101.79 82.8204C101.79 87.6655 101.79 92.5012 101.79 97.3492C99.5114 97.3492 97.254 97.3492 94.9801 97.3492C94.9801 92.5212 94.9801 87.6863 94.9801 82.8268C92.9778 82.8268 90.9925 82.8268 89 82.8268C89 80.9015 89 79.0008 89 77.0835C95.2496 77.0835 101.494 77.0835 107.75 77.0835C107.75 78.9812 107.75 80.8887 107.75 82.8204Z" fill="black"/>
<path d="M158.675 84.5884C159.075 84.1212 159.424 83.6149 159.792 83.123C161.284 81.1284 162.773 79.1312 164.261 77.134C164.324 77.0502 164.382 77.0001 164.5 77.0005C167.086 77.0047 169.671 77.0039 172.257 77.0043C172.278 77.0043 172.299 77.0086 172.323 77.0111C172.344 77.1148 172.254 77.1612 172.207 77.2216C170.829 78.9573 169.449 80.6901 168.068 82.4241C167.185 83.5337 166.305 84.6453 165.416 85.7511C165.325 85.8654 165.326 85.9394 165.401 86.0606C167.326 89.1852 169.247 92.3123 171.168 95.4395C171.534 96.0346 171.9 96.6302 172.264 97.2262C172.292 97.2717 172.343 97.3108 172.325 97.3784C172.254 97.4218 172.175 97.4005 172.1 97.4005C169.528 97.4018 166.956 97.3997 164.385 97.4056C164.213 97.4061 164.125 97.3487 164.04 97.2045C162.702 94.9536 161.358 92.7068 160.016 90.4588C159.6 89.762 159.185 89.0649 158.77 88.3672C158.742 88.3196 158.719 88.2699 158.667 88.2418C158.658 88.1619 158.611 88.099 158.571 88.0327C158.326 87.6212 158.079 87.2105 157.835 86.7977C157.721 86.6043 157.503 86.4126 157.527 86.2145C157.551 86.0189 157.768 85.8476 157.897 85.6631C158.15 85.3 158.448 84.9706 158.675 84.5884Z" fill="#EE5126"/>
<path d="M185.36 77.0101C182.991 79.9881 180.643 82.9397 178.289 85.8985C180.636 89.7169 182.981 93.5331 185.326 97.3502C185.241 97.4246 185.16 97.3983 185.087 97.3983C182.509 97.4 179.93 97.3983 177.352 97.4025C177.2 97.4029 177.115 97.3579 177.035 97.2227C175.162 94.0739 173.283 90.9289 171.405 87.7826C171.134 87.3281 170.872 86.8673 170.589 86.4201C170.488 86.2602 170.507 86.1527 170.614 86.0107C171.667 84.6116 172.715 83.2088 173.764 81.8059C174.917 80.2619 176.07 78.717 177.221 77.1717C177.295 77.0731 177.361 76.9995 177.508 76.9995C180.079 77.005 182.65 77.0033 185.221 77.0038C185.255 77.0042 185.288 77.0067 185.36 77.0101Z" fill="#FAB016"/>
<path d="M158.675 84.5886C158.449 84.9708 158.15 85.3003 157.896 85.6629C157.768 85.8474 157.55 86.0187 157.527 86.2143C157.504 86.4124 157.721 86.6041 157.835 86.7975C158.079 87.2103 158.325 87.621 158.571 88.0325C158.611 88.0988 158.658 88.1613 158.667 88.2417C158.667 91.2889 158.667 94.3361 158.667 97.394C156.383 97.394 154.119 97.394 151.84 97.394C151.84 90.6015 151.84 83.8145 151.84 77.0156C154.109 77.0156 156.379 77.0156 158.65 77.0156C158.686 77.0904 158.668 77.1695 158.668 77.2456C158.669 79.6156 158.669 81.9857 158.669 84.3553C158.67 84.433 158.674 84.5108 158.675 84.5886Z" fill="black"/>
<path d="M199.86 103.215C199.487 104.426 199.124 105.594 198.769 106.766C198.73 106.896 198.678 106.945 198.538 106.94C198.22 106.928 197.901 106.936 197.567 106.936C197.007 105.129 196.448 103.324 195.884 101.503C196.269 101.503 196.636 101.496 197.002 101.506C197.177 101.511 197.319 101.6 197.366 101.779C197.653 102.869 197.935 103.96 198.219 105.05C198.227 105.084 198.229 105.119 198.238 105.181C198.512 104.294 198.778 103.433 199.045 102.572C199.122 102.323 199.202 102.075 199.28 101.826C199.284 101.813 199.284 101.798 199.289 101.785C199.374 101.572 199.541 101.49 199.76 101.503C200.029 101.519 200.37 101.403 200.488 101.768C200.844 102.871 201.18 103.982 201.534 105.121C201.624 104.78 201.708 104.46 201.792 104.14C201.994 103.371 202.195 102.601 202.398 101.832C202.453 101.622 202.592 101.507 202.809 101.503C203.135 101.498 203.461 101.502 203.821 101.502C203.257 103.323 202.698 105.127 202.14 106.931C201.751 106.931 201.376 106.931 200.992 106.931C200.619 105.704 200.246 104.48 199.86 103.215Z" fill="black"/>
<path d="M168.034 103.337C167.752 103.88 167.494 104.377 167.236 104.874C167.025 105.28 166.812 105.685 166.605 106.093C166.49 106.319 166.298 106.387 166.064 106.384C165.829 106.381 165.646 106.307 165.529 106.08C165.093 105.227 164.647 104.38 164.204 103.531C164.179 103.482 164.147 103.437 164.115 103.385C164.115 104.564 164.115 105.736 164.115 106.922C163.761 106.922 163.396 106.922 163.019 106.922C163.019 105.125 163.019 103.326 163.019 101.505C163.398 101.505 163.785 101.497 164.172 101.509C164.315 101.513 164.373 101.645 164.432 101.761C164.841 102.572 165.248 103.385 165.662 104.193C165.8 104.463 165.939 104.731 166.067 105.042C166.229 104.696 166.384 104.372 166.55 104.054C166.939 103.303 167.321 102.549 167.693 101.789C167.796 101.579 167.927 101.481 168.169 101.496C168.478 101.515 168.79 101.501 169.114 101.501C169.114 103.312 169.114 105.112 169.114 106.923C168.762 106.923 168.404 106.923 168.034 106.923C168.034 105.748 168.034 104.571 168.034 103.337Z" fill="black"/>
<path d="M101.755 106.936C101.518 106.936 101.292 106.94 101.067 106.934C100.905 106.929 100.774 106.862 100.669 106.729C99.8711 105.717 99.0697 104.708 98.2692 103.698C98.2276 103.646 98.1846 103.595 98.1094 103.502C98.1532 104.673 98.123 105.793 98.1345 106.924C97.7612 106.924 97.3956 106.924 97.0186 106.924C97.0186 105.125 97.0186 103.325 97.0186 101.504C97.2821 101.504 97.5487 101.496 97.8144 101.508C97.9389 101.514 98.0257 101.606 98.103 101.705C98.9188 102.739 99.7376 103.771 100.556 104.804C100.581 104.836 100.609 104.867 100.656 104.922C100.656 103.771 100.656 102.648 100.656 101.513C101.029 101.513 101.386 101.513 101.756 101.513C101.755 103.311 101.755 105.111 101.755 106.936Z" fill="black"/>
<path d="M184.125 101.501C184.377 101.501 184.617 101.5 184.857 101.502C185.012 101.503 185.116 101.588 185.209 101.705C186.025 102.739 186.843 103.772 187.661 104.804C187.687 104.837 187.715 104.867 187.762 104.923C187.762 103.773 187.762 102.649 187.762 101.514C188.135 101.514 188.492 101.514 188.862 101.514C188.862 103.311 188.862 105.11 188.862 106.932C188.614 106.932 188.362 106.943 188.11 106.928C187.977 106.92 187.865 106.844 187.775 106.73C186.978 105.718 186.177 104.709 185.376 103.699C185.334 103.647 185.292 103.595 185.216 103.502C185.26 104.673 185.229 105.793 185.241 106.924C184.868 106.924 184.503 106.924 184.125 106.924C184.125 105.126 184.125 103.326 184.125 101.501Z" fill="black"/>
<path d="M145.065 103.496C145.107 104.675 145.078 105.795 145.089 106.926C144.71 106.926 144.345 106.926 143.971 106.926C143.971 105.121 143.971 103.321 143.971 101.503C144.232 101.503 144.493 101.493 144.753 101.506C144.904 101.513 144.999 101.63 145.088 101.743C145.899 102.771 146.711 103.797 147.523 104.824C147.548 104.856 147.576 104.886 147.622 104.939C147.622 103.78 147.622 102.649 147.622 101.51C147.991 101.51 148.35 101.51 148.715 101.51C148.715 103.314 148.715 105.109 148.715 106.937C148.447 106.926 148.176 106.957 147.906 106.916C147.744 106.891 147.653 106.77 147.561 106.654C146.74 105.618 145.922 104.581 145.065 103.496Z" fill="black"/>
<path d="M218.624 106.925C218.243 106.925 217.868 106.926 217.494 106.925C217.255 106.925 217.105 106.795 216.993 106.595C216.752 106.165 216.482 105.75 216.266 105.308C216.096 104.961 215.851 104.857 215.473 104.942C215.473 105.593 215.473 106.254 215.473 106.925C215.036 106.925 214.622 106.925 214.199 106.925C214.199 105.118 214.199 103.318 214.199 101.492C215.123 101.555 216.047 101.387 216.951 101.623C217.73 101.826 218.125 102.282 218.16 103.049C218.189 103.701 217.858 104.309 217.172 104.609C217.147 104.62 217.124 104.638 217.082 104.666C217.438 104.843 217.574 105.186 217.762 105.487C218.052 105.953 218.339 106.421 218.626 106.889C218.629 106.894 218.626 106.902 218.624 106.925ZM215.476 104.059C215.74 104.085 215.987 104.077 216.23 104.043C216.661 103.982 216.928 103.653 216.931 103.203C216.934 102.799 216.686 102.528 216.248 102.457C215.99 102.415 215.731 102.441 215.466 102.436C215.466 102.957 215.466 103.458 215.466 103.958C215.466 103.986 215.471 104.013 215.476 104.059Z" fill="black"/>
<path d="M207.8 104.629C207.045 104.629 206.324 104.629 205.585 104.629C205.585 105.397 205.585 106.157 205.585 106.926C205.153 106.926 204.739 106.926 204.315 106.926C204.315 105.12 204.315 103.32 204.315 101.51C204.735 101.51 205.149 101.51 205.581 101.51C205.581 102.262 205.581 103.008 205.581 103.762C206.326 103.762 207.052 103.762 207.789 103.762C207.789 103.01 207.789 102.269 207.789 101.515C208.213 101.515 208.627 101.515 209.054 101.515C209.054 103.309 209.054 105.109 209.054 106.922C208.646 106.922 208.232 106.922 207.8 106.922C207.8 106.167 207.8 105.406 207.8 104.629Z" fill="black"/>
<path d="M114.95 104.942C114.95 105.596 114.95 106.252 114.95 106.922C114.526 106.922 114.113 106.922 113.685 106.922C113.685 105.13 113.685 103.331 113.685 101.518C113.719 101.478 113.78 101.501 113.833 101.502C114.588 101.518 115.347 101.451 116.1 101.547C116.487 101.596 116.849 101.723 117.159 101.98C117.846 102.549 117.796 103.822 117.022 104.393C116.881 104.497 116.726 104.574 116.555 104.667C116.909 104.833 117.042 105.163 117.222 105.454C117.522 105.937 117.821 106.421 118.141 106.938C117.693 106.926 117.28 106.959 116.867 106.913C116.68 106.892 116.572 106.766 116.484 106.613C116.233 106.173 115.981 105.734 115.728 105.294C115.503 104.903 115.423 104.867 114.95 104.942ZM114.954 104.066C115.285 104.067 115.608 104.101 115.919 103.979C116.254 103.849 116.436 103.536 116.403 103.151C116.37 102.77 116.191 102.563 115.821 102.475C115.536 102.407 115.249 102.444 114.954 102.435C114.954 102.987 114.954 103.521 114.954 104.066Z" fill="black"/>
<path d="M130.03 103.696C130.363 103.746 130.576 103.651 130.749 103.377C131.088 102.841 131.468 102.33 131.823 101.804C131.962 101.597 132.144 101.499 132.39 101.501C132.749 101.503 133.108 101.501 133.518 101.501C132.834 102.361 132.288 103.271 131.576 104.05C131.77 104.13 131.924 104.303 132.058 104.511C132.546 105.271 133.044 106.023 133.538 106.779C133.565 106.819 133.59 106.86 133.628 106.919C133.181 106.919 132.755 106.925 132.329 106.916C132.177 106.912 132.082 106.797 132.002 106.673C131.649 106.129 131.272 105.599 130.945 105.04C130.733 104.678 130.46 104.555 130.049 104.643C130.049 105.39 130.049 106.15 130.049 106.922C129.616 106.922 129.202 106.922 128.775 106.922C128.775 105.126 128.775 103.326 128.775 101.513C129.185 101.513 129.599 101.513 130.03 101.513C130.03 102.235 130.03 102.96 130.03 103.696Z" fill="black"/>
<path d="M121.747 101.51C122.179 101.51 122.593 101.51 123.023 101.51C123.023 102.054 123.031 102.59 123.021 103.126C123.008 103.804 123.075 104.484 122.981 105.159C122.844 106.153 122.068 106.882 121.067 106.978C120.487 107.034 119.927 106.984 119.409 106.69C118.738 106.308 118.38 105.71 118.356 104.962C118.319 103.818 118.347 102.672 118.347 101.514C118.761 101.514 119.168 101.514 119.6 101.514C119.6 101.586 119.6 101.661 119.6 101.735C119.6 102.732 119.596 103.73 119.602 104.727C119.604 105.112 119.684 105.482 120.014 105.727C120.372 105.992 120.774 106.013 121.175 105.828C121.579 105.641 121.739 105.283 121.744 104.865C121.756 103.818 121.747 102.771 121.747 101.724C121.747 101.655 121.747 101.586 121.747 101.51Z" fill="black"/>
<path d="M94.4629 101.502C95.1703 103.324 95.8696 105.125 96.5808 106.958C96.1944 106.952 95.8365 106.981 95.4811 106.932C95.334 106.913 95.2281 106.822 95.1792 106.671C95.0951 106.41 94.9998 106.152 94.9161 105.89C94.8799 105.777 94.8328 105.72 94.6963 105.722C94.1084 105.732 93.52 105.73 92.9321 105.723C92.8071 105.721 92.7573 105.769 92.7246 105.878C92.6511 106.12 92.5707 106.361 92.4899 106.601C92.4215 106.805 92.2944 106.941 92.0623 106.942C91.7383 106.943 91.4148 106.942 91.0684 106.942C91.2257 106.531 91.3795 106.125 91.5364 105.72C92.0636 104.363 92.592 103.007 93.1191 101.649C93.1497 101.57 93.1659 101.497 93.2853 101.499C93.6739 101.507 94.0633 101.502 94.4629 101.502ZM94.5641 104.868C94.3154 104.143 94.0769 103.448 93.8218 102.705C93.5617 103.459 93.3215 104.156 93.0758 104.868C93.5855 104.868 94.0565 104.868 94.5641 104.868Z" fill="black"/>
<path d="M143.513 106.958C143.129 106.95 142.777 106.98 142.427 106.933C142.269 106.912 142.161 106.823 142.11 106.662C142.027 106.401 141.931 106.143 141.846 105.882C141.812 105.779 141.772 105.72 141.642 105.722C141.047 105.73 140.452 105.729 139.857 105.723C139.743 105.722 139.693 105.764 139.661 105.865C139.59 106.093 139.513 106.319 139.437 106.546C139.333 106.86 139.238 106.941 138.903 106.954C138.613 106.966 138.323 106.957 137.997 106.957C138.118 106.637 138.231 106.331 138.349 106.028C138.911 104.579 139.477 103.13 140.036 101.68C140.085 101.552 140.137 101.491 140.289 101.496C140.656 101.511 141.023 101.501 141.395 101.501C142.101 103.319 142.802 105.125 143.513 106.958ZM140.756 102.702C140.495 103.457 140.255 104.154 140.01 104.861C140.52 104.861 140.995 104.861 141.494 104.861C141.25 104.147 141.012 103.452 140.756 102.702Z" fill="black"/>
<path d="M183.686 106.957C183.304 106.951 182.952 106.978 182.602 106.933C182.444 106.913 182.335 106.825 182.283 106.665C182.197 106.397 182.1 106.132 182.013 105.864C181.981 105.764 181.932 105.721 181.818 105.723C181.223 105.729 180.627 105.73 180.032 105.722C179.903 105.72 179.861 105.778 179.829 105.882C179.753 106.124 179.673 106.364 179.593 106.605C179.524 106.811 179.393 106.941 179.162 106.942C178.844 106.943 178.526 106.942 178.176 106.942C178.291 106.637 178.404 106.332 178.521 106.03C179.083 104.58 179.651 103.133 180.206 101.681C180.263 101.532 180.334 101.494 180.481 101.498C180.841 101.507 181.202 101.501 181.568 101.501C182.273 103.317 182.974 105.123 183.686 106.957ZM181.668 104.866C181.423 104.151 181.185 103.453 180.928 102.705C180.669 103.455 180.428 104.152 180.181 104.866C180.687 104.866 181.164 104.866 181.668 104.866Z" fill="black"/>
<path d="M170.053 101.507C171.218 101.507 172.37 101.507 173.535 101.507C173.535 101.826 173.535 102.14 173.535 102.47C172.809 102.47 172.075 102.47 171.329 102.47C171.329 102.892 171.329 103.299 171.329 103.728C171.888 103.728 172.451 103.728 173.026 103.728C173.026 104.044 173.026 104.337 173.026 104.654C172.466 104.654 171.904 104.654 171.329 104.654C171.329 105.097 171.329 105.517 171.329 105.955C172.061 105.955 172.794 105.955 173.537 105.955C173.537 106.286 173.537 106.601 173.537 106.925C172.381 106.925 171.222 106.925 170.053 106.925C170.053 105.125 170.053 103.325 170.053 101.507Z" fill="black"/>
<path d="M211.24 104.658C211.24 105.103 211.24 105.52 211.24 105.953C211.978 105.953 212.71 105.953 213.455 105.953C213.455 106.285 213.455 106.6 213.455 106.925C212.302 106.925 211.143 106.925 209.973 106.925C209.973 105.127 209.973 103.328 209.973 101.515C211.131 101.515 212.294 101.515 213.462 101.515C213.462 101.831 213.462 102.141 213.462 102.468C212.729 102.468 211.996 102.468 211.249 102.468C211.249 102.89 211.249 103.297 211.249 103.726C211.806 103.726 212.368 103.726 212.944 103.726C212.944 104.041 212.944 104.335 212.944 104.658C212.38 104.658 211.812 104.658 211.24 104.658Z" fill="black"/>
<path d="M222.661 106.935C221.508 106.935 220.375 106.935 219.243 106.935C219.222 106.935 219.202 106.928 219.173 106.922C219.173 105.121 219.173 103.321 219.173 101.511C220.332 101.511 221.491 101.511 222.66 101.511C222.66 101.828 222.66 102.142 222.66 102.473C221.925 102.473 221.193 102.473 220.449 102.473C220.449 102.897 220.449 103.303 220.449 103.723C221.017 103.723 221.575 103.723 222.146 103.723C222.146 104.042 222.146 104.348 222.146 104.666C221.582 104.666 221.025 104.666 220.453 104.666C220.453 105.098 220.453 105.518 220.453 105.956C221.187 105.956 221.919 105.956 222.661 105.956C222.661 106.288 222.661 106.602 222.661 106.935Z" fill="black"/>
<path d="M128.274 102.154C128.13 102.343 128.003 102.51 127.875 102.677C127.701 102.904 127.58 102.934 127.34 102.771C126.991 102.534 126.609 102.438 126.195 102.487C125.574 102.561 125.149 102.903 124.953 103.491C124.76 104.065 124.776 104.642 125.055 105.194C125.451 105.978 126.508 106.221 127.214 105.692C127.526 105.458 127.599 105.468 127.855 105.776C127.877 105.803 127.9 105.83 127.924 105.855C128.228 106.176 128.229 106.178 127.882 106.465C127.364 106.893 126.751 107.018 126.1 106.997C125.203 106.97 124.469 106.621 123.982 105.85C123.312 104.789 123.364 103.144 124.366 102.183C125.344 101.245 127.132 101.18 128.155 102.059C128.192 102.091 128.231 102.12 128.274 102.154Z" fill="black"/>
<path d="M102.138 101.502C102.536 101.502 102.903 101.502 103.269 101.501C103.473 101.501 103.594 101.618 103.676 101.788C104.021 102.498 104.364 103.208 104.709 103.917C104.718 103.935 104.735 103.949 104.759 103.976C105.083 103.301 105.415 102.638 105.721 101.964C105.865 101.646 106.049 101.46 106.427 101.496C106.721 101.524 107.021 101.501 107.351 101.501C107.169 101.813 106.998 102.107 106.826 102.401C106.372 103.179 105.919 103.959 105.46 104.735C105.403 104.831 105.379 104.922 105.379 105.032C105.382 105.66 105.381 106.288 105.381 106.926C104.953 106.926 104.539 106.926 104.106 106.926C104.106 106.372 104.089 105.822 104.112 105.274C104.126 104.968 104.035 104.717 103.883 104.463C103.303 103.491 102.732 102.512 102.138 101.502Z" fill="black"/>
<path d="M191.212 106.921C191.212 106.281 191.209 105.645 191.214 105.01C191.214 104.9 191.187 104.808 191.131 104.713C190.506 103.653 189.885 102.591 189.247 101.503C189.657 101.503 190.042 101.497 190.426 101.505C190.599 101.509 190.705 101.629 190.776 101.776C191.12 102.478 191.462 103.181 191.804 103.885C191.819 103.918 191.829 103.951 191.87 103.968C192.197 103.285 192.531 102.605 192.849 101.918C192.981 101.631 193.159 101.47 193.498 101.496C193.806 101.519 194.118 101.501 194.458 101.501C194.141 102.043 193.839 102.563 193.535 103.083C193.212 103.637 192.892 104.192 192.563 104.741C192.504 104.839 192.486 104.932 192.486 105.04C192.489 105.662 192.487 106.284 192.487 106.921C192.069 106.921 191.654 106.921 191.212 106.921Z" fill="black"/>
<path d="M151.706 103.988C151.939 103.503 152.168 103.03 152.396 102.556C152.518 102.302 152.639 102.047 152.762 101.795C152.862 101.592 153.019 101.493 153.254 101.499C153.593 101.509 153.933 101.502 154.305 101.502C154.172 101.729 154.05 101.939 153.928 102.149C153.423 103.012 152.92 103.876 152.411 104.737C152.354 104.833 152.333 104.927 152.333 105.036C152.336 105.664 152.335 106.292 152.335 106.928C151.904 106.928 151.489 106.928 151.059 106.928C151.059 106.355 151.047 105.79 151.065 105.226C151.073 104.959 150.998 104.737 150.864 104.513C150.3 103.57 149.747 102.621 149.191 101.674C149.163 101.627 149.143 101.576 149.108 101.504C149.517 101.504 149.903 101.495 150.289 101.509C150.468 101.515 150.566 101.658 150.64 101.809C150.993 102.529 151.345 103.25 151.706 103.988Z" fill="black"/>
<path d="M111.622 106.93C111.183 106.93 110.781 106.93 110.362 106.93C110.362 105.459 110.362 103.992 110.362 102.507C109.845 102.507 109.346 102.507 108.835 102.507C108.835 102.169 108.835 101.846 108.835 101.513C110.263 101.513 111.69 101.513 113.128 101.513C113.128 101.835 113.128 102.155 113.128 102.493C112.626 102.493 112.133 102.493 111.622 102.493C111.622 103.978 111.622 105.445 111.622 106.93Z" fill="black"/>
<path d="M158.562 102.493C158.562 103.988 158.562 105.45 158.562 106.924C158.146 106.924 157.738 106.924 157.311 106.924C157.311 105.456 157.311 103.989 157.311 102.506C156.798 102.506 156.306 102.506 155.796 102.506C155.796 102.167 155.796 101.846 155.796 101.513C157.213 101.513 158.641 101.513 160.081 101.513C160.081 101.831 160.081 102.152 160.081 102.493C159.584 102.493 159.086 102.493 158.562 102.493Z" fill="black"/>
<path d="M161.972 106.93C161.552 106.93 161.143 106.93 160.722 106.93C160.722 105.124 160.722 103.324 160.722 101.513C161.131 101.513 161.546 101.513 161.972 101.513C161.972 103.313 161.972 105.113 161.972 106.93Z" fill="black"/>
</g>
<defs>
<clipPath id="clip0_16_9220">
<rect width="135.989" height="30" fill="white" transform="translate(89 77)"/>
</clipPath>
</defs>
</svg>
